<?xml version="1.0" encoding="utf-8"?>
<!-- Generator: Adobe Illustrator 24.3.0, SVG Export Plug-In . SVG Version: 6.00 Build 0)  -->
<svg version="1.1" id="Layer_1" xmlns="http://www.w3.org/2000/svg" xmlns:xlink="http://www.w3.org/1999/xlink" x="0px" y="0px"
	 viewBox="0 0 179.8 209.3" style="enable-background:new 0 0 179.8 209.3;" xml:space="preserve">
<style type="text/css">
	.st0{fill:#FFFFFF;}
</style>
<g id="Layer_2_1_">
	<g id="Layer_1-2">
		<path class="st0" d="M22.5,189.7H82v19.6h44.1v-19.6h53.6V18.9h-53.6V0H82v18.9H29.7V0h-7.2C10.1,0,0,10.1,0,22.5v144.7
			C0,179.6,10.1,189.7,22.5,189.7z M126.1,26.1h46.5v156.5h-46.5V26.1z M89.1,189.7V7.1H119v22.3h-17.2v7.1H119v16.4h-12.2V60H119
			v16.4h-17.2v7.1H119v16.4h-12.2v7.1H119v16.4h-17.2v7.1H119v16.4h-12.2v7.2H119v48.1H89.2L89.1,189.7z M7.1,22.5
			C7.1,14,14,7.1,22.5,7.1v137.1l0,0c-5.7,0-11.2,2.2-15.4,6.1V22.5z M7.1,166.7c0-8.5,6.9-15.4,15.4-15.4h7.2V26.1H82v156.5H22.5
			c-8.5,0-15.4-6.9-15.4-15.4V166.7z"/>
	</g>
</g>
</svg>
