<?xml version="1.0" encoding="utf-8"?>
<!-- Generator: Adobe Illustrator 24.3.0, SVG Export Plug-In . SVG Version: 6.00 Build 0)  -->
<svg version="1.1" id="Layer_1" xmlns="http://www.w3.org/2000/svg" xmlns:xlink="http://www.w3.org/1999/xlink" x="0px" y="0px"
	 viewBox="0 0 128.9 128.9" style="enable-background:new 0 0 128.9 128.9;" xml:space="preserve">
<style type="text/css">
	.st0{fill:#FFFFFF;}
</style>
<g id="Layer_2_1_">
	<g id="Layer_1-2">
		<path class="st0" d="M64.4,0C28.9,0,0,28.9,0,64.4s28.9,64.4,64.4,64.4s64.4-28.9,64.4-64.4l0,0C128.9,28.9,100,0,64.4,0z
			 M64.4,12.3c23.2,0,43.6,15.3,50.1,37.6c-16.3-4.4-33.1-6.6-50-6.8c-16.9,0.1-33.8,2.4-50.1,6.8C20.9,27.7,41.3,12.4,64.4,12.3z
			 M64.4,80.7c-7.1,0-12.9-5.8-12.9-12.9s5.8-12.9,12.9-12.9c7.1,0,12.9,5.8,12.9,12.9c0,0,0,0,0,0C77.3,74.9,71.6,80.7,64.4,80.7z
			 M13.3,74.6C34.5,74.8,51,91.9,51,113.8c0,0.3,0,0.7,0,1C31.8,109.6,17.2,94,13.3,74.6z M77.9,114.8c0-0.4,0-0.7,0-1
			c0-21.8,16.5-39,37.7-39.2C111.7,94.1,97.1,109.6,77.9,114.8z"/>
	</g>
</g>
</svg>
