<?xml version="1.0" encoding="utf-8"?>
<!-- Generator: Adobe Illustrator 24.3.0, SVG Export Plug-In . SVG Version: 6.00 Build 0)  -->
<svg version="1.1" id="Layer_1" xmlns="http://www.w3.org/2000/svg" xmlns:xlink="http://www.w3.org/1999/xlink" x="0px" y="0px"
	 viewBox="0 0 211.7 225" style="enable-background:new 0 0 211.7 225;" xml:space="preserve">
<style type="text/css">
	.st0{fill:#FFFFFF;}
</style>
<g id="Layer_2_1_">
	<g id="Layer_1-2">
		<path class="st0" d="M193.5,215.5c-14-1.6-27.7-5.7-40.3-12.1c8.5-0.9,16.5-4.2,23.1-9.6c13.8-12,14.8-32.8,14.8-33.7
			c0.1-2.5-1.8-4.7-4.3-4.9c-0.9,0-21.6-2-35.4,10c-9.5,8.2-12.9,20.6-14.1,27.9c-7.3-5.9-13.8-12.8-19.2-20.4
			c-7.5-10.5-12.9-22.4-16-34.9c1.1-0.6,2.2-1.2,3.3-1.8l14.2,4.6c1.7,0.5,3.5,0.1,4.8-1.2l5.2-5.2c1.3-1.3,1.7-3.1,1.2-4.8
			l-4.4-13.8c3.1-5,5.4-10.4,6.9-16.1l13.1-7.4c1.5-0.9,2.4-2.4,2.4-4.1v-7.4c0-1.7-0.9-3.3-2.4-4.1L133.4,69
			c-1.5-5.9-3.8-11.5-7-16.6l4.3-13.4c0.5-1.7,0.1-3.5-1.2-4.8l-5.2-5.2c-1.3-1.3-3.1-1.7-4.8-1.2L106,32.1
			c-5.1-3.1-10.6-5.3-16.3-6.8l-7.5-13.2c-0.9-1.5-2.5-2.4-4.2-2.4h-7.4c-1.7,0-3.3,0.9-4.1,2.4l-7.7,13.5
			c-5.5,1.5-10.7,3.8-15.6,6.8l-13.9-4.8c-1.7-0.6-3.6-0.1-4.9,1.1L19.2,34c-1.4,1.3-1.8,3.2-1.2,5l4.8,14.5
			c-2.7,4.7-4.8,9.7-6.2,15L2.4,76.3C0.9,77.1,0,78.7,0,80.4v7.4c0,1.7,0.9,3.3,2.4,4.2l14.3,8c1.4,5.1,3.5,9.9,6.2,14.5L18,129.3
			c-0.6,1.7-0.1,3.6,1.1,4.9l5.2,5.2c1.3,1.3,3.2,1.7,4.9,1.1l14.7-4.9c4.6,2.8,9.6,4.9,14.8,6.4l7.8,14.2c0.8,1.5,2.4,2.4,4.2,2.4
			H78c1.7,0,3.3-0.9,4.2-2.4l7.6-13.7c1.1-0.3,2.2-0.6,3.3-1c2.9,11,7.4,21.5,13.4,31.1c-8.5-3.9-17.9-5.3-27.1-4.2
			c-21.4,3.2-35.5,23.4-35.9,24.3c-1.4,2.1-1,4.9,1,6.4c0.7,0.6,16.7,12.9,35.5,12.9c2,0,4-0.1,6-0.4c17-2.6,29.3-15.8,34-21.6
			c14.4,15.3,37.2,30.6,72.3,35h0.6c2.6,0.3,5-1.6,5.2-4.3c0.3-2.6-1.6-5-4.3-5.2C193.7,215.6,193.6,215.5,193.5,215.5L193.5,215.5z
			 M157.6,172.4c7.2-6.2,17.4-7.6,23.4-7.8c-1,5.9-3.7,15.8-11,22.1s-17.4,7.6-23.4,7.8C147.6,188.6,150.4,178.7,157.6,172.4
			L157.6,172.4z M46.3,93.7c-5.3-0.2-9.5-4.6-9.3-9.9c0.2-5.1,4.2-9.1,9.3-9.3h18.8V55.8c0-5.3,4.3-9.6,9.6-9.6
			c5.3,0,9.6,4.3,9.6,9.6v18.8h18.7c5.3,0.2,9.5,4.6,9.3,9.9c-0.2,5.1-4.2,9.1-9.3,9.3H84.2v18.8c-0.2,5.3-4.6,9.5-9.9,9.3
			c-5.1-0.2-9.1-4.2-9.3-9.3V93.7H46.3z M84.5,202.1c-12.2,1.9-24.3-4.1-30.3-7.8c4.7-5.3,14.4-14.7,26.6-16.6s24.3,4.2,30.3,7.8
			C106.5,191,96.7,200.3,84.5,202.1z"/>
		<path class="st0" d="M205,42.4c0-0.2-0.3-0.3-0.5-0.5c0.2-1.3,0.3-2.5,0.3-3.8v-2.8c0-0.2,0.4-0.3,0.5-0.5l5.7-7.9
			c0.9-1.5,0.9-3.4,0-4.9l-1.6-3.1c-0.8-1.6-2.5-2.6-4.3-2.6h-10c-2.6-2.4-5.7-4.2-9-5.5l-4.5-8.4c-0.9-1.6-2.5-2.6-4.3-2.5h-3.5
			c-1.8,0.1-3.4,1.2-4.2,2.8l-3.6,7.8c-3.2,1.1-6.2,2.8-8.8,5l-8.2-0.4c-1.8-0.1-3.5,0.8-4.4,2.4l-1.8,3c-0.9,1.6-0.8,3.5,0.2,5
			l4.3,6.4c-0.4,1.9-0.6,3.9-0.6,5.8c0,1.6,0.1,3.2,0.4,4.8l-4.6,6.5c-1.1,1.5-1.2,3.4-0.3,5l1.6,3.1c0.8,1.6,2.4,2.5,4.2,2.5l0,0
			l8.2-0.2c3.2,2.9,7,5,11.1,6.2l4.2,7.7c0.9,1.5,2.4,2.4,4.2,2.4h3.5c1.8-0.1,3.4-1.2,4.2-2.8l4.5-8.7l0,0c2.4-1.1,4.6-2.5,6.6-4.1
			h0.3l9.6,0.4h0.2c1.7,0,3.3-0.9,4.1-2.4l1.8-3c0.9-1.5,0.9-3.5,0-5L205,42.4z M175.8,48c-5.5,0-10-4.5-10-10s4.5-10,10-10
			s10,4.5,10,10l0,0C185.8,43.5,181.3,48,175.8,48z"/>
	</g>
</g>
</svg>
