<?xml version="1.0" encoding="utf-8"?>
<!-- Generator: Adobe Illustrator 24.3.0, SVG Export Plug-In . SVG Version: 6.00 Build 0)  -->
<svg version="1.1" id="Layer_1" xmlns="http://www.w3.org/2000/svg" xmlns:xlink="http://www.w3.org/1999/xlink" x="0px" y="0px"
	 viewBox="0 0 85.6 97" style="enable-background:new 0 0 85.6 97;" xml:space="preserve">
<style type="text/css">
	.st0{fill:#FFFFFF;}
</style>
<g id="Layer_2_1_">
	<g id="Layer_1-2">
		<path class="st0" d="M20.4,23.8c6.6,0,11.9-5.3,11.9-11.9S26.9,0,20.3,0C13.8,0,8.4,5.3,8.4,11.9l0,0
			C8.4,18.5,13.8,23.8,20.4,23.8z M20.4,5c3.8,0,6.9,3.1,6.9,6.9s-3.1,6.9-6.9,6.9s-6.9-3.1-6.9-6.9S16.5,5,20.4,5L20.4,5z
			 M0.1,37.5c-0.7-6,3.6-11.4,9.6-12.1c0.4,0,0.8-0.1,1.2-0.1H14c0.9,0,1.7,0.4,2.3,1.1l4.1,5.1l4.1-5.1c0.6-0.7,1.4-1.1,2.3-1.1
			h3.1c6,0,10.9,4.9,10.9,11c0,0,0,0,0,0c0,0.4,0,0.8-0.1,1.2l-2.5,18.4c-0.3,3.1-2.1,5.8-4.8,7.3l-2.1,15.7
			c-0.2,1.4-1.5,2.3-2.8,2.2c-1.4-0.2-2.3-1.5-2.2-2.8l2.3-17.1c0.1-0.9,0.8-1.7,1.6-2c1.6-0.6,2.8-2.1,3-3.8l2.5-18.4
			c0.3-3.2-2-6.2-5.3-6.5c0,0,0,0,0,0h-0.5h-2.1L23.2,36c-0.7,0.9-1.7,1.3-2.8,1.3c-1.1,0-2.2-0.4-2.8-1.3L13,30.3h-2.1
			C7.6,30.3,5,33,5,36.2l0,0c0,0.2,0,0.4,0,0.7l2.5,18.4c0.2,1.8,1.3,3.3,3,3.9c0.9,0.3,1.5,1.1,1.6,2l4.1,30.2
			c0,0.4,0.4,0.7,0.8,0.7h7.7l20.6-19.9c0.5-0.5,1.1-0.7,1.8-0.7c0.7,0,1.3,0.3,1.8,0.8l9.3,9.6l18.7-18.2l-5.3,0.2
			c-1.4,0.1-2.5-1-2.6-2.4s1-2.5,2.4-2.6l11.2-0.5c1.4-0.1,2.5,1,2.6,2.4l0,0l0.5,11.2c0.1,1.4-0.9,2.6-2.3,2.7h-0.2
			c-1.3,0-2.4-1.1-2.5-2.4l-0.2-5L59.8,87.1c-1,1-2.6,1-3.5,0l0,0L47,77.4L27.4,96.3C27,96.8,26.3,97,25.7,97H17
			c-2.9,0-5.4-2.2-5.7-5.1L7.3,63.2c-2.7-1.5-4.5-4.2-4.8-7.3L0.1,37.5z M35.4,14.5C42.1,1.4,58.1-3.7,71.1,2.9s18.3,22.7,11.6,35.7
			C76.1,51.7,60.1,56.9,47,50.3c-1.2-0.6-1.7-2.1-1.1-3.4c0.6-1.2,2.1-1.7,3.4-1.1c10.6,5.4,23.6,1.2,29-9.4s1.2-23.6-9.4-29
			s-23.6-1.2-29,9.4c0,0,0,0,0,0l0,0c-0.6,1.2-2.1,1.8-3.4,1.2c-1.2-0.6-1.8-2.1-1.2-3.4C35.3,14.6,35.3,14.6,35.4,14.5L35.4,14.5z
			 M61.6,12.5v13l7.7,7.7c1,1,1,2.6,0,3.5s-2.6,1-3.5,0l-8.4-8.4c-0.5-0.5-0.7-1.1-0.7-1.8v-14c0-1.4,1.1-2.5,2.5-2.5
			S61.6,11.2,61.6,12.5L61.6,12.5z"/>
	</g>
</g>
</svg>
