<?xml version="1.0" encoding="utf-8"?>
<!-- Generator: Adobe Illustrator 24.3.0, SVG Export Plug-In . SVG Version: 6.00 Build 0)  -->
<svg version="1.1" id="Layer_1" xmlns="http://www.w3.org/2000/svg" xmlns:xlink="http://www.w3.org/1999/xlink" x="0px" y="0px"
	 viewBox="0 0 148.2 203.8" style="enable-background:new 0 0 148.2 203.8;" xml:space="preserve">
<style type="text/css">
	.st0{fill:#FFFFFF;}
</style>
<g id="Layer_2_1_">
	<g id="Layer_1-2">
		<path class="st0" d="M106.5,134.8c-7.7,0-13.9,6.2-13.9,13.9s6.2,13.9,13.9,13.9s13.9-6.2,13.9-13.9c0,0,0,0,0,0l0,0
			C120.4,141,114.2,134.8,106.5,134.8C106.5,134.8,106.5,134.8,106.5,134.8z M106.5,153.3c-2.6,0-4.6-2.1-4.6-4.6
			c0-2.6,2.1-4.6,4.6-4.6c2.6,0,4.6,2.1,4.6,4.6S109.1,153.3,106.5,153.3L106.5,153.3z"/>
		<path class="st0" d="M74.1,157.4c-7.7,0-13.9,6.2-13.9,13.9s6.2,13.9,13.9,13.9c7.7,0,13.9-6.2,13.9-13.9
			C88,163.7,81.8,157.4,74.1,157.4C74.1,157.4,74.1,157.4,74.1,157.4z M74.1,176c-2.6,0-4.6-2.1-4.6-4.6c0-2.6,2.1-4.6,4.6-4.6
			c2.6,0,4.6,2.1,4.6,4.6C78.7,173.9,76.7,176,74.1,176C74.1,176,74.1,176,74.1,176L74.1,176z"/>
		<path class="st0" d="M44.2,134.8c-7.7,0-13.9,6.2-13.9,13.9c0,7.7,6.2,13.9,13.9,13.9s13.9-6.2,13.9-13.9c0,0,0,0,0,0l0,0
			C58.1,141,51.9,134.8,44.2,134.8C44.2,134.8,44.2,134.8,44.2,134.8z M44.2,153.3c-2.5-0.1-4.6-2.1-4.6-4.6c0-2.6,2.1-4.6,4.6-4.6
			c2.6,0,4.6,2.1,4.6,4.6C48.8,151.2,46.7,153.3,44.2,153.3z"/>
		<path class="st0" d="M145.2,109.5c0-0.4,0-0.7,0-1.1c-6.5-21.5-22.5-39-43.3-47.4V27c7.2-2.5,11.1-10.5,8.5-17.7
			c-2-5.6-7.2-9.3-13.2-9.3H50.9C43.3,0,37,6.2,37,13.8c0,5.9,3.7,11.2,9.3,13.2v34C25.5,69.4,9.6,86.9,3.2,108.4c0,0.4,0,0.9,0,1.3
			c-1.9,6.5-3,13.2-3.2,19.9c-0.3,40.9,32.6,74.3,73.6,74.6s74.3-32.6,74.6-73.6C148.2,123.5,147.2,116.4,145.2,109.5z M52.6,68.6
			c1.8-0.7,3-2.4,3-4.4V23.1c0-2.6-2.1-4.6-4.6-4.6c-2.6,0-4.6-2.1-4.6-4.6s2.1-4.6,4.6-4.6c0,0,0,0,0,0h46.3c2.6,0,4.6,2.1,4.6,4.6
			c0,2.6-2.1,4.6-4.6,4.6c-2.6,0-4.6,2.1-4.6,4.6v41.1c0,1.9,1.2,3.7,3.1,4.4c17.2,6.1,30.9,19.1,38,35.9c-13.5,0.1-27,2-40,5.7
			c-13.4,3.7-27.2,5.8-41.1,6.4c-13.6-0.2-26.9-3.3-39.2-9.3c6.6-18.1,21-32.3,39.1-38.7H52.6z M74.1,194.5
			c-35.8,0-64.8-29-64.8-64.8c0-4.4,0.6-8.8,1.6-13.2c13.1,6,27.3,9.2,41.7,9.3c14.6-0.5,29.1-2.7,43.2-6.6
			c13.3-4,27.2-5.7,41.1-5.2c1.4,5.1,2.1,10.4,2.1,15.6C138.9,165.4,109.9,194.5,74.1,194.5C74.1,194.5,74.1,194.5,74.1,194.5z"/>
	</g>
</g>
</svg>
