<?xml version="1.0" encoding="utf-8"?>
<!-- Generator: Adobe Illustrator 24.3.0, SVG Export Plug-In . SVG Version: 6.00 Build 0)  -->
<svg version="1.1" id="Layer_1" xmlns="http://www.w3.org/2000/svg" xmlns:xlink="http://www.w3.org/1999/xlink" x="0px" y="0px"
	 viewBox="0 0 222 242.9" style="enable-background:new 0 0 222 242.9;" xml:space="preserve">
<style type="text/css">
	.st0{fill:#FFFFFF;}
</style>
<g id="Layer_2_1_">
	<g id="Layer_1-2">
		<path class="st0" d="M203.9,118.6h-19.6c7.3,40.5-19.7,79.2-60.2,86.5s-79.2-19.7-86.5-60.2c-0.8-4.3-1.2-8.7-1.2-13.2
			c0-4.4,0.4-8.8,1.2-13.2H18.1v35.5l-16.3,9.1L26.3,207l14.8-8.3l47.4,27.4v16.8h50.2v-19.8l42.1-24.3l14.8,8.3l24.5-43.7
			l-16.3-9.1L203.9,118.6L203.9,118.6z"/>
		<path class="st0" d="M7.1,113.3h207.8c3.9,0,7.1-3.2,7.1-7.1c0-3.9-3.2-7.1-7.1-7.1c0,0,0,0,0,0h-9.6
			c-2.6-33.4-22.7-62.9-52.8-77.6l-4.3,33.5c-0.2,11.1-9.2,20-20.3,20H95.3c-11.1,0-20.1-8.9-20.3-20l-4.7-33.9
			c-30.5,14.6-50.9,44.3-53.5,78H7.1c-3.9,0.1-7,3.4-6.8,7.3C0.4,110.3,3.4,113.2,7.1,113.3L7.1,113.3z"/>
		<path class="st0" d="M95.3,64.9h32.5c5.6,0,10.2-4.5,10.2-10.1c0,0,0,0,0,0v-0.7l4.7-36.6c-6.3-2.2-12.8-3.8-19.5-4.7v-0.9
			c-0.2-6.6-5.7-11.8-12.3-11.6c-6.3,0.2-11.4,5.3-11.6,11.6v0.8c-6.6,0.8-13.1,2.3-19.5,4.5l5.2,37.5
			C85.2,60.4,89.7,64.9,95.3,64.9z"/>
	</g>
</g>
</svg>
