<?xml version="1.0" encoding="utf-8"?>
<!-- Generator: Adobe Illustrator 24.3.0, SVG Export Plug-In . SVG Version: 6.00 Build 0)  -->
<svg version="1.1" id="Layer_1" xmlns="http://www.w3.org/2000/svg" xmlns:xlink="http://www.w3.org/1999/xlink" x="0px" y="0px"
	 viewBox="0 0 337.5 313" style="enable-background:new 0 0 337.5 313;" xml:space="preserve">
<style type="text/css">
	.st0{fill:#FFFFFF;}
</style>
<g id="Layer_2_1_">
	<g id="Layer_1-2">
		<path class="st0" d="M312,131.1c-11.4,0-21.4,7.6-24.5,18.5h-44.8v-32.3h27c4.1,0,7.4-3.3,7.5-7.5V76
			c13.8-4.1,21.6-18.6,17.5-32.3c-4.1-13.8-18.6-21.6-32.3-17.5c-11,3.3-18.6,13.4-18.6,25c0,11.7,7.8,21.3,18.5,24.9v26h-21.7
			c-4.4-11.4-15.5-18.9-27.7-18.8h-36.2V50.5c10.9-3.2,18.3-13.2,18.5-24.5c0-14.3-11.6-25.9-25.9-25.9s-25.9,11.6-25.9,25.9
			c0,11.4,7.6,21.4,18.5,24.5v32.7h-36.6c-12.2,0.1-23.1,7.6-27.7,18.9H75.7V76c13.8-4.1,21.6-18.6,17.5-32.3S74.6,22.1,60.9,26.2
			c-11,3.3-18.6,13.4-18.6,25c0,11.7,7.8,21.3,18.5,24.9v33.8c0,4.1,3.3,7.4,7.5,7.5h27v32.3H50.8c-4.1-13.8-18.6-21.6-32.4-17.5
			C4.7,136.2-3.1,150.7,1,164.5c3.3,11,13.4,18.6,24.9,18.5c11.7,0,21.3-7.8,24.9-18.5h44.4v32h-27c-4.1,0-7.4,3.4-7.5,7.5v34.1
			c-13.6,4.2-21.3,18.6-17.1,32.3s18.6,21.3,32.3,17.1c10.9-3.4,18.3-13.4,18.2-24.8c0-11.4-7.6-21.4-18.5-24.5v-26.7h21.7
			c4.4,11.4,15.5,18.9,27.7,18.8h36.2v32.3c-13.6,4.2-21.3,18.6-17.1,32.3s18.6,21.3,32.3,17.1c10.9-3.3,18.3-13.4,18.2-24.8
			c0-11.4-7.6-21.4-18.5-24.5v-32.3h36.3c12.2-0.1,23.1-7.5,27.7-18.8h21.7v26.6c-13.6,4.2-21.3,18.6-17.1,32.3
			c4.2,13.6,18.6,21.3,32.3,17.1c10.9-3.4,18.3-13.4,18.2-24.8c0-11.4-7.5-21.4-18.5-24.5V204c0.1-4-3.1-7.4-7.1-7.5
			c-0.1,0-0.2,0-0.4,0h-27v-32h44.8c4,13.6,18.3,21.5,32,17.5c11-3.2,18.6-13.4,18.5-24.9c0.2-14.1-11-25.7-25.1-26
			C312.3,131.1,312.1,131.1,312,131.1z M259,51.5c0-5.9,4.8-10.7,10.7-10.7s10.7,4.8,10.7,10.7s-4.8,10.7-10.7,10.7
			C263.8,62.2,259,57.4,259,51.5z M158.1,26.3c0-5.9,4.8-10.6,10.7-10.6c5.9,0,10.6,4.8,10.6,10.7c0,5.9-4.8,10.6-10.7,10.6
			C162.9,37,158.1,32.2,158.1,26.3z M57.6,51.5c0-5.9,4.8-10.7,10.7-10.7s10.7,4.8,10.7,10.7s-4.8,10.7-10.7,10.7l0,0
			c-5.8,0.1-10.6-4.5-10.7-10.3C57.6,51.8,57.6,51.6,57.6,51.5z M26.3,168.1c-5.8-0.1-10.5-4.8-10.7-10.7c0-5.9,4.8-10.7,10.7-10.7
			S37,151.5,37,157.4C36.8,163.2,32.1,167.9,26.3,168.1z M79.2,262.9c0,5.9-4.8,10.7-10.7,10.7c-5.9,0-10.7-4.8-10.7-10.7
			c0-5.9,4.8-10.7,10.7-10.7c0,0,0,0,0,0C74.5,252.3,79.2,257.1,79.2,262.9z M179.8,287.8c0,5.9-4.8,10.7-10.7,10.7
			c-5.9,0-10.6-4.8-10.7-10.7c0.1-5.8,4.8-10.5,10.7-10.7C175,277.2,179.8,281.9,179.8,287.8z M280.7,262.9
			c0,5.9-4.8,10.7-10.7,10.7s-10.7-4.8-10.7-10.7c0-5.9,4.7-10.6,10.6-10.7C275.9,252.3,280.7,257,280.7,262.9z M227.8,201.1
			c0.1,8-6.3,14.5-14.2,14.6c-0.1,0-0.2,0-0.3,0h-88.1c-8,0.1-14.5-6.3-14.6-14.2c0-0.1,0-0.2,0-0.3v-87.8
			c-0.1-8,6.3-14.5,14.3-14.6c0.1,0,0.2,0,0.3,0h87.8c8-0.1,14.5,6.3,14.6,14.2c0,0.1,0,0.2,0,0.3v87.8H227.8z M312,168.1
			c-5.9,0-10.7-4.8-10.7-10.7s4.8-10.7,10.7-10.7c5.9,0,10.7,4.8,10.7,10.7C322.6,163.3,317.9,168,312,168.1z"/>
		<path class="st0" d="M196.5,122.2h-54.7c-4.1,0-7.4,3.3-7.5,7.5v54.7c0,4.1,3.3,7.4,7.5,7.5h54.7c4.1,0,7.4-3.4,7.5-7.5v-54.7
			c0.1-4-3.1-7.4-7.1-7.5C196.7,122.2,196.6,122.2,196.5,122.2z M189,176.9h-39.8v-39.8H189V176.9z"/>
	</g>
</g>
</svg>
