<?xml version="1.0" encoding="utf-8"?>
<!-- Generator: Adobe Illustrator 24.3.0, SVG Export Plug-In . SVG Version: 6.00 Build 0)  -->
<svg version="1.1" id="Layer_1" xmlns="http://www.w3.org/2000/svg" xmlns:xlink="http://www.w3.org/1999/xlink" x="0px" y="0px"
	 viewBox="0 0 71.9 90" style="enable-background:new 0 0 71.9 90;" xml:space="preserve">
<style type="text/css">
	.st0{fill:#FFFFFF;}
</style>
<g id="Layer_2_1_">
	<g id="Layer_1-2">
		<path class="st0" d="M53,34.7l-2-13c-0.1-1-1-1.7-2-1.7H23c-1,0-1.9,0.7-2,1.7l-2,13V35c0,1.8,0.7,3.6,2,4.9V50c0,1.1,0.9,2,2,2
			h26c1.1,0,2-0.9,2-2V39.9c1.3-1.3,2-3.1,2-4.9V34.7z M24.6,24h22.6L49,35.1c-0.1,1.6-1.4,2.9-3,2.9c-1.7,0-3-1.3-3-3
			c0-1.1-0.9-2-2-2s-2,0.9-2,2c0,1.7-1.3,3-3,3s-3-1.3-3-3c0-1.1-0.9-2-2-2c-1.1,0-2,0.9-2,2c0,1.7-1.3,3-3,3c-1.6,0-2.9-1.3-3-2.9
			L24.6,24z M25,48v-6.1c0.3,0,0.7,0.1,1,0.1c1.9,0,3.7-0.8,5-2.1c2.7,2.8,7.1,2.8,9.9,0.1c0,0,0.1-0.1,0.1-0.1
			c1.3,1.3,3.1,2.1,5,2.1c0.3,0,0.7,0,1-0.1V48H25z M61.1,10.2C54.2,3.4,44.7-0.3,35,0C15.1,0.5-0.5,17.1,0,37
			c0.4,14.5,9.5,27.4,23.1,32.6c1.5,0.6,2.7,1.7,3.4,3.2l7.7,16.1c0.5,1,1.7,1.4,2.7,0.9c0.4-0.2,0.7-0.5,0.9-0.9l7.7-16.1
			c0.7-1.5,1.9-2.6,3.4-3.2C62.8,64.2,71.9,50.9,72,36C72,26.3,68.1,17,61.1,10.2L61.1,10.2z M47.5,65.9c-2.5,1-4.5,2.8-5.6,5.2
			L36,83.4L30,71c-1.2-2.4-3.1-4.2-5.6-5.2C8,59.4-0.2,40.8,6.3,24.4C10.9,12.4,22.2,4.4,35,4h1c8.3,0,16.4,3.2,22.3,9.1
			c6.3,6,9.8,14.3,9.7,22.9C67.9,49.2,59.8,61.1,47.5,65.9L47.5,65.9z"/>
	</g>
</g>
</svg>
