<?xml version="1.0" encoding="utf-8"?>
<!-- Generator: Adobe Illustrator 24.3.0, SVG Export Plug-In . SVG Version: 6.00 Build 0)  -->
<svg version="1.1" id="Layer_1" xmlns="http://www.w3.org/2000/svg" xmlns:xlink="http://www.w3.org/1999/xlink" x="0px" y="0px"
	 viewBox="0 0 296.9 239.1" style="enable-background:new 0 0 296.9 239.1;" xml:space="preserve">
<style type="text/css">
	.st0{fill:#FFFFFF;}
</style>
<g id="Layer_2_1_">
	<g id="Layer_1-2">
		<path class="st0" d="M30,0C13.5,0,0.1,13.4,0,30v179.1c0.1,16.6,13.5,30,30,30h236.8c16.5-0.1,29.9-13.5,30-30V30
			c-0.1-16.5-13.5-29.9-30-30H30z M30,17.4h236.8c6.8-0.1,12.5,5.3,12.6,12.1c0,0.2,0,0.3,0,0.5v24.5h-262V30
			c-0.1-6.8,5.3-12.5,12.1-12.6C29.7,17.4,29.9,17.4,30,17.4z M41.5,26.2c-5.4,0-9.8,4.4-9.8,9.8s4.4,9.8,9.8,9.8
			c5.4,0,9.8-4.4,9.8-9.8C51.2,30.6,46.9,26.2,41.5,26.2z M71.8,26.2c-5.4,0-9.8,4.4-9.8,9.8c0,5.4,4.4,9.8,9.8,9.8
			c5.4,0,9.8-4.4,9.8-9.8C81.5,30.6,77.2,26.2,71.8,26.2z M102.1,26.2c-5.4,0-9.8,4.4-9.8,9.8c0,5.4,4.4,9.8,9.8,9.8
			c5.4,0,9.8-4.4,9.8-9.8C111.8,30.6,107.5,26.2,102.1,26.2z M17.5,72h262v137.1c0.1,6.8-5.3,12.4-12.1,12.5c-0.2,0-0.3,0-0.5,0H30
			c-6.8,0.1-12.4-5.3-12.6-12.1c0-0.1,0-0.3,0-0.4V72z M158,100.7c-3.8,0.2-7.1,2.9-8,6.6l-20,74.6c-1.4,4.6,1.3,9.5,5.9,10.9
			c4.6,1.4,9.5-1.3,10.9-5.9l0,0l0.1-0.5l20-74.6c1.3-4.6-1.4-9.5-6-10.8C160,100.8,159,100.6,158,100.7z M183.3,110.8
			c-0.3,0-0.6,0-0.9,0c-4.8,0.3-8.4,4.5-8.1,9.3c0.1,2.1,1,4,2.5,5.5l20,21.2l-20,21.2c-3.4,3.4-3.4,8.9,0,12.4
			c3.4,3.4,8.9,3.4,12.4,0c0.1-0.1,0.2-0.2,0.4-0.4l25.7-27.2c3.2-3.4,3.2-8.6,0-12l-25.7-27.3C187.8,111.8,185.6,110.8,183.3,110.8
			L183.3,110.8z M114.3,110.8c-0.3,0-0.6,0-0.9,0c-2.3,0.1-4.4,1.1-5.9,2.8l-25.8,27.3c-3.2,3.4-3.2,8.6,0,12l25.8,27.2
			c3.2,3.6,8.7,3.9,12.3,0.7c3.6-3.2,3.9-8.7,0.7-12.3c-0.1-0.1-0.3-0.3-0.4-0.4L100,146.8l20.1-21.2c3.4-3.4,3.3-9-0.1-12.3
			C118.5,111.8,116.4,110.9,114.3,110.8L114.3,110.8z"/>
	</g>
</g>
</svg>
