<?xml version="1.0" encoding="utf-8"?>
<!-- Generator: Adobe Illustrator 24.3.0, SVG Export Plug-In . SVG Version: 6.00 Build 0)  -->
<svg version="1.1" id="Layer_1" xmlns="http://www.w3.org/2000/svg" xmlns:xlink="http://www.w3.org/1999/xlink" x="0px" y="0px"
	 viewBox="0 0 127.5 113" style="enable-background:new 0 0 127.5 113;" xml:space="preserve">
<style type="text/css">
	.st0{fill:#FFFFFF;}
</style>
<g id="Layer_2_1_">
	<g id="Layer_1-2">
		<path class="st0" d="M124.8,84.2L80.1,9.3C76.7,3.5,70.5,0,63.8,0l0,0c-6.7,0-12.9,3.5-16.4,9.3L2.7,84.2
			c-5.4,9.1-2.3,20.8,6.8,26.2c2.9,1.7,6.2,2.6,9.6,2.6h89.4c6.9,0.1,13.2-3.6,16.5-9.6C128.4,97.4,128.4,90.1,124.8,84.2z
			 M114.6,97.4c-1.2,2.2-3.6,3.6-6.2,3.6H19.1c-3.9,0-7.1-3.2-7.1-7.2c0-1.3,0.4-2.6,1.1-3.7l44.7-74.9c2.1-3.4,6.5-4.5,9.9-2.5
			c1,0.6,1.8,1.4,2.5,2.5l44.7,74.9C116,92.5,116,95.2,114.6,97.4z"/>
		<path class="st0" d="M75.8,55.6l-6.2,0.9c-0.6,0.1-1.2-0.3-1.3-1c0-0.1,0-0.2,0-0.3V41.8c0-1.8-1.4-3.4-3.3-3.4
			c-1.3,0-2.5,0.7-3,1.8L48.2,66c-0.9,1.6-0.3,3.7,1.3,4.6c0.7,0.4,1.4,0.5,2.2,0.4l6.2-0.9c0.6-0.1,1.2,0.3,1.3,1
			c0,0.1,0,0.2,0,0.3v13.6c0,1.9,1.5,3.4,3.4,3.4c1.2,0,2.4-0.7,3-1.8l13.8-25.9c0.8-1.7,0.1-3.8-1.6-4.6
			C77.2,55.6,76.5,55.5,75.8,55.6z"/>
	</g>
</g>
</svg>
