<?xml version="1.0" encoding="utf-8"?>
<!-- Generator: Adobe Illustrator 24.3.0, SVG Export Plug-In . SVG Version: 6.00 Build 0)  -->
<svg version="1.1" id="Layer_1" xmlns="http://www.w3.org/2000/svg" xmlns:xlink="http://www.w3.org/1999/xlink" x="0px" y="0px"
	 viewBox="0 0 464 464" style="enable-background:new 0 0 464 464;" xml:space="preserve">
<style type="text/css">
	.st0{fill:#FFFFFF;}
</style>
<g id="Layer_2_1_">
	<g id="Layer_1-2">
		<path class="st0" d="M391,136c0.2-3.1-2.2-5.8-5.4-6c0,0,0,0,0,0H360v-19.6c-0.2-3.5-2.9-6.2-6.4-6.4H334V78.6
			c0-3.1-2.6-5.7-5.8-5.6H323V0h-12v73h-5.2c-3-0.2-5.6,2.2-5.8,5.2c0,0,0,0,0,0c0,0.1,0,0.3,0,0.4V104h-8V78.6
			c0-3.3-3.1-5.6-6.5-5.6H280V0h-12v73h-4.6c-3.4,0-6.4,2.3-6.4,5.6V104h-8V78.6c0-3.1-2.5-5.6-5.6-5.6H238V0h-12v73h-5.1
			c-3.1-0.2-5.7,2.2-5.9,5.3c0,0,0,0,0,0c0,0.1,0,0.2,0,0.3V104h-8V78.6c0-3.3-3-5.6-6.4-5.6H196V0h-12v73h-5.5
			c-3.3,0-6.5,2.3-6.5,5.6V104h-8V78.6c0.1-3-2.4-5.6-5.4-5.6H153V0h-12v73h-5c-3.1-0.2-5.8,2.2-6,5.4c0,0,0,0,0,0
			c0,0.1,0,0.2,0,0.3V104h-19.6c-3.5,0.2-6.2,2.9-6.4,6.4V130H78.6c-3.1,0-5.7,2.6-5.6,5.8c0,0.1,0,0.2,0,0.3v5H0v12h73v5.2
			c-0.2,3,2.2,5.6,5.2,5.8H104v8H78.6c-3.3,0-5.6,3.1-5.6,6.5v5.5H0v12h73v4.6c0,3.4,2.3,6.4,5.6,6.4H104v8H78.6
			c-3.1,0-5.6,2.5-5.6,5.6c0,0.1,0,0.2,0,0.3v5.1H0v12h73v5.1c-0.2,3.1,2.2,5.7,5.3,5.9c0,0,0,0,0,0H104v8H78.6
			c-3.3,0-5.6,3-5.6,6.4v4.7H0v12h73v5.5c0,3.3,2.3,6.5,5.6,6.5H104v8H78.6c-3-0.1-5.6,2.4-5.6,5.4c0,0.1,0,0.3,0,0.4v5.2H0v12h73v5
			c-0.2,3.1,2.2,5.8,5.4,6c0,0,0,0,0,0H104v19.6c0.2,3.5,2.9,6.2,6.4,6.4H130v25.4c0,3.1,2.6,5.7,5.8,5.6c0,0,0,0,0,0h5.2v73h12v-73
			h5.2c3,0.2,5.6-2.2,5.8-5.2c0,0,0,0,0,0c0-0.1,0-0.3,0-0.4V360h8v25.4c0,3.3,3.1,5.6,6.5,5.6h5.6v73h12v-73h4.6
			c3.3,0,6.4-2.3,6.4-5.6V360h8v25.4c0,3.1,2.5,5.6,5.6,5.6c0,0,0,0,0,0h5.4v73h12v-73h5.1c3.1,0.2,5.7-2.2,5.9-5.3c0,0,0,0,0,0
			c0-0.1,0-0.2,0-0.3V360h8v25.4c0,3.3,3,5.6,6.4,5.6h4.7v73h12v-73h5.5c3.3,0,6.5-2.3,6.5-5.6V360h8v25.4c-0.1,3,2.4,5.6,5.4,5.6
			h5.6v73h12v-73h5c3.1,0.2,5.8-2.2,6-5.4c0,0,0,0,0,0c0-0.1,0-0.2,0-0.3V360h19.6c3.5-0.2,6.2-2.9,6.4-6.4V334h25.4
			c3.1,0,5.7-2.6,5.6-5.8c0,0,0,0,0,0c0-0.1,0-0.2,0-0.3v-5h73v-12h-73v-5.2c0.2-3-2.2-5.6-5.2-5.8c0,0,0,0,0,0H360v-8h25.4
			c3.3,0,5.6-3.1,5.6-6.5V280h73v-12h-73v-4.6c0-3.3-2.3-6.4-5.6-6.4H360v-8h25.4c3.1,0,5.6-2.5,5.6-5.6c0,0,0,0,0,0
			c0-0.1,0-0.2,0-0.3V238h73v-12h-73v-5.1c0.2-3.1-2.2-5.7-5.3-5.9c0,0,0,0,0,0H360v-8h25.4c3.3,0,5.6-3,5.6-6.4V196h73v-12h-73
			v-5.5c0-3.3-2.3-6.5-5.6-6.5H360v-8h25.4c3,0.1,5.6-2.4,5.6-5.4c0-0.1,0-0.3,0-0.4V153h73v-12h-73V136z M104,322H85v-10h19V322z
			 M104,280H85v-11h19V280z M104,237H85v-10h19V237z M104,195H85v-11h19V195z M104,152H85v-10h19V152z M312,85h10v19h-10V85z
			 M269,85h11v19h-11V85z M227,85h10v19h-10V85z M184,85h11v19h-11V85z M142,85h10v19h-10V85z M152,379h-10v-19h10V379z M195,379
			h-11v-19h11V379z M237,379h-10v-19h10V379z M280,379h-11v-19h11V379z M322,379h-10v-19h10V379z M348,348H116V116h232V348z
			 M379,312v10h-19v-10H379z M379,269v11h-19v-11H379z M379,227v10h-19v-10H379z M379,184v11h-19v-11H379z M379,152h-19v-10h19V152z
			"/>
		<rect x="133" y="128" class="st0" width="12" height="15"/>
		<rect x="133" y="154" class="st0" width="12" height="96"/>
		<path class="st0" d="M300,170c0-3.3-2.7-6-6-6H170c-3.3,0-6,2.7-6,6v124c0,3.3,2.7,6,6,6h124c3.3,0,6-2.7,6-6V170z M176,176h112
			v112H176V176z"/>
		<path class="st0" d="M258,213c0-3.3-2.7-6-6-6h-39c-3.3,0-6,2.7-6,6v39c0,3.3,2.7,6,6,6l0,0h39c3.3,0,6-2.7,6-6l0,0V213z M245,245
			h-26v-26h26V245z"/>
	</g>
</g>
</svg>
