<svg xmlns="http://www.w3.org/2000/svg" viewBox="0 0 77.23 99.36"><defs><style>.cls-1{fill:none;}.cls-2{fill:#fff;}.cls-3{fill:#1ab455;}</style></defs><g id="Layer_2" data-name="Layer 2"><g id="Layer_1-2" data-name="Layer 1"><g id="Layer_2-2" data-name="Layer 2"><g id="Layer_1-2-2" data-name="Layer 1-2"><g id="Layer_2-2-2" data-name="Layer 2-2"><g id="Layer_1-2-2-2" data-name="Layer 1-2-2"><path class="cls-1" d="M14.6,84.68a3,3,0,0,1-.85-2.07,2.92,2.92,0,0,1,2.92-2.92H25a2.93,2.93,0,0,1,0,5.85H16.66A3,3,0,0,1,14.6,84.68Z"/><path class="cls-1" d="M14.61,66.82a2.89,2.89,0,0,1-.86-2.06v0a2.91,2.91,0,0,1,2.92-2.91H25a2.93,2.93,0,1,1,0,5.86H16.67A2.9,2.9,0,0,1,14.61,66.82Z"/><path class="cls-1" d="M14.6,57.9a2.94,2.94,0,0,1,2.07-5H25a2.94,2.94,0,0,1,0,5.87H16.66A3,3,0,0,1,14.6,57.9Z"/><path class="cls-1" d="M14.61,75.7a2.89,2.89,0,0,1,2.06-4.94H25A2.93,2.93,0,0,1,28,73.63v0A2.91,2.91,0,0,1,25,76.55H16.67A2.93,2.93,0,0,1,14.61,75.7Z"/><path class="cls-1" d="M14.6,13.25a3,3,0,0,1-.85-2.07,2.92,2.92,0,0,1,2.92-2.92H45.81a2.93,2.93,0,0,1,0,5.85H16.66A2.91,2.91,0,0,1,14.6,13.25Z"/><path class="cls-1" d="M14.6,49a3,3,0,0,1-.85-2.07A2.91,2.91,0,0,1,16.67,44H45.84a2.91,2.91,0,0,1,2.92,2.91h0a2.94,2.94,0,0,1-2.93,2.94H16.66A2.92,2.92,0,0,1,14.6,49Z"/><path class="cls-1" d="M14.6,22.18a2.93,2.93,0,0,1,2.07-5h35a2.93,2.93,0,0,1,2.92,2.93v0a2.92,2.92,0,0,1-2.92,2.92h-35A2.92,2.92,0,0,1,14.6,22.18Z"/><path class="cls-1" d="M14.6,40A2.93,2.93,0,0,1,13.75,38v0A2.92,2.92,0,0,1,16.67,35h35A2.94,2.94,0,0,1,54.61,38h0a2.92,2.92,0,0,1-2.92,2.92h-35A2.92,2.92,0,0,1,14.6,40Z"/><path class="cls-1" d="M14.61,31.12a2.93,2.93,0,0,1-.86-2.07v0a2.92,2.92,0,0,1,2.92-2.92h39a2.94,2.94,0,0,1,2.93,2.94v0a2.94,2.94,0,0,1-3,2.91H16.67A2.94,2.94,0,0,1,14.61,31.12Z"/><path class="cls-1" d="M72.36,6.07V89.78a4.09,4.09,0,0,1-4.09,4H5.3v-1h63a3,3,0,0,0,3-3V6.07Z"/><path class="cls-1" d="M74.74,6.44a3.92,3.92,0,0,0-.6-.23,2.28,2.28,0,0,0-.52-.1,2.42,2.42,0,0,1,0,.47.22.22,0,0,1,0,.08V92.44a3,3,0,0,1-3,3H6.3a2.94,2.94,0,0,1-.51,0,2.72,2.72,0,0,1-.49-.13v.07a3.6,3.6,0,0,0,.14,1,3.52,3.52,0,0,0,3.38,2.55H73.15a3.53,3.53,0,0,0,3.52-3.52V9.59A3.54,3.54,0,0,0,74.74,6.44Zm1.41,88.9a3,3,0,0,1-3,3H8.81A3,3,0,0,1,6,96.41l.33,0H70.66a4.09,4.09,0,0,0,4.09-4V7a3,3,0,0,1,1.4,2.55Z"/><path class="cls-1" d="M76.15,9.55V95.34a3,3,0,0,1-3,3H8.81A3,3,0,0,1,6,96.41l.33,0H70.66a4.09,4.09,0,0,0,4.09-4V7A3,3,0,0,1,76.15,9.55Z"/><path class="cls-2" d="M4.8,92.79v1h1v-1ZM71.3,5.56v1h1.06v-1Zm3.36.29A3.38,3.38,0,0,0,74,5.66a3.43,3.43,0,0,0-.56-.08,2,2,0,0,1,.16.53,2.42,2.42,0,0,1,0,.47,2.13,2.13,0,0,1,.51.14,2.83,2.83,0,0,1,.58.28,3,3,0,0,1,1.4,2.55V95.34a3,3,0,0,1-3,3H8.81A3,3,0,0,1,6,96.41a3.07,3.07,0,0,1-.14-.52,2.63,2.63,0,0,1-.06-.49,2.72,2.72,0,0,1-.49-.13A2.84,2.84,0,0,1,4.8,95v.23a1.67,1.67,0,0,0,0,.32,2.52,2.52,0,0,0,.08.55,4.07,4.07,0,0,0,3.91,3.22H73.14a4.09,4.09,0,0,0,4.09-4V9.66A4.11,4.11,0,0,0,74.66,5.85Z"/><path class="cls-1" d="M74.14,6.21A2.44,2.44,0,0,0,74,5.66a3.47,3.47,0,0,0-1.7-2.1,2.83,2.83,0,0,0-.59-.25,3.16,3.16,0,0,0-.55-.13,3,3,0,0,1,.1.52,2.55,2.55,0,0,1,0,.39V89.78a3,3,0,0,1-3,3H4a3.18,3.18,0,0,1-.62-.06,2.35,2.35,0,0,1-.51-.17,2.76,2.76,0,0,0,.06.57,3.24,3.24,0,0,0,.16.53,3.51,3.51,0,0,0,1.78,1.93,2.23,2.23,0,0,0,.51.19,1.86,1.86,0,0,0,.52.11,2.42,2.42,0,0,0,.47,0H70.66a3.52,3.52,0,0,0,3.51-3.52V6.66A3.29,3.29,0,0,0,74.14,6.21Zm-.47.45V92.44a3,3,0,0,1-3,3H6.3a2.94,2.94,0,0,1-.51,0,2.72,2.72,0,0,1-.49-.13A2.84,2.84,0,0,1,4.8,95a3,3,0,0,1-1.18-1.27,2.6,2.6,0,0,0,.4,0H68.27a4.09,4.09,0,0,0,4.09-4V4.17a2.9,2.9,0,0,1,1.1,1.41,2,2,0,0,1,.16.53,2.42,2.42,0,0,1,0,.47A.22.22,0,0,1,73.67,6.66ZM16.67,32H55.6a2.94,2.94,0,0,0,3-2.91v0a2.94,2.94,0,0,0-2.93-2.94h-39A2.92,2.92,0,0,0,13.75,29v0A2.94,2.94,0,0,0,16.67,32Zm0,8.93h35A2.92,2.92,0,0,0,54.58,38h0A2.94,2.94,0,0,0,51.7,35h-35A2.92,2.92,0,0,0,13.75,38v0a2.94,2.94,0,0,0,2.91,2.93Zm0-17.86h35a2.92,2.92,0,0,0,2.92-2.92v0a2.93,2.93,0,0,0-2.92-2.93h-35a2.94,2.94,0,0,0,0,5.87Zm0,26.78H45.8a2.94,2.94,0,0,0,2.93-2.94h0A2.91,2.91,0,0,0,45.84,44H16.67a2.91,2.91,0,0,0-2.92,2.91A3,3,0,0,0,14.6,49,2.92,2.92,0,0,0,16.66,49.83Zm0-35.72H45.8a2.93,2.93,0,0,0,0-5.85H16.67a2.92,2.92,0,0,0-2.92,2.92,3,3,0,0,0,.85,2.07A2.91,2.91,0,0,0,16.66,14.11Zm0,62.44H25A2.91,2.91,0,0,0,28,73.65v0A2.93,2.93,0,0,0,25,70.76H16.67a2.9,2.9,0,1,0,0,5.79Zm0-17.79H25a2.94,2.94,0,0,0,0-5.87H16.67a2.94,2.94,0,0,0,0,5.87Zm0,8.93H25a2.93,2.93,0,1,0,0-5.86H16.67a2.91,2.91,0,0,0-2.92,2.91v0a3,3,0,0,0,2.92,2.93Zm0,17.85H25a2.93,2.93,0,0,0,0-5.85H16.67a2.92,2.92,0,0,0-2.92,2.92,2.92,2.92,0,0,0,2.91,2.93Z"/><path class="cls-2" d="M74.74,6.44a3.81,3.81,0,0,0-.08-.59,4.08,4.08,0,0,0-2.47-2.92,3.4,3.4,0,0,0-.64-.2A5.58,5.58,0,0,0,71,2.64a3.21,3.21,0,0,1,.22.54,3,3,0,0,1,.1.52,2.35,2.35,0,0,1,.51.17,2.59,2.59,0,0,1,.57.3,2.9,2.9,0,0,1,1.1,1.41,2,2,0,0,1,.16.53,2.42,2.42,0,0,1,0,.47.22.22,0,0,1,0,.08V92.44a3,3,0,0,1-3,3H6.3a2.94,2.94,0,0,1-.51,0,2.72,2.72,0,0,1-.49-.13A2.84,2.84,0,0,1,4.8,95a3,3,0,0,1-1.18-1.27,2.85,2.85,0,0,1-.2-.51,2.26,2.26,0,0,1-.09-.53,2.35,2.35,0,0,1-.51-.17,2,2,0,0,1-.51-.26v0a3.56,3.56,0,0,0,0,.57,5.05,5.05,0,0,0,.12.56A4.1,4.1,0,0,0,4.9,96.14a3.09,3.09,0,0,0,.54.17,3.33,3.33,0,0,0,.55.1l.33,0H70.66a4.09,4.09,0,0,0,4.09-4V6.72A2.62,2.62,0,0,0,74.74,6.44Z"/><path class="cls-1" d="M73.67,6.66V92.44a3,3,0,0,1-3,3H6.3a2.94,2.94,0,0,1-.51,0,2.72,2.72,0,0,1-.49-.13A2.84,2.84,0,0,1,4.8,95a3,3,0,0,1-1.18-1.27,2.6,2.6,0,0,0,.4,0H68.27a4.09,4.09,0,0,0,4.09-4V4.17a2.9,2.9,0,0,1,1.1,1.41,2,2,0,0,1,.16.53,2.42,2.42,0,0,1,0,.47A.22.22,0,0,1,73.67,6.66Z"/><path class="cls-1" d="M28,82.61A2.93,2.93,0,0,1,25,85.54H16.66a2.92,2.92,0,0,1-2.91-2.93,2.92,2.92,0,0,1,2.92-2.92H25A2.92,2.92,0,0,1,28,82.61Z"/><path class="cls-1" d="M28,64.76A2.93,2.93,0,0,1,25,67.69H16.67a3,3,0,0,1-2.92-2.93v0a2.91,2.91,0,0,1,2.92-2.91H25A2.93,2.93,0,0,1,28,64.76Z"/><path class="cls-1" d="M28,55.83A2.93,2.93,0,0,1,25,58.76H16.66a2.94,2.94,0,0,1,0-5.87H25A2.94,2.94,0,0,1,28,55.83Z"/><path class="cls-1" d="M28,73.63v0A2.91,2.91,0,0,1,25,76.55H16.67a2.9,2.9,0,1,1,0-5.79H25A2.93,2.93,0,0,1,28,73.63Z"/><path class="cls-1" d="M14.6,13.25a3,3,0,0,1-.85-2.07,2.92,2.92,0,0,1,2.92-2.92H45.81a2.93,2.93,0,0,1,0,5.85H16.66A2.91,2.91,0,0,1,14.6,13.25Z"/><path class="cls-1" d="M48.76,46.89h0a2.94,2.94,0,0,1-2.93,2.94H16.66A2.92,2.92,0,0,1,14.6,49a3,3,0,0,1-.85-2.07A2.91,2.91,0,0,1,16.67,44H45.84A2.91,2.91,0,0,1,48.76,46.89Z"/><path class="cls-1" d="M14.6,22.18a2.93,2.93,0,0,1,2.07-5h35a2.93,2.93,0,0,1,2.92,2.93v0a2.92,2.92,0,0,1-2.92,2.92h-35A2.92,2.92,0,0,1,14.6,22.18Z"/><path class="cls-1" d="M54.61,38h0a2.92,2.92,0,0,1-2.92,2.92h-35A2.94,2.94,0,0,1,13.75,38v0A2.92,2.92,0,0,1,16.67,35h35A2.94,2.94,0,0,1,54.61,38Z"/><path class="cls-1" d="M58.56,29.05v0a2.94,2.94,0,0,1-3,2.91H16.67a2.94,2.94,0,0,1-2.92-2.93v0a2.92,2.92,0,0,1,2.92-2.92h39A2.94,2.94,0,0,1,58.56,29.05Z"/><path class="cls-1" d="M71.79,3.87a2.6,2.6,0,0,0-.06-.56,3,3,0,0,0-.18-.58A3.51,3.51,0,0,0,68.28.51H4A3.52,3.52,0,0,0,.43,4V89.78a3.55,3.55,0,0,0,3,3.48,3.08,3.08,0,0,0,.53,0H68.28a3.52,3.52,0,0,0,3.52-3.52V4A.76.76,0,0,0,71.79,3.87ZM71.3,89.78a3,3,0,0,1-3,3H4a3.18,3.18,0,0,1-.62-.06,2.35,2.35,0,0,1-.51-.17,2,2,0,0,1-.51-.26A3,3,0,0,1,.94,89.78V4A3,3,0,0,1,4,1h64.3A3,3,0,0,1,71,2.64a3.21,3.21,0,0,1,.22.54,3,3,0,0,1,.1.52,2.55,2.55,0,0,1,0,.39Z"/><path class="cls-2" d="M72.32,3.56a3.2,3.2,0,0,0-.13-.63A4.09,4.09,0,0,0,68.27,0H4A4.09,4.09,0,0,0,0,4.09V89.71a4.11,4.11,0,0,0,2.47,3.76,3.47,3.47,0,0,0,.57.19,3.71,3.71,0,0,0,.58.11,2.6,2.6,0,0,0,.4,0H68.27a4.09,4.09,0,0,0,4.09-4V4.09A3.08,3.08,0,0,0,72.32,3.56Zm-1,.53V89.78a3,3,0,0,1-3,3H4a3.18,3.18,0,0,1-.62-.06,2.35,2.35,0,0,1-.51-.17,2,2,0,0,1-.51-.26A3,3,0,0,1,.94,89.78V4A3,3,0,0,1,4,1h64.3A3,3,0,0,1,71,2.64a3.21,3.21,0,0,1,.22.54,3,3,0,0,1,.1.52A2.55,2.55,0,0,1,71.3,4.09Z"/><path class="cls-1" d="M71.28,3.7a3,3,0,0,0-.1-.52A3.21,3.21,0,0,0,71,2.64,3,3,0,0,0,68.32,1H4A3,3,0,0,0,.94,4V89.78A3,3,0,0,0,2.31,92.3a2,2,0,0,0,.51.26,2.35,2.35,0,0,0,.51.17,3.18,3.18,0,0,0,.62.06H68.27a3,3,0,0,0,3-3V4.09A2.55,2.55,0,0,0,71.28,3.7ZM25,85.54H16.66a2.92,2.92,0,0,1-2.91-2.93,2.92,2.92,0,0,1,2.92-2.92H25a2.93,2.93,0,0,1,0,5.85ZM28,73.65A2.91,2.91,0,0,1,25,76.55H16.67a2.9,2.9,0,1,1,0-5.79H25A2.93,2.93,0,0,1,28,73.63Zm-2.93-6H16.67a3,3,0,0,1-2.92-2.93v0a2.91,2.91,0,0,1,2.92-2.91H25a2.93,2.93,0,1,1,0,5.86Zm0-8.93H16.66a2.94,2.94,0,0,1,0-5.87H25a2.94,2.94,0,0,1,0,5.87ZM48.73,46.89a2.94,2.94,0,0,1-2.93,2.94H16.66A2.92,2.92,0,0,1,14.6,49a3,3,0,0,1-.85-2.07A2.91,2.91,0,0,1,16.67,44H45.84a2.91,2.91,0,0,1,2.92,2.91ZM54.58,38h0a2.92,2.92,0,0,1-2.92,2.92h-35A2.94,2.94,0,0,1,13.75,38v0A2.92,2.92,0,0,1,16.67,35h35A2.94,2.94,0,0,1,54.61,38Zm4-8.91a2.94,2.94,0,0,1-3,2.91H16.67a2.94,2.94,0,0,1-2.92-2.93v0a2.92,2.92,0,0,1,2.92-2.92h39a2.94,2.94,0,0,1,2.93,2.94ZM16.67,17.18h35a2.93,2.93,0,0,1,2.92,2.93v0a2.92,2.92,0,0,1-2.92,2.92h-35a2.92,2.92,0,0,1-2.06-.87,2.93,2.93,0,0,1,2.07-5Zm-2.92-6a2.92,2.92,0,0,1,2.92-2.92H45.81a2.93,2.93,0,0,1,0,5.85H16.66a2.91,2.91,0,0,1-2.06-.86A3,3,0,0,1,13.75,11.18Z"/><path class="cls-3" d="M25,79.69H16.67a2.92,2.92,0,0,0-2.92,2.92,2.92,2.92,0,0,0,2.91,2.93H25a2.93,2.93,0,0,0,0-5.85Zm0-8.93H16.67a2.9,2.9,0,1,0,0,5.79H25A2.91,2.91,0,0,0,28,73.65v0A2.93,2.93,0,0,0,25,70.76Zm0-8.93H16.67a2.91,2.91,0,0,0-2.92,2.91v0a3,3,0,0,0,2.92,2.93H25a2.93,2.93,0,1,0,0-5.86Zm0-8.94H16.67a2.94,2.94,0,0,0,0,5.87H25a2.94,2.94,0,0,0,0-5.87ZM45.84,44H16.67a2.91,2.91,0,0,0-2.92,2.91A3,3,0,0,0,14.6,49a2.92,2.92,0,0,0,2.06.87H45.8a2.94,2.94,0,0,0,2.93-2.94h0A2.91,2.91,0,0,0,45.84,44ZM51.7,35h-35A2.92,2.92,0,0,0,13.75,38v0a2.94,2.94,0,0,0,2.91,2.93h35A2.92,2.92,0,0,0,54.58,38h0A2.94,2.94,0,0,0,51.7,35Zm3.93-8.93h-39A2.92,2.92,0,0,0,13.75,29v0A2.94,2.94,0,0,0,16.67,32H55.6a2.94,2.94,0,0,0,3-2.91v0A2.94,2.94,0,0,0,55.63,26.11Zm-4-8.93h-35a2.94,2.94,0,0,0,0,5.87h35a2.92,2.92,0,0,0,2.92-2.92v0A2.93,2.93,0,0,0,51.66,17.18ZM45.81,8.26H16.67a2.92,2.92,0,0,0-2.92,2.92,3,3,0,0,0,.85,2.07,2.91,2.91,0,0,0,2.06.86H45.8a2.93,2.93,0,0,0,0-5.85Z"/></g></g></g></g></g></g></svg>