<svg xmlns="http://www.w3.org/2000/svg" viewBox="0 0 77.23 99.32"><defs><style>.cls-1{fill:none;}.cls-2{fill:#172532;}.cls-3{fill:#02b075;}</style></defs><g id="Layer_2" data-name="Layer 2"><g id="Layer_1-2" data-name="Layer 1"><g id="Layer_2-2" data-name="Layer 2"><g id="Layer_1-2-2" data-name="Layer 1-2"><g id="Layer_2-2-2" data-name="Layer 2-2"><g id="Layer_1-2-2-2" data-name="Layer 1-2-2"><g id="Layer_2-2-2-2" data-name="Layer 2-2-2"><g id="Layer_1-2-2-2-2" data-name="Layer 1-2-2-2"><path class="cls-1" d="M14.6,84.68a3,3,0,0,1-.85-2.07,2.92,2.92,0,0,1,2.92-2.92H25a2.93,2.93,0,0,1,0,5.85H16.66A3,3,0,0,1,14.6,84.68Z"/><path class="cls-1" d="M14.61,66.82a2.9,2.9,0,0,1-.86-2.06h0a2.91,2.91,0,0,1,2.91-2.91H25a2.93,2.93,0,0,1,0,5.86H16.67A2.91,2.91,0,0,1,14.61,66.82Z"/><path class="cls-1" d="M14.6,57.9a2.94,2.94,0,0,1,2.07-5H25a2.94,2.94,0,0,1,0,5.87H16.66A3,3,0,0,1,14.6,57.9Z"/><path class="cls-1" d="M14.61,75.7a2.89,2.89,0,0,1,2.06-4.94H25a2.93,2.93,0,0,1,3,2.86h0a2.9,2.9,0,0,1-2.9,2.92H16.67A3,3,0,0,1,14.61,75.7Z"/><path class="cls-1" d="M14.6,13.25a3,3,0,0,1-.85-2.07,2.92,2.92,0,0,1,2.92-2.92H45.81a2.93,2.93,0,0,1,0,5.85H16.66A2.92,2.92,0,0,1,14.6,13.25Z"/><path class="cls-1" d="M14.6,49a3,3,0,0,1-.85-2.07A2.91,2.91,0,0,1,16.64,44h29.2a2.91,2.91,0,0,1,2.92,2.9h0a2.94,2.94,0,0,1-2.93,2.94H16.66A3,3,0,0,1,14.6,49Z"/><path class="cls-1" d="M14.6,22.18a2.93,2.93,0,0,1,2.07-5h35a2.94,2.94,0,0,1,2.92,2.93h0A2.92,2.92,0,0,1,51.67,23h-35A2.91,2.91,0,0,1,14.6,22.18Z"/><path class="cls-1" d="M14.6,40a2.94,2.94,0,0,1-.85-2h0a2.93,2.93,0,0,1,2.84-3H51.67a2.94,2.94,0,0,1,2.94,2.94V38h0a2.92,2.92,0,0,1-2.92,2.92h-35A2.91,2.91,0,0,1,14.6,40Z"/><path class="cls-1" d="M14.61,31.12a2.92,2.92,0,0,1-.86-2.07h0a2.92,2.92,0,0,1,2.92-2.92h39a2.94,2.94,0,0,1,2.93,2.94h0a2.94,2.94,0,0,1-3,2.91h-39A2.92,2.92,0,0,1,14.61,31.12Z"/><path class="cls-1" d="M72.36,6.07V89.78a4.1,4.1,0,0,1-4.09,4H5.3v-1h63a3,3,0,0,0,3-3V6.07Z"/><path class="cls-1" d="M74.74,6.44a3.92,3.92,0,0,0-.6-.23,2.28,2.28,0,0,0-.52-.1,1.85,1.85,0,0,1,0,.47V92.44a3,3,0,0,1-3,3H6.3a4.34,4.34,0,0,1-.51,0,2.72,2.72,0,0,1-.49-.13v.07a3.77,3.77,0,0,0,.14,1,3.51,3.51,0,0,0,3.38,2.55H73.15a3.54,3.54,0,0,0,3.52-3.52V9.59A3.54,3.54,0,0,0,74.74,6.44Zm1.41,88.9a3,3,0,0,1-3,3H8.81A3,3,0,0,1,6,96.41H70.66a4.1,4.1,0,0,0,4.09-4V7a3,3,0,0,1,1.4,2.55Z"/><path class="cls-1" d="M76.15,9.55V95.34a3,3,0,0,1-3,3H8.81A3,3,0,0,1,6,96.41H70.66a4.1,4.1,0,0,0,4.09-4V7A3,3,0,0,1,76.15,9.55Z"/><path class="cls-2" d="M4.8,92.79v1h1v-1ZM71.3,5.56v1h1.06v-1Zm3.36.29A2.94,2.94,0,0,0,74,5.66a3.43,3.43,0,0,0-.56-.08,2,2,0,0,1,.16.53,1.85,1.85,0,0,1,0,.47,2.13,2.13,0,0,1,.51.14,2.58,2.58,0,0,1,.58.28,3,3,0,0,1,1.4,2.55V95.34a3,3,0,0,1-3,3H8.81A3,3,0,0,1,6,96.41a3.07,3.07,0,0,1-.14-.52,2.05,2.05,0,0,1-.06-.49,2.72,2.72,0,0,1-.49-.13A2.49,2.49,0,0,1,4.8,95v.23a1.71,1.71,0,0,0,0,.32,2.52,2.52,0,0,0,.08.55,4.08,4.08,0,0,0,3.91,3.22H73.14a4.1,4.1,0,0,0,4.09-4V9.66A4.11,4.11,0,0,0,74.66,5.85Z"/><path class="cls-1" d="M74.14,6.21A2.61,2.61,0,0,0,74,5.66a3.46,3.46,0,0,0-1.7-2.1,2.55,2.55,0,0,0-.59-.25,3.39,3.39,0,0,0-.55-.13,3,3,0,0,1,.1.52,2.54,2.54,0,0,1,0,.39V89.78a3,3,0,0,1-3,3H4a3.18,3.18,0,0,1-.62-.06,2.18,2.18,0,0,1-.51-.17,2.76,2.76,0,0,0,.06.57,3.24,3.24,0,0,0,.16.53,3.51,3.51,0,0,0,1.78,1.93,2.23,2.23,0,0,0,.51.19,1.86,1.86,0,0,0,.52.11,1.85,1.85,0,0,0,.47,0H70.66a3.52,3.52,0,0,0,3.51-3.52V6.66A3.4,3.4,0,0,0,74.14,6.21Zm-.47.45V92.44a3,3,0,0,1-3,3H6.3a4.34,4.34,0,0,1-.51,0,2.72,2.72,0,0,1-.49-.13A3.21,3.21,0,0,1,4.8,95a3,3,0,0,1-1.18-1.27H68.27a4.1,4.1,0,0,0,4.09-4V4.17a2.89,2.89,0,0,1,1.1,1.41,2,2,0,0,1,.16.53,1.85,1.85,0,0,1,0,.47A.22.22,0,0,1,73.67,6.66ZM16.67,32H55.6a3,3,0,0,0,3-2.88v0h0a2.94,2.94,0,0,0-2.93-2.94h-39A2.92,2.92,0,0,0,13.75,29h0a3,3,0,0,0,2.88,3Zm0,8.93h35A2.92,2.92,0,0,0,54.58,38h0a3,3,0,0,0-2.88-3h-35a2.92,2.92,0,0,0-2.95,2.89V38h0a2.94,2.94,0,0,0,2.91,2.93Zm0-17.86h35a2.92,2.92,0,0,0,2.92-2.92h0a2.94,2.94,0,0,0-2.92-2.93h-35a2.94,2.94,0,0,0,0,5.87Zm0,26.78H45.8a2.94,2.94,0,0,0,2.93-2.94h0A2.91,2.91,0,0,0,45.84,44H16.67a2.91,2.91,0,0,0-2.92,2.9h0A3,3,0,0,0,14.6,49a2.89,2.89,0,0,0,2.06.83Zm0-35.72H45.8a2.93,2.93,0,0,0,0-5.85H16.67a2.92,2.92,0,0,0-2.92,2.92,3,3,0,0,0,.85,2.07,2.94,2.94,0,0,0,2.06.84Zm0,62.44H25a2.91,2.91,0,0,0,3-2.82v-.1h0a2.93,2.93,0,0,0-3-2.89H16.67a2.9,2.9,0,1,0-.34,5.79,1.93,1.93,0,0,0,.34,0Zm0-17.79H25a2.94,2.94,0,0,0,0-5.87H16.67a2.94,2.94,0,0,0,0,5.87Zm0,8.93H25a2.93,2.93,0,1,0,0-5.86H16.67a2.91,2.91,0,0,0-2.92,2.9h0a3,3,0,0,0,2.92,2.93Zm0,17.85H25a2.93,2.93,0,0,0,0-5.85H16.67a2.93,2.93,0,0,0,0,5.85h0Z"/><path class="cls-2" d="M74.74,6.44a3.81,3.81,0,0,0-.08-.59,4.08,4.08,0,0,0-2.47-2.92,3.65,3.65,0,0,0-.64-.2A5.25,5.25,0,0,0,71,2.64a3.21,3.21,0,0,1,.22.54,3,3,0,0,1,.1.52,2.18,2.18,0,0,1,.51.17,3.1,3.1,0,0,1,.57.3,2.89,2.89,0,0,1,1.1,1.41,2,2,0,0,1,.16.53,1.85,1.85,0,0,1,0,.47V92.44a3,3,0,0,1-3,3H6.3a4.34,4.34,0,0,1-.51,0,2.72,2.72,0,0,1-.49-.13A3.21,3.21,0,0,1,4.8,95a3,3,0,0,1-1.18-1.27,2.85,2.85,0,0,1-.2-.51,2.35,2.35,0,0,1-.09-.53,2.18,2.18,0,0,1-.51-.17,2,2,0,0,1-.51-.26h0a2.71,2.71,0,0,0,0,.57,5.05,5.05,0,0,0,.12.56A4.1,4.1,0,0,0,4.9,96.14a3.38,3.38,0,0,0,.54.17,3.33,3.33,0,0,0,.55.1H70.66a4.1,4.1,0,0,0,4.09-4V6.72A2.62,2.62,0,0,0,74.74,6.44Z"/><path class="cls-1" d="M73.67,6.66V92.44a3,3,0,0,1-3,3H6.3a4.34,4.34,0,0,1-.51,0,2.72,2.72,0,0,1-.49-.13A3.21,3.21,0,0,1,4.8,95a3,3,0,0,1-1.18-1.27H68.27a4.1,4.1,0,0,0,4.09-4V4.17a2.89,2.89,0,0,1,1.1,1.41,2,2,0,0,1,.16.53,1.85,1.85,0,0,1,0,.47A.22.22,0,0,1,73.67,6.66Z"/><path class="cls-1" d="M28,82.61a2.93,2.93,0,0,1-2.93,2.93H16.66a2.92,2.92,0,0,1-2.91-2.93h0a2.92,2.92,0,0,1,2.92-2.92H25a2.93,2.93,0,0,1,3,2.84Z"/><path class="cls-1" d="M28,64.76a2.93,2.93,0,0,1-2.93,2.93h-8.4a3,3,0,0,1-2.92-2.93h0a2.91,2.91,0,0,1,2.91-2.91H25a2.93,2.93,0,0,1,3,2.86Z"/><path class="cls-1" d="M28,55.83a2.93,2.93,0,0,1-2.93,2.93H16.66a2.94,2.94,0,0,1,0-5.87H25a3,3,0,0,1,3,2.88Z"/><path class="cls-1" d="M28,73.63h0a2.9,2.9,0,0,1-2.9,2.92H16.67a2.9,2.9,0,1,1-.34-5.79,1.93,1.93,0,0,1,.34,0H25a2.93,2.93,0,0,1,3,2.86Z"/><path class="cls-1" d="M14.6,13.25a3,3,0,0,1-.85-2.07,2.92,2.92,0,0,1,2.92-2.92H45.81a2.93,2.93,0,0,1,0,5.85H16.66A2.92,2.92,0,0,1,14.6,13.25Z"/><path class="cls-1" d="M48.76,46.89h0a2.94,2.94,0,0,1-2.93,2.94H16.66A2.89,2.89,0,0,1,14.6,49a3,3,0,0,1-.85-2.07A2.91,2.91,0,0,1,16.64,44h29.2A2.91,2.91,0,0,1,48.76,46.89Z"/><path class="cls-1" d="M14.6,22.18a2.93,2.93,0,0,1,2.07-5h35a2.94,2.94,0,0,1,2.92,2.93h0A2.92,2.92,0,0,1,51.67,23h-35A2.91,2.91,0,0,1,14.6,22.18Z"/><path class="cls-1" d="M54.61,38h0a2.92,2.92,0,0,1-2.92,2.92h-35A2.93,2.93,0,0,1,13.75,38h0a2.93,2.93,0,0,1,2.84-3H51.67a2.94,2.94,0,0,1,2.94,2.94Z"/><path class="cls-1" d="M58.56,29.05h0a2.94,2.94,0,0,1-3,2.91H16.67A2.94,2.94,0,0,1,13.75,29h0a2.92,2.92,0,0,1,2.92-2.92h39A3,3,0,0,1,58.56,29.05Z"/><path class="cls-1" d="M71.79,3.87a2.6,2.6,0,0,0-.06-.56,3,3,0,0,0-.18-.58A3.52,3.52,0,0,0,68.28.51H4A3.53,3.53,0,0,0,.43,4v85.8a3.54,3.54,0,0,0,3,3.48,2.35,2.35,0,0,0,.53,0H68.28a3.53,3.53,0,0,0,3.52-3.52V4A.57.57,0,0,0,71.79,3.87ZM71.3,89.78a3,3,0,0,1-3,3H4a3.18,3.18,0,0,1-.62-.06,2.18,2.18,0,0,1-.51-.17,2,2,0,0,1-.51-.26A3,3,0,0,1,.94,89.78V4a3,3,0,0,1,3-3H68.3A3,3,0,0,1,71,2.64a3.21,3.21,0,0,1,.22.54,3,3,0,0,1,.1.52,2.54,2.54,0,0,1,0,.39Z"/><path class="cls-2" d="M72.32,3.56a3.53,3.53,0,0,0-.13-.63A4.08,4.08,0,0,0,68.27,0H4A4.1,4.1,0,0,0,0,4.09V89.71a4.1,4.1,0,0,0,2.47,3.76,3.47,3.47,0,0,0,.57.19,3.71,3.71,0,0,0,.58.11,2.67,2.67,0,0,0,.4,0H68.27a4.1,4.1,0,0,0,4.09-4V4.09A3.15,3.15,0,0,0,72.32,3.56Zm-1,.53V89.78a3,3,0,0,1-3,3H4a3.18,3.18,0,0,1-.62-.06,2.18,2.18,0,0,1-.51-.17,2,2,0,0,1-.51-.26A3,3,0,0,1,.94,89.78V4a3,3,0,0,1,3-3H68.3A3,3,0,0,1,71,2.64a3.21,3.21,0,0,1,.22.54,3,3,0,0,1,.1.52,2.55,2.55,0,0,1,0,.39Z"/><path class="cls-1" d="M71.28,3.7a3,3,0,0,0-.1-.52A2.63,2.63,0,0,0,71,2.64,3,3,0,0,0,68.32,1H4A3,3,0,0,0,.94,3.94V89.78A3,3,0,0,0,2.31,92.3a2,2,0,0,0,.51.26,2.18,2.18,0,0,0,.51.17,3.18,3.18,0,0,0,.62.06H68.27a3,3,0,0,0,3-3V4.09A2.54,2.54,0,0,0,71.28,3.7ZM25,85.54H16.66a2.92,2.92,0,0,1-2.91-2.93h0a2.92,2.92,0,0,1,2.92-2.92H25a2.93,2.93,0,0,1,0,5.85Zm3-11.89a2.9,2.9,0,0,1-2.92,2.9H16.67a2.9,2.9,0,1,1-.34-5.79,1.93,1.93,0,0,1,.34,0H25a2.93,2.93,0,0,1,3,2.86h0Zm-2.93-6h-8.4a3,3,0,0,1-2.92-2.93h0a2.91,2.91,0,0,1,2.91-2.91H25a2.93,2.93,0,0,1,0,5.86h0Zm0-8.93H16.66a2.94,2.94,0,0,1,0-5.87H25a2.94,2.94,0,0,1,0,5.87ZM48.73,46.89a2.94,2.94,0,0,1-2.93,2.94H16.66A2.89,2.89,0,0,1,14.6,49a3,3,0,0,1-.85-2.07A2.91,2.91,0,0,1,16.64,44h29.2a2.91,2.91,0,0,1,2.92,2.9h0ZM54.58,38h0a2.92,2.92,0,0,1-2.92,2.92h-35A3,3,0,0,1,13.75,38h0a2.93,2.93,0,0,1,2.84-3H51.67a2.94,2.94,0,0,1,2.94,2.94V38Zm4-8.91a2.94,2.94,0,0,1-3,2.91H16.67a2.94,2.94,0,0,1-2.92-2.93h0a2.92,2.92,0,0,1,2.92-2.92h39a2.94,2.94,0,0,1,2.93,2.94ZM16.67,17.18h35a2.94,2.94,0,0,1,2.92,2.93h0A2.92,2.92,0,0,1,51.67,23h-35a2.94,2.94,0,0,1,0-5.87Zm-2.92-6a2.92,2.92,0,0,1,2.92-2.92H45.81a2.93,2.93,0,0,1,0,5.85H16.66a2.92,2.92,0,0,1-2.06-.86A3,3,0,0,1,13.75,11.18Z"/><path class="cls-3" d="M25,79.69H16.67a2.93,2.93,0,0,0,0,5.85H25a2.93,2.93,0,0,0,0-5.85Zm0-8.93H16.67a2.9,2.9,0,1,0-.34,5.79,1.93,1.93,0,0,0,.34,0H25a2.91,2.91,0,0,0,3-2.82v-.08h0a2.93,2.93,0,0,0-3-2.89Zm0-8.93H16.67a2.91,2.91,0,0,0-2.92,2.9h0a3,3,0,0,0,2.92,2.93H25a2.93,2.93,0,0,0,0-5.86h0Zm0-8.94H16.67a2.94,2.94,0,0,0,0,5.87H25a2.94,2.94,0,0,0,0-5.87ZM45.84,44H16.67a2.91,2.91,0,0,0-2.92,2.9h0A3,3,0,0,0,14.6,49a3,3,0,0,0,2.06.87H45.8a2.94,2.94,0,0,0,2.93-2.94h0A2.91,2.91,0,0,0,45.84,44Zm5.86-9h-35a2.92,2.92,0,0,0-2.95,2.89V38h0a2.94,2.94,0,0,0,2.91,2.93h35A2.92,2.92,0,0,0,54.58,38h0a3,3,0,0,0-2.88-3Zm3.93-8.93h-39A2.92,2.92,0,0,0,13.75,29h0a3,3,0,0,0,2.88,3h39a3,3,0,0,0,3-2.88v0h0a3,3,0,0,0-2.9-3h-.07Zm-4-8.93h-35a2.94,2.94,0,0,0,0,5.87h35a2.92,2.92,0,0,0,2.92-2.92h0a2.93,2.93,0,0,0-2.89-2.91ZM45.81,8.26H16.67a2.92,2.92,0,0,0-2.92,2.92,3,3,0,0,0,.85,2.07,2.92,2.92,0,0,0,2.06.86H45.8a2.93,2.93,0,0,0,0-5.85Z"/></g></g></g></g></g></g></g></g></svg>