<?xml version="1.0" encoding="utf-8"?>
<!-- Generator: Adobe Illustrator 24.3.0, SVG Export Plug-In . SVG Version: 6.00 Build 0)  -->
<svg version="1.1" id="Layer_1" xmlns="http://www.w3.org/2000/svg" xmlns:xlink="http://www.w3.org/1999/xlink" x="0px" y="0px"
	 viewBox="0 0 261.7 327.1" style="enable-background:new 0 0 261.7 327.1;" xml:space="preserve">
<style type="text/css">
	.st0{fill:#FFFFFF;}
</style>
<g id="Layer_2_1_">
	<g id="Layer_1-2">
		<path class="st0" d="M245.3,0h-229C7.3,0,0,7.3,0,16.4v294.4c0,9,7.3,16.4,16.4,16.4h229c9,0,16.4-7.3,16.4-16.4V16.4
			C261.7,7.3,254.4,0,245.3,0C245.3,0,245.3,0,245.3,0z M250.8,310.7c0,3-2.4,5.5-5.4,5.5c0,0,0,0,0,0h-229c-3,0-5.4-2.4-5.4-5.5
			l0,0V16.4c0-3,2.4-5.4,5.4-5.4l0,0h229c3,0,5.4,2.4,5.4,5.4V310.7z"/>
		<path class="st0" d="M130.8,109c-10.1,0-20.1,1.6-29.7,4.7L98,98.1h0.1c6,0,10.9-4.9,10.9-10.9V32.7c0-6-4.9-10.9-10.9-10.9l0,0
			H43.6c-6,0-10.9,4.9-10.9,10.9l0,0v54.5c0,6,4.9,10.9,10.9,10.9h0h14.8l15.8,29C30,158.5,19.7,219.7,51.1,263.8
			s92.5,54.4,136.7,23.1s54.4-92.5,23.1-136.7C192.4,124.3,162.6,109,130.8,109z M55.9,65.8c-1.9,0.7-3.3,2.4-3.5,4.5L51,82.4
			c-0.1,1.1,0.1,2.2,0.6,3.2l0.9,1.6h-8.9V32.7h54.5v54.5h-2.3l-3.3-16.5c-0.2-1.1-0.8-2.1-1.6-2.9L82,59.5
			c-1.5-1.4-3.7-1.9-5.6-1.2L55.9,65.8z M62,82l0.8-7L77,69.7l5.2,4.9l14.3,70.7L62,82z M130.9,294.4c-48.2,0-87.2-39-87.3-87.2
			c0-27.9,13.3-54.1,35.8-70.5l24.9,45.8c1.4,2.6,4.8,3.6,7.4,2.2c2.1-1.1,3.2-3.5,2.7-5.9l-11-54.3c8.9-3,18.1-4.5,27.5-4.5
			c48.2,0,87.2,39.1,87.2,87.2S179,294.4,130.9,294.4L130.9,294.4z"/>
		<path class="st0" d="M130.8,272.6v10.9c42.1,0,76.3-34.2,76.3-76.3h-10.9C196.2,243.3,167,272.5,130.8,272.6z"/>
		<path class="st0" d="M152.6,207.2c0-12-9.8-21.8-21.8-21.8s-21.8,9.8-21.8,21.8c0,12,9.8,21.8,21.8,21.8
			C142.9,229,152.6,219.2,152.6,207.2C152.6,207.2,152.6,207.2,152.6,207.2z M119.9,207.2c0-6,4.9-10.9,10.9-10.9
			s10.9,4.9,10.9,10.9c0,6-4.9,10.9-10.9,10.9c0,0,0,0,0,0C124.8,218.1,119.9,213.2,119.9,207.2z"/>
	</g>
</g>
</svg>
