<?xml version="1.0" encoding="utf-8"?>
<!-- Generator: Adobe Illustrator 24.3.0, SVG Export Plug-In . SVG Version: 6.00 Build 0)  -->
<svg version="1.1" id="Layer_1" xmlns="http://www.w3.org/2000/svg" xmlns:xlink="http://www.w3.org/1999/xlink" x="0px" y="0px"
	 viewBox="0 0 218 177.1" style="enable-background:new 0 0 218 177.1;" xml:space="preserve">
<style type="text/css">
	.st0{fill:#FFFFFF;}
</style>
<g id="Layer_2_1_">
	<g id="Layer_1-2">
		<path class="st0" d="M54.5,122.6c4.8,0,9.3-2.6,11.6-6.8h29.3V74.9h42.9c2.3,4.2,6.8,6.8,11.6,6.8c7.5-0.2,13.5-6.5,13.3-14
			c-0.2-7.2-6-13.1-13.3-13.3c-4.8,0-9.3,2.6-11.6,6.8H81.8v40.9H66.1c-2.3-4.2-6.8-6.8-11.6-6.8c-7.5-0.2-13.8,5.7-14,13.3
			s5.7,13.8,13.3,14C54,122.6,54.3,122.6,54.5,122.6z"/>
		<path class="st0" d="M6.8,13.6v129.4h204.4V13.6c0-7.5-6.1-13.6-13.6-13.6H20.4C12.9,0,6.8,6.1,6.8,13.6z M197.6,129.4H20.4V13.6
			h177.1V129.4z"/>
		<path class="st0" d="M54.5,54.5c4.8,0,9.3-2.6,11.6-6.8h104.2v47.7h-22.5c-2.3-4.2-6.8-6.8-11.6-6.8c-7.5,0.2-13.5,6.5-13.3,14
			c0.2,7.2,6,13.1,13.3,13.3c4.8,0,9.3-2.6,11.6-6.8h36.1V34.1H66.1c-2.3-4.2-6.8-6.8-11.6-6.8c-7.5,0.2-13.5,6.5-13.3,14
			C41.4,48.5,47.3,54.3,54.5,54.5z"/>
		<path class="st0" d="M20.4,177.1h177.1c11.1,0.2,20.2-8.6,20.4-19.7c0-0.2,0-0.5,0-0.7H0c-0.2,11.1,8.6,20.2,19.7,20.4
			C20,177.1,20.2,177.1,20.4,177.1z"/>
	</g>
</g>
</svg>
