<?xml version="1.0" encoding="utf-8"?>
<!-- Generator: Adobe Illustrator 24.3.0, SVG Export Plug-In . SVG Version: 6.00 Build 0)  -->
<svg version="1.1" id="Layer_1" xmlns="http://www.w3.org/2000/svg" xmlns:xlink="http://www.w3.org/1999/xlink" x="0px" y="0px"
	 viewBox="0 0 120 105" style="enable-background:new 0 0 120 105;" xml:space="preserve">
<style type="text/css">
	.st0{fill-rule:evenodd;clip-rule:evenodd;fill:#FFFFFF;}
</style>
<g id="Layer_2_1_">
	<g id="Layer_1-2">
		<path class="st0" d="M60.2,46c0.1,0.1,0.3,0.2,0.3,0.3l0,0C70.2,70,75,84.6,75,90c0,8.3-6.7,15-15,15s-15-6.7-15-15
			c0-5.4,4.7-19.7,14.2-42.9l0.3-0.8C59.6,46,59.9,45.9,60.2,46z M60,0c33.1,0,60,26.9,60,60c0,15.4-5.9,30.1-16.4,41.3l0,0
			c-0.6,0.6-1.6,0.7-2.3,0.1l0,0l0,0l-8.8-8.7c-0.4-0.4-0.4-0.9-0.1-1.3l0.1-0.1c7.1-7.4,11.5-17.1,12.4-27.4h-7.3
			c-1.4,0-2.5-1.1-2.5-2.5v-2.5c0-1.4,1.1-2.5,2.5-2.5h7.3c-0.8-9.3-4.4-18.2-10.5-25.3L89,36.3c-1,1-2.5,1-3.5,0c0,0,0,0,0,0
			l-1.8-1.8c-1-1-1-2.5,0-3.5c0,0,0,0,0,0l5.4-5.4c-7.1-6.1-16-9.7-25.4-10.5v7.4c0,1.4-1.1,2.5-2.5,2.5h-2.5
			c-1.4,0-2.5-1.1-2.5-2.5v-7.4c-9.3,0.8-18.2,4.4-25.3,10.5l5.4,5.4c1,1,1,2.5,0,3.5c0,0,0,0,0,0l-1.8,1.8c-1,1-2.5,1-3.5,0
			c0,0,0,0,0,0l-5.4-5.4c-6,7.1-9.7,16-10.5,25.3h7.4c1.4,0,2.5,1.1,2.5,2.5v2.5c0,1.4-1.1,2.5-2.5,2.5h-7.4
			c0.8,10.1,5,19.6,11.9,26.9l0.4,0.5l0.1,0.1c0.3,0.4,0.3,1-0.1,1.3l-8.7,8.7l0,0l0,0c-0.6,0.6-1.5,0.6-2.2,0.1l-0.1-0.1
			c-22.8-24.1-21.8-62,2.3-84.8C29.7,6.1,44,0.3,59,0H60z M60,82.5c-4.1,0-7.5,3.4-7.5,7.5s3.4,7.5,7.5,7.5s7.5-3.4,7.5-7.5
			S64.1,82.5,60,82.5L60,82.5z"/>
	</g>
</g>
</svg>
