<svg xmlns="http://www.w3.org/2000/svg" viewBox="0 0 96 96.01"><defs><style>.cls-1{fill:#172532;}</style></defs><g id="Layer_2" data-name="Layer 2"><g id="Layer_1-2" data-name="Layer 1"><path class="cls-1" d="M54,6a6,6,0,1,1-6-6A6,6,0,0,1,54,6Z"/><path class="cls-1" d="M42,90a6,6,0,1,1,6,6A6,6,0,0,1,42,90Z"/><path class="cls-1" d="M6,42a6,6,0,1,1-6,6A6,6,0,0,1,6,42Z"/><path class="cls-1" d="M90,54a6,6,0,1,1,6-6A6,6,0,0,1,90,54Z"/><path class="cls-1" d="M48,69.51A21.51,21.51,0,1,1,69.51,48,21.53,21.53,0,0,1,48,69.51Z"/><path class="cls-1" d="M48,29A19,19,0,1,1,29,48,19,19,0,0,1,48,29m0-5A24,24,0,1,0,72,48,24,24,0,0,0,48,24Z"/><path class="cls-1" d="M22.24,13.76a6,6,0,1,1-8.48,0A6,6,0,0,1,22.24,13.76Z"/><circle class="cls-1" cx="18" cy="78.01" r="6"/><path class="cls-1" d="M73.79,82.25a6,6,0,1,1,8.48,0A6,6,0,0,1,73.79,82.25Z"/><path class="cls-1" d="M82.27,22.25a6,6,0,1,1,0-8.48A6,6,0,0,1,82.27,22.25Z"/></g></g></svg>