<?xml version="1.0" encoding="utf-8"?>
<!-- Generator: Adobe Illustrator 24.3.0, SVG Export Plug-In . SVG Version: 6.00 Build 0)  -->
<svg version="1.1" id="Layer_1" xmlns="http://www.w3.org/2000/svg" xmlns:xlink="http://www.w3.org/1999/xlink" x="0px" y="0px"
	 viewBox="0 0 236.1 236.2" style="enable-background:new 0 0 236.1 236.2;" xml:space="preserve">
<style type="text/css">
	.st0{fill:#FFFFFF;}
</style>
<g id="Layer_2_1_">
	<g id="Layer_1-2">
		<path class="st0" d="M172.3,0c-1.1,0.1-1.9,1-1.9,2.1v8.2c-4.4,1.1-8.6,2.8-12.5,5.2l-5.8-5.8c-0.8-0.8-2.2-0.8-3,0l-12.6,12.6
			c-0.8,0.8-0.8,2.2,0,3c0,0,0,0,0,0l0,0l5.8,5.8c-2.3,3.9-4.1,8.1-5.2,12.5h-8.2c-1.2,0-2.1,0.9-2.1,2.1v17.9
			c0,1.2,0.9,2.1,2.1,2.1c0,0,0,0,0,0h8.3c1.1,4.4,2.8,8.6,5.1,12.5l-5.8,5.8c-0.8,0.8-0.8,2.1,0,3c0,0,0,0,0,0l0,0l12.6,12.6
			c0.8,0.8,2.2,0.8,3,0c0,0,0,0,0,0l5.8-5.8c3.9,2.3,8.1,4.1,12.5,5.2v8.2c0,1.2,0.9,2.1,2.1,2.1c0,0,0,0,0,0h17.8
			c1.2,0,2.1-0.9,2.1-2.1c0,0,0,0,0,0l0,0V99c4.4-1.1,8.6-2.8,12.5-5.1l5.8,5.8c0.8,0.8,2.1,0.8,3,0c0,0,0,0,0,0l12.7-12.6
			c0.8-0.8,0.8-2.2,0-3c0,0,0,0,0,0l0,0l-5.8-5.8c2.3-3.9,4.1-8.1,5.2-12.5h8.1c1.2,0,2.1-0.9,2.1-2.1l0,0V45.8
			c0-1.2-0.9-2.1-2.1-2.1l0,0h-8.2c-1.1-4.4-2.8-8.6-5.2-12.5l5.8-5.8c0.8-0.8,0.8-2.2,0-3c0,0,0,0,0,0l0,0L213.8,9.7
			c-0.8-0.8-2.2-0.8-3,0c0,0,0,0,0,0l-5.8,5.8c-3.9-2.3-8.1-4.1-12.5-5.2V2.1c0-1.2-0.9-2.1-2.1-2.1H172.3z M181.5,21.5
			c18.3,0,33.2,14.9,33.2,33.2s-14.9,33.2-33.2,33.2c-18.3,0-33.2-14.9-33.2-33.2C148.3,36.4,163.2,21.5,181.5,21.5z M47.4,96.9
			c-3.8,0-6.9,3.2-6.9,7v50.2C17.8,154.6-0.2,173.3,0.3,196c0.5,22.2,18.6,40.1,40.8,40.2h154c22.7,0,41.1-18.4,41.1-41.1
			s-18.4-41.1-41.1-41.1l0,0h-83.6v-50.2c0-3.8-3.1-7-6.9-7L47.4,96.9L47.4,96.9z M54.3,110.8H69v8.8c0.1,3.8,3.4,6.8,7.2,6.7
			c3.6-0.1,6.5-3,6.7-6.7v-8.8h14.7V154H54.3V110.8z M41.1,167.9h154c15,0.3,26.9,12.7,26.7,27.7c-0.3,14.6-12.1,26.4-26.7,26.7
			h-154c-15-0.3-26.9-12.7-26.7-27.7C14.7,180,26.5,168.2,41.1,167.9z M44.4,175.9c-10.6,0-19.2,8.6-19.2,19.2
			c0,10.6,8.6,19.2,19.2,19.2c10.6,0,19.2-8.6,19.2-19.2C63.6,184.5,55,175.9,44.4,175.9z M93.5,175.9c-10.6,0-19.2,8.7-19.2,19.3
			c0,10.6,8.7,19.2,19.3,19.2c10.6,0,19.2-8.6,19.2-19.2C112.8,184.5,104.1,175.9,93.5,175.9z M142.6,175.9
			c-10.6,0-19.2,8.6-19.2,19.2c0,10.6,8.6,19.2,19.2,19.2c10.6,0,19.2-8.6,19.2-19.2C161.8,184.5,153.2,175.9,142.6,175.9z
			 M191.7,175.9c-10.6,0-19.2,8.6-19.2,19.2s8.6,19.2,19.2,19.2c10.6,0,19.2-8.6,19.2-19.2C210.9,184.5,202.3,175.9,191.7,175.9
			L191.7,175.9z M44.4,189.8c2.9,0,5.3,2.4,5.3,5.3c0,2.9-2.4,5.3-5.3,5.3s-5.3-2.4-5.3-5.3c0,0,0,0,0,0c-0.1-2.9,2.2-5.3,5.1-5.3
			C44.3,189.8,44.4,189.8,44.4,189.8z M93.5,189.8c2.9,0,5.3,2.4,5.3,5.3c0,2.9-2.4,5.3-5.3,5.3s-5.3-2.4-5.3-5.3c0,0,0,0,0,0
			c0-2.9,2.3-5.3,5.2-5.3C93.4,189.8,93.5,189.8,93.5,189.8z M142.6,189.8c2.9,0,5.3,2.4,5.3,5.3c0,2.9-2.4,5.3-5.3,5.3
			c-2.9,0-5.3-2.4-5.3-5.3c0,0,0,0,0,0c-0.1-2.9,2.2-5.3,5.1-5.3C142.5,189.8,142.6,189.8,142.6,189.8L142.6,189.8z M191.7,189.8
			c2.9,0,5.3,2.4,5.3,5.3c0,2.9-2.4,5.3-5.3,5.3c-2.9,0-5.3-2.4-5.3-5.3c0,0,0,0,0,0c0-2.9,2.3-5.3,5.2-5.3
			C191.6,189.8,191.7,189.8,191.7,189.8L191.7,189.8z"/>
	</g>
</g>
</svg>
