<?xml version="1.0" encoding="utf-8"?>
<!-- Generator: Adobe Illustrator 24.3.0, SVG Export Plug-In . SVG Version: 6.00 Build 0)  -->
<svg version="1.1" id="Layer_1" xmlns="http://www.w3.org/2000/svg" xmlns:xlink="http://www.w3.org/1999/xlink" x="0px" y="0px"
	 viewBox="0 0 134.2 134.2" style="enable-background:new 0 0 134.2 134.2;" xml:space="preserve">
<style type="text/css">
	.st0{fill:#FFFFFF;}
</style>
<g id="Layer_2_1_">
	<g id="Layer_1-2">
		<path class="st0" d="M128.4,69.3c0-1.7,2-3.2,4.6-3.5l0,0c0.4,0,0.8-0.1,1.1-0.1c0-1.1-0.1-2.3-0.1-3.4c-0.2,0-0.4,0.1-0.6,0.1
			h-0.1c-2.8,0.2-5.2-0.9-5.5-2.7s1.5-3.5,4.2-4.2l0,0c0.3-0.1,0.6-0.2,1-0.2h0.2c-0.2-1.1-0.4-2.2-0.7-3.3h-0.1
			c-0.3,0.1-0.7,0.2-1,0.3l0,0c-2.6,0.5-5.1-0.2-5.6-1.9s1-3.8,3.6-4.9l0.8-0.3l0.3-0.1c-0.4-1.1-0.8-2.2-1.2-3.2l-0.2,0.1
			c-0.3,0.1-0.5,0.2-0.8,0.3c-2.6,1-5.2,0.7-6-0.9s0.5-4,2.9-5.5l0,0c0.2-0.1,0.4-0.2,0.6-0.3l0.4-0.2c-0.6-1-1.1-2-1.7-3l-0.3,0.3
			c-0.2,0.1-0.4,0.3-0.6,0.4l0,0c-2.4,1.5-5.1,1.6-6.2,0.1s-0.1-4.1,2.1-6l0,0l0.4-0.3c0.2-0.1,0.3-0.2,0.5-0.3
			c-0.7-0.9-1.4-1.9-2.2-2.7l-0.4,0.4c-0.1,0.1-0.3,0.3-0.4,0.4l0,0c-2.2,1.9-4.9,2.4-6.2,1.1s-0.8-4.1,1.3-6.3l0,0
			c0.1-0.1,0.2-0.2,0.3-0.3c0.2-0.2,0.4-0.3,0.5-0.5c-0.9-0.8-1.7-1.6-2.6-2.4l-0.4,0.6L110,17l0,0c-1.9,2.3-4.5,3.3-6,2.2
			s-1.4-4,0.3-6.5l0,0l0.2-0.3c0.2-0.2,0.4-0.5,0.5-0.7c-1-0.7-2-1.3-3-2c-0.1,0.2-0.2,0.5-0.3,0.7l-0.2,0.3l0,0
			c-1.5,2.6-3.9,4-5.6,3.2s-2-3.8-0.7-6.6l0,0l0.1-0.2c0.1-0.3,0.3-0.6,0.5-0.8c-1.1-0.5-2.2-1-3.3-1.5c-0.1,0.3-0.1,0.6-0.2,0.8
			c-1,3-3.3,5-5.2,4.4s-2.6-3.4-1.7-6.4l0,0c0-0.1,0-0.1,0-0.2c0.1-0.3,0.2-0.6,0.4-0.9c-1.2-0.3-2.3-0.6-3.5-0.9
			c0,0.3,0,0.6-0.1,0.9c-0.5,3.1-2.5,5.4-4.4,5.1S74.5,4.6,75,1.5c0.1-0.3,0.1-0.7,0.2-1c-1.2-0.2-2.4-0.3-3.6-0.4
			c0,0.3,0,0.6,0,0.9c0,3.2-1.6,5.8-3.6,5.8S64.5,4.2,64.5,1c0-0.3,0-0.7,0.1-1c-1.2,0-2.4,0.1-3.6,0.2c0.1,0.3,0.1,0.6,0.2,0.9
			c0.5,3.2-0.7,6-2.6,6.3s-3.9-2-4.4-5.1c-0.1-0.3-0.1-0.7-0.1-1c-1.2,0.2-2.4,0.5-3.6,0.8c0.1,0.3,0.2,0.6,0.3,0.9
			c1,3,0.3,6-1.6,6.6s-4.3-1.4-5.2-4.4c-0.1-0.3-0.2-0.7-0.3-1c-1.1,0.5-2.3,0.9-3.4,1.4c0.1,0.2,0.3,0.5,0.4,0.7
			c1.5,2.8,1.2,5.9-0.6,6.8s-4.2-0.6-5.7-3.3l0,0l-0.1-0.3c-0.1-0.3-0.3-0.6-0.4-0.8c-1,0.6-2.1,1.2-3.1,1.9
			c0.2,0.2,0.3,0.4,0.5,0.6l0.3,0.4l0,0c1.6,2.5,1.8,5.3,0.3,6.4s-4.2,0.1-6-2.3l0,0l-0.2-0.3c-0.2-0.2-0.3-0.4-0.4-0.7
			c-0.9,0.8-1.8,1.5-2.7,2.3c0.2,0.1,0.3,0.3,0.5,0.4l0.4,0.4l0,0c2,2.2,2.5,4.9,1.2,6.2s-4.4,0.7-6.6-1.5c-0.2-0.2-0.3-0.3-0.5-0.5
			c-0.8,0.9-1.6,1.8-2.3,2.7l0.4,0.3c0.2,0.1,0.4,0.3,0.5,0.4l0,0c2.2,1.9,3.1,4.4,2,5.9s-3.8,1.4-6.2-0.1l0,0l-0.5-0.4
			c-0.2-0.1-0.3-0.2-0.4-0.3c-0.6,1-1.3,2-1.8,3l0.4,0.2l0.7,0.4c2.4,1.5,3.6,3.8,2.8,5.4s-3.4,2-6,0.9l0,0l-0.7-0.3
			c-0.1-0.1-0.3-0.1-0.4-0.2c-0.5,1-0.9,2.1-1.3,3.2L4.6,43c0.3,0.1,0.6,0.2,0.9,0.3l0,0c2.5,1.1,4,3.1,3.5,4.8S6,50.6,3.3,50
			C3,50,2.7,49.9,2.4,49.8l-0.2-0.1c-0.3,1.1-0.6,2.2-0.8,3.3h0.1c0.4,0.1,0.7,0.1,1.1,0.2c2.6,0.7,4.3,2.5,4,4.2s-2.5,2.8-5.1,2.8
			l0,0c-0.4,0-0.8-0.1-1.1-0.1H0.2c-0.1,1.1-0.2,2.2-0.2,3.4h0.6h0.1l0.5,0.1c2.6,0.4,4.5,1.8,4.5,3.5s-1.9,3.1-4.5,3.5
			c-0.4,0.1-0.8,0.1-1.2,0.1c0.1,1.2,0.2,2.3,0.3,3.4h0.6h0.6C4,74,6,75.1,6.3,76.7S4.9,80,2.5,80.8l0,0L2,81l0,0l-0.6,0.1
			c0.2,1.1,0.5,2.2,0.8,3.3l0.6-0.1l0,0l0.6-0.1l0,0c2.4-0.3,4.5,0.4,5,2s-0.7,3.4-2.9,4.6c-0.4,0.2-0.7,0.4-1.1,0.5
			c0.4,1,0.8,2.1,1.3,3.1c0.2-0.1,0.4-0.2,0.6-0.2h0.1l0.5-0.2c2.3-0.6,4.4-0.2,5.1,1.2s-0.2,3.4-2,4.8l0,0
			c-0.1,0.1-0.3,0.2-0.5,0.3l0,0c-0.2,0.1-0.3,0.2-0.5,0.3c0.6,1,1.1,1.9,1.7,2.8c0.2-0.2,0.5-0.3,0.8-0.4l0.3-0.1
			c2.1-0.9,4.2-0.8,5.1,0.4c0.9,1.3,0.4,3.3-1.1,5l-0.4,0.4h-0.1c-0.1,0.1-0.3,0.3-0.4,0.4c0.7,0.9,1.4,1.7,2.2,2.6
			c0.1-0.1,0.3-0.3,0.5-0.4l0,0l0.5-0.3c1.9-1.2,3.9-1.3,5-0.3s0.9,3.1-0.3,5c-0.1,0.2-0.2,0.3-0.3,0.5l0,0
			c-0.1,0.2-0.2,0.3-0.4,0.5c0.8,0.8,1.7,1.5,2.5,2.2c0.1-0.2,0.3-0.3,0.4-0.4l0,0c0.1-0.1,0.3-0.3,0.4-0.4l0,0
			c1.7-1.4,3.6-1.8,4.8-1s1.4,2.9,0.5,5c0,0.1-0.1,0.2-0.1,0.2c-0.1,0.3-0.2,0.5-0.4,0.8c0.9,0.6,1.9,1.2,2.8,1.8
			c0.1-0.2,0.2-0.3,0.3-0.5l0,0l0.4-0.4c1.4-1.6,3.2-2.3,4.5-1.6s1.8,2.6,1.3,4.7l0,0c0,0.2-0.1,0.4-0.1,0.6l0,0
			c0,0.2-0.1,0.4-0.2,0.6c1,0.5,2,0.9,3.1,1.3l0.3-0.5v-0.1l0.3-0.4c1.2-1.8,2.8-2.7,4.2-2.3s2.2,2.2,2,4.4l0,0c0,0.2,0,0.4,0,0.6
			l0,0c0,0.2-0.1,0.4-0.1,0.6c1.1,0.3,2.2,0.6,3.3,0.8c0.1-0.2,0.1-0.4,0.2-0.6l0,0c0.1-0.2,0.1-0.4,0.2-0.5l0,0
			c0.9-1.9,2.3-3.1,3.8-2.8s2.5,1.9,2.7,3.9l0,0c0,0.2,0,0.4,0,0.6l0,0c0,0.2,0,0.4,0,0.6c1.1,0.1,2.2,0.2,3.3,0.3
			c0-0.2,0.1-0.4,0.1-0.6l0,0c0-0.2,0.1-0.4,0.1-0.6l0,0c0.6-2,1.8-3.4,3.3-3.4s2.8,1.5,3.3,3.5l0,0c0.1,0.2,0.1,0.4,0.1,0.5l0,0
			c0,0.2,0.1,0.4,0.1,0.6c1.1,0,2.2-0.1,3.4-0.2c0-0.2,0-0.4,0-0.6l0,0c0-0.2,0-0.4,0-0.6l0,0c0.2-2,1.3-3.6,2.7-3.8s2.9,1,3.8,3
			l0,0c0.1,0.2,0.1,0.3,0.2,0.5l0,0l0.2,0.6c1.1-0.2,2.2-0.4,3.3-0.7c0-0.2-0.1-0.4-0.1-0.6v-0.1c0-0.2,0-0.4,0-0.5l0,0
			c-0.1-2.1,0.7-3.8,2-4.3s3.1,0.5,4.2,2.4l0,0c0.2,0.3,0.4,0.7,0.6,1c1-0.4,2.1-0.8,3.1-1.2c-0.1-0.2-0.1-0.4-0.2-0.6l0,0
			c0-0.2-0.1-0.4-0.1-0.5c-0.4-2.1,0-3.9,1.3-4.6s3.2,0.1,4.6,1.7c0.1,0.1,0.2,0.3,0.3,0.4l0,0l0.3,0.5c1-0.5,1.9-1.1,2.9-1.7
			c-0.1-0.3-0.3-0.5-0.4-0.8c0-0.1-0.1-0.2-0.1-0.2c-0.8-2-0.7-4,0.6-4.9s3.2-0.4,4.9,1l0,0l0.4,0.4l0,0c0.1,0.1,0.3,0.3,0.4,0.4
			c0.9-0.7,1.8-1.4,2.6-2.1c-0.1-0.2-0.2-0.3-0.3-0.5l0,0l-0.3-0.4l0,0c-1.1-1.9-1.3-3.9-0.2-4.9s3.2-0.9,5.1,0.3l0,0
			c0.3,0.2,0.6,0.4,0.9,0.7c0.8-0.8,1.5-1.6,2.2-2.5l-0.4-0.4l0,0c-0.1-0.1-0.3-0.3-0.4-0.4l0,0c-1.5-1.7-2-3.7-1.1-4.9
			s3.1-1.4,5.3-0.4l0.2,0.1c0.3,0.1,0.6,0.3,0.8,0.4c0.6-0.9,1.3-1.8,1.8-2.8c-0.3-0.2-0.6-0.4-0.9-0.7c-1.8-1.5-2.7-3.4-2-4.8
			s2.9-1.9,5.3-1.2L127,96l0,0l0.5,0.2c0.5-1,0.9-2,1.4-3c-0.3-0.1-0.7-0.3-1-0.5c-2.1-1.2-3.3-3-2.8-4.5s2.7-2.3,5.2-2l0.4,0.1h0.1
			l0.6,0.1c0.3-1.1,0.6-2.2,0.9-3.2c-0.4-0.1-0.7-0.2-1.1-0.3c-2.4-0.8-3.9-2.4-3.7-4.1s2.4-2.8,5-2.8h0.4c0.3,0,0.5,0,0.8,0.1
			c0.1-1.1,0.3-2.2,0.4-3.3c-0.4,0-0.8,0-1.1-0.1C130.3,72.3,128.4,70.9,128.4,69.3z M59.4,21c0-4.2,3.4-7.7,7.7-7.7
			s7.7,3.4,7.7,7.7l0,0v19.8c0,4.2-3.4,7.6-7.7,7.6c-4.2,0-7.6-3.4-7.6-7.6L59.4,21z M67.1,53.8c7.3,0,13.3,6,13.3,13.3
			s-6,13.3-13.3,13.3s-13.3-6-13.3-13.3l0,0C53.8,59.8,59.7,53.8,67.1,53.8z M16.7,67.8c-6-3.4-3.1-16.4,3.5-27.8
			s16.3-20.4,22.3-16.9s5.6,17.9-0.9,29.3S22.7,71.3,16.7,67.8L16.7,67.8z M31,96.8c-3.7,2-8.4,0.6-10.4-3.1
			c-1.9-3.6-0.7-8,2.7-10.2l17.2-9.9c3.6-2.2,8.3-1.1,10.5,2.4c2.2,3.6,1.1,8.3-2.4,10.5c-0.1,0.1-0.3,0.2-0.4,0.3L31,96.8z
			 M67.1,121.2c-13.1,0-25.8-4-25.8-10.9s12.6-13.8,25.8-13.8s25.8,6.9,25.8,13.8S80.2,121.2,67.1,121.2L67.1,121.2z M113.6,94
			c-2.1,3.7-6.8,4.9-10.4,2.8L86,86.8c-3.6-2.1-4.9-6.8-2.8-10.5c2.1-3.6,6.8-4.9,10.4-2.8l17.2,9.9C114.5,85.6,115.8,90.3,113.6,94
			C113.6,94,113.6,94,113.6,94z M117.5,67.8c-6,3.4-18.3-4.1-24.9-15.4s-6.9-25.8-0.9-29.3S107.4,28.6,114,40S123.4,64.4,117.5,67.8
			L117.5,67.8z"/>
	</g>
</g>
</svg>
