<?xml version="1.0" encoding="utf-8"?>
<!-- Generator: Adobe Illustrator 24.3.0, SVG Export Plug-In . SVG Version: 6.00 Build 0)  -->
<svg version="1.1" id="Layer_1" xmlns="http://www.w3.org/2000/svg" xmlns:xlink="http://www.w3.org/1999/xlink" x="0px" y="0px"
	 viewBox="0 0 218.4 217" style="enable-background:new 0 0 218.4 217;" xml:space="preserve">
<style type="text/css">
	.st0{fill:#FFFFFF;}
</style>
<g id="Layer_2_1_">
	<g id="Layer_1-2">
		<path class="st0" d="M27.2,19.1c0.3,0.1,0.7,0.2,0.9,0.5C27.9,19.3,27.7,19.3,27.2,19.1H27c-0.2,0-0.5-0.2-0.7-0.2h-1.1
			c-0.4,0.1-0.8,0.1-1.1,0.2c-0.7,0.3-1.4,0.7-2,1.1c-0.5,0.2-0.9,0.7-1.4,0.9c-0.2,0.2-0.2,0.2-0.5,0.2c-0.4,0.4-0.9,0.8-1.4,1.1
			l-0.2,0.2c-0.4,0.4-0.7,0.9-0.9,1.4l-0.5,0.5c-0.2,0.4-0.4,0.8-0.7,1.1c-0.2,0.2-0.2,0.5-0.5,0.7c-0.2,0.5-0.2,0.7-0.5,1.1
			c-0.2,0.5-0.3,1-0.4,1.6C15.1,29.5,15,30,15,30.4c0,0.2-0.2,0.7-0.2,0.9c-0.2,0.7-0.3,1.5-0.2,2.3c-0.1,3,0.8,5.9,2.4,8.4
			c1.3,2.1,4.1,2.7,6.2,1.3c0.5-0.3,1-0.8,1.3-1.3l0,0c0.9-1.5,0.9-3.3,0-4.8c-0.7-1.1-1.1-2.3-1.1-3.6c0-2.7,1.6-5.1,4.1-6.1
			c1.6-0.8,2.6-2.3,2.6-4.1C30.2,21.5,29.1,19.7,27.2,19.1z"/>
		<path class="st0" d="M49.7,109.2c-6.2,2.1-10.8,7.2-12.3,13.6c0.2-0.7,0.2-1.1,0.5-1.8c-0.2,0.6-0.3,1.2-0.5,1.8
			c0,0.2-0.2,0.7-0.2,0.9l0,0c-0.2,0.9-0.3,1.8-0.2,2.7c0-0.8,0-1.7,0.2-2.5c-0.2,0.9-0.3,1.8-0.2,2.7v0.2c0,4.7,1.8,9.3,5,12.7
			c1.8,1.7,4.6,1.7,6.4-0.1c0.2-0.2,0.4-0.5,0.6-0.8v-0.2c0.9-1.6,0.7-3.6-0.5-5c-1.4-2-2.2-4.4-2.3-6.8c0-3.9,2.4-7.5,6.1-8.8
			c1.8-0.6,3.1-2.2,3.2-4.1v-0.2c0-2.5-2-4.5-4.4-4.5C50.7,109,50.2,109,49.7,109.2z"/>
		<path class="st0" d="M150.5,172.3c0.3,0.1,0.7,0.2,0.9,0.4C151.2,172.5,150.9,172.3,150.5,172.3h-0.2c-0.2,0-0.5-0.2-0.7-0.2h-1.1
			c-0.4,0.1-0.8,0.1-1.1,0.2c-0.7,0.3-1.4,0.7-2.1,1.1c-0.4,0.2-0.9,0.7-1.4,0.9c-0.2,0.2-0.2,0.2-0.4,0.2c-0.4,0.4-0.9,0.8-1.4,1.1
			l-0.2,0.2c-0.4,0.4-0.7,0.9-0.9,1.4l-0.4,0.4c-0.2,0.4-0.4,0.8-0.7,1.1c-0.2,0.2-0.2,0.4-0.4,0.7c-0.2,0.4-0.2,0.7-0.4,1.1
			c-0.2,0.2-0.2,0.7-0.5,0.9c-0.2,0.4-0.3,0.9-0.2,1.4c0,0.2-0.2,0.7-0.2,0.9c-0.2,0.7-0.3,1.5-0.2,2.3c0,3,0.8,5.9,2.5,8.4
			c1.3,2.1,4.1,2.7,6.1,1.3c0.5-0.3,1-0.8,1.3-1.3l0,0c0.9-1.5,0.9-3.3,0-4.8c-0.7-1.1-1.1-2.3-1.1-3.6c0-2.7,1.6-5.1,4.1-6.1
			c1.5-0.8,2.5-2.4,2.5-4.1C153.3,174.2,152.2,172.7,150.5,172.3z"/>
		<path class="st0" d="M137.1,123.5c1.4,2,4.2,2.5,6.3,1.1c0.6-0.4,1.1-1,1.5-1.7l0,0c0.7-1.4,0.6-3.2-0.2-4.5c-0.6-0.9-1-1.9-0.9-3
			c-0.1-1.7,0.9-3.4,2.5-4.1c2.1-1.4,2.6-4.2,1.2-6.2c-1.4-2.1-4.2-2.6-6.2-1.2l0,0c-4,2.6-6.4,7-6.4,11.8
			C134.6,118.3,135.4,121.2,137.1,123.5z"/>
		<path class="st0" d="M105.8,14.5c-4,2.6-6.4,7-6.3,11.8c0,2.9,0.9,5.8,2.5,8.2c1.4,2,4.2,2.5,6.3,1.1c0.6-0.4,1.1-1,1.5-1.7l0,0
			c0.7-1.4,0.6-3.2-0.2-4.5c-0.7-0.9-1-1.9-0.9-3c-0.1-1.7,0.9-3.4,2.5-4.1c1.3-0.9,2-2.3,2-3.9c-0.2-2.6-2.5-4.6-5.1-4.5
			C107.1,13.9,106.4,14.2,105.8,14.5z"/>
		<path class="st0" d="M191.8,14.3c-11,0-20.8,6.9-24.5,17.3l-27.7-5v-0.2c-0.1-14.5-11.9-26.2-26.3-26.1S87.1,12.1,87.2,26.6
			C87.2,41,99,52.7,113.5,52.7c1.7,0,3.5-0.2,5.2-0.5l16.1,40.9c-7.4,4.5-12,12.3-12.5,20.9l-31.8,3.9c-4-16.2-18.5-27.5-35.2-27.5
			c-1.8,0-3.6,0.2-5.5,0.4l-7.5-29.7c15.1-6.9,21.7-24.7,14.8-39.8S32.5-0.4,17.4,6.5S-4.2,31.2,2.7,46.3
			C7.6,57,18.4,63.9,30.2,63.8c1.2,0,2.4,0,3.6-0.2l7.5,30c-18.4,7.9-27,29.3-19.1,47.7s29.3,27,47.7,19.1
			c13.3-5.7,21.9-18.7,22-33.2l31.8-3.9c3,10.1,11.8,17.4,22.3,18.4l1.1,15.9c-16.2,3.6-26.4,19.7-22.8,35.9
			c3.1,13.8,15.3,23.5,29.4,23.5c16.8,0,29.7-13.9,29.7-30.4c-0.1-15.7-12.1-28.6-27.7-30l-1.1-15.9c14-3.6,22.5-17.9,18.9-32
			c-3-11.5-13.3-19.6-25.2-19.7c-1.7,0-3.5,0.2-5.2,0.4l-16.1-40.9c5.1-3.1,8.9-7.8,10.9-13.4l27.9,5.2v0.2
			c0,14.5,11.8,26.3,26.3,26.3s26.3-11.8,26.3-26.3c0-14.5-11.8-26.3-26.3-26.3C192,14.3,191.9,14.3,191.8,14.3z M9.1,33.6
			c0-11.6,9.4-21.1,21-21.1c0,0,0.1,0,0.1,0c11.5-0.1,20.8,9.1,20.9,20.6c0,0.2,0,0.3,0,0.5c0.1,11.5-9.1,21-20.6,21.1
			c-0.1,0-0.2,0-0.2,0C18.6,54.6,9.1,45.2,9.1,33.6z M55.6,153.7c-15,0-27.2-12.2-27.2-27.2s12.2-27.2,27.2-27.2
			c15,0,27.2,12.2,27.2,27.2C82.8,141.5,70.6,153.6,55.6,153.7z M174.3,186.6c0,11.7-9.5,21.1-21.1,21.1s-21.1-9.5-21.1-21.1
			s9.5-21.1,21.1-21.1C164.9,165.5,174.3,174.9,174.3,186.6C174.3,186.6,174.3,186.6,174.3,186.6z M165.7,115.3
			c0,9.5-7.7,17.3-17.3,17.3s-17.3-7.7-17.3-17.3s7.7-17.3,17.3-17.3l0,0C157.9,98.2,165.6,105.9,165.7,115.3L165.7,115.3z
			 M113.5,43.6c-9.5,0-17.3-7.7-17.3-17.3S104,9.1,113.5,9.1s17.3,7.7,17.3,17.3C130.8,35.9,123,43.6,113.5,43.6
			C113.5,43.6,113.5,43.6,113.5,43.6z M191.8,57.7c-9.5,0-17.3-7.7-17.3-17.3c0-9.5,7.7-17.3,17.3-17.3c9.5,0,17.3,7.7,17.3,17.3
			c0,0,0,0,0,0C209.1,49.9,201.4,57.7,191.8,57.7C191.8,57.7,191.8,57.7,191.8,57.7z"/>
		<path class="st0" d="M184.3,28.8c-4,2.6-6.4,7-6.3,11.8c0,2.9,0.9,5.8,2.5,8.2c1.4,2,4.2,2.5,6.3,1.1c0.6-0.4,1.1-1,1.5-1.7l0,0
			c0.7-1.4,0.6-3.2-0.2-4.5c-0.6-0.8-1-1.9-0.9-3c-0.1-1.7,0.9-3.4,2.5-4.1c1.3-0.9,2-2.3,2-3.9C191.1,28.8,187.3,26.8,184.3,28.8z"
			/>
	</g>
</g>
</svg>
