<?xml version="1.0" encoding="utf-8"?>
<!-- Generator: Adobe Illustrator 24.3.0, SVG Export Plug-In . SVG Version: 6.00 Build 0)  -->
<svg version="1.1" id="Layer_1" xmlns="http://www.w3.org/2000/svg" xmlns:xlink="http://www.w3.org/1999/xlink" x="0px" y="0px"
	 viewBox="0 0 230.7 230.7" style="enable-background:new 0 0 230.7 230.7;" xml:space="preserve">
<style type="text/css">
	.st0{fill:#FFFFFF;}
</style>
<g id="Layer_2_1_">
	<g id="Layer_1-2">
		<path class="st0" d="M195.8,155.8c0,0-0.1-0.1-0.1-0.1c-0.2-0.4-0.4-0.8-0.7-1.1c-0.1-0.1-0.1-0.1-0.2-0.1
			c-0.1-0.1-0.3-0.3-0.5-0.4l-76.9-49.9c0,0-0.1,0-0.1,0l-0.2-0.1c-0.3-0.2-0.7-0.3-1.1-0.4c-0.1,0-0.2,0-0.3,0c-0.3,0-0.7,0-1,0
			l-0.4,0.1c-0.4,0.1-0.8,0.3-1.2,0.5l0,0l0,0l-6.3,4.2c-1.8,1.2-2.3,3.5-1.1,5.3s3.5,2.3,5.3,1.1l0.4-0.3v68.3L46.7,157l1.5-1
			c1.8-1.2,2.3-3.6,1.1-5.3c-1.2-1.8-3.6-2.3-5.3-1.1l-7.7,5.1c-0.2,0.1-0.4,0.3-0.5,0.4l-0.2,0.1c-0.3,0.3-0.5,0.7-0.7,1.1
			c0,0-0.1,0.1-0.1,0.1c0,0,0,0.1,0,0.1c-0.1,0.4-0.2,0.8-0.2,1.3v34.4c0,1.5,0.9,2.9,2.3,3.5l76.9,34.6l0,0c1,0.4,2.1,0.4,3.1,0
			l0,0l76.9-34.6c1.4-0.6,2.3-2,2.3-3.5v-35c0-0.4-0.1-0.9-0.3-1.3C195.8,155.9,195.8,155.8,195.8,155.8z"/>
		<path class="st0" d="M226.8,15.4H100V3.8c0-2.1-1.7-3.8-3.8-3.8c0,0,0,0-0.1,0H57.7c-2.1,0-3.8,1.7-3.8,3.8c0,0,0,0,0,0v11.5h-50
			c-2.1,0-3.8,1.7-3.8,3.8v15.4c0,2.1,1.7,3.8,3.8,3.8c0,0,0,0,0,0h50V50c0,2.1,1.7,3.8,3.8,3.8c0,0,0,0,0,0h7.7v11.5
			c0,1,0.4,2,1.1,2.7l6.5,6.6v12.6c0,11.5,7.4,21.8,18.3,25.4c2.8,1,4.8,3.6,4.8,6.6c0,3.9-3.2,7-7.1,6.9c-0.8,0-1.5-0.1-2.2-0.4
			l-36.5-12.9c-7.6-2.7-16,1.3-18.7,9c-0.6,1.6-0.8,3.2-0.8,4.9v0.6c0,5.9,3.6,11.3,9.1,13.5L98.5,165c0.5,0.2,1,0.3,1.5,0.3
			c2.1,0,3.8-1.7,3.8-3.9c0-1.5-0.9-2.9-2.4-3.5l-58.7-24.1c-2.6-1.1-4.3-3.6-4.3-6.4v-0.6c0-3.9,3.2-7,7-7c0.8,0,1.5,0.1,2.2,0.4
			l36.5,12.9c7.6,2.7,16-1.2,18.8-8.8s-1.2-16-8.8-18.8c-0.1-0.1-0.3-0.1-0.4-0.1c-7.8-2.6-13-9.9-13-18.1V74.6l6.6-6.6
			c0.7-0.7,1.1-1.7,1.1-2.7V53.8h7.7c2.1,0,3.8-1.7,3.8-3.8V38.4h126.8c2.1,0,3.8-1.7,3.8-3.8c0,0,0,0,0,0V19.2
			C230.7,17.1,228.9,15.4,226.8,15.4z M92.3,46.1H61.5v-7.7h30.8V46.1z"/>
	</g>
</g>
</svg>
