<?xml version="1.0" encoding="utf-8"?>
<!-- Generator: Adobe Illustrator 24.3.0, SVG Export Plug-In . SVG Version: 6.00 Build 0)  -->
<svg version="1.1" id="Layer_1" xmlns="http://www.w3.org/2000/svg" xmlns:xlink="http://www.w3.org/1999/xlink" x="0px" y="0px"
	 viewBox="0 0 207.2 207.2" style="enable-background:new 0 0 207.2 207.2;" xml:space="preserve">
<style type="text/css">
	.st0{fill:#FFFFFF;}
</style>
<g id="Layer_2_1_">
	<g id="Layer_1-2">
		<path class="st0" d="M192.6,0H14.7C6.6,0,0,6.6,0,14.7v88.9l0,0v88.9c0,8.1,6.6,14.7,14.7,14.7h177.9c8.1,0,14.7-6.6,14.7-14.7
			V14.7C207.2,6.6,200.7,0,192.6,0z M168.2,98.8h-59.7V74.5h89.2v24.3H168.2z M9.6,108.4h89.2v24.3H9.6V108.4z M108.4,43.6H197v21.3
			h-88.6V43.6z M98.8,38.8v60h-24V9.6h24V38.8z M10.2,142.4h88.6v21.3H10.2V142.4z M108.4,168.5v-60h24v89.1h-24L108.4,168.5z
			 M197.6,14.7v19.3h-89.2V9.6h84.1C195.3,9.6,197.6,11.8,197.6,14.7C197.6,14.6,197.6,14.6,197.6,14.7z M65.2,9.7v89.1H43.9V9.6
			L65.2,9.7z M14.7,9.7h19.6v89.1H9.6V14.7C9.6,11.9,11.8,9.7,14.7,9.7C14.6,9.6,14.6,9.6,14.7,9.7L14.7,9.7z M9.7,192.6v-19.3h89.1
			v24.3H14.7C11.9,197.6,9.7,195.4,9.7,192.6C9.6,192.6,9.6,192.6,9.7,192.6L9.7,192.6z M142.1,197.6v-89.1h21.3v89.2L142.1,197.6z
			 M192.6,197.6H173v-89.1h24.6v84.1C197.6,195.3,195.4,197.6,192.6,197.6C192.6,197.6,192.6,197.6,192.6,197.6L192.6,197.6z"/>
	</g>
</g>
</svg>
