<?xml version="1.0" encoding="utf-8"?>
<!-- Generator: Adobe Illustrator 24.3.0, SVG Export Plug-In . SVG Version: 6.00 Build 0)  -->
<svg version="1.1" id="Layer_1" xmlns="http://www.w3.org/2000/svg" xmlns:xlink="http://www.w3.org/1999/xlink" x="0px" y="0px"
	 viewBox="0 0 76 100" style="enable-background:new 0 0 76 100;" xml:space="preserve">
<style type="text/css">
	.st0{fill:#FFFFFF;}
</style>
<g id="Layer_2_1_">
	<g id="Layer_1-2">
		<path class="st0" d="M73.1,2.9C69.2-1,63-1,59.1,2.9l0,0l-5.6,5.6h-8.4l-7,7l2.1,2.1L12.1,45.7c-0.1,0.1-0.2,0.3-0.3,0.4
			c-1.8,2-2.9,4.5-3.1,7.3l-0.4,6l-6.5,6.5c-2.3,2.4-2.3,6.2,0.1,8.5c0,0,0,0,0,0c0.1,0.1,0.2,0.2,0.4,0.3c1,0.9,2.4,1.4,3.7,1.4
			c1.6,0,3.2-0.7,4.4-1.8l6.4-6.3l6-0.4c2.9-0.2,5.6-1.4,7.6-3.4l28.2-28.2l0,0l2.1,2.1l7-7v-8.4l5.6-5.6C77,13,77,6.7,73.1,2.9
			L73.1,2.9z M48.5,40H23.4l18.2-18.2l12.6,12.6L48.5,40z"/>
		<path class="st0" d="M9,83c0,0-7,6.1-7,10c0,3.9,3.1,7,7,7s7-3.1,7-7C16,89.1,9,83,9,83z"/>
	</g>
</g>
</svg>
