<?xml version="1.0" encoding="utf-8"?>
<!-- Generator: Adobe Illustrator 24.3.0, SVG Export Plug-In . SVG Version: 6.00 Build 0)  -->
<svg version="1.1" id="Layer_1" xmlns="http://www.w3.org/2000/svg" xmlns:xlink="http://www.w3.org/1999/xlink" x="0px" y="0px"
	 viewBox="0 0 180.9 141.1" style="enable-background:new 0 0 180.9 141.1;" xml:space="preserve">
<style type="text/css">
	.st0{fill:#FFFAFA;}
</style>
<g id="Layer_2_1_">
	<g id="Layer_1-2">
		<path class="st0" d="M157,39.9h-8.8c8.8-9.9,7.9-25.1-2-33.9c-4.4-3.9-10-6-15.8-6H37.2C24,0.1,13.3,10.9,13.4,24.1
			c0,6,2.3,11.8,6.4,16.2C6.7,42.8-1.7,55.5,0.8,68.5C3,79.6,12.6,87.6,23.9,87.8h69.2v49.2c0,2.2,1.8,4,4,4h66.6c2.2,0,4-1.8,4-4
			V85.3c11.8-6,16.5-20.5,10.5-32.3C174.1,45.1,166,40,157,39.9z M130.4,8c8.8-0.5,16.4,6.2,16.9,15c0.5,8.8-6.2,16.4-15,16.9
			c-0.7,0-1.3,0-2,0H55c8.2-9.1,8.2-22.9,0-31.9H130.4z M79.8,63.9c0,8.8-7.2,16-16,16s-16-7.2-16-16s7.2-16,16-16
			S79.8,55.1,79.8,63.9z M41.7,47.9H46c-0.8,0.8-1.5,1.7-2.2,2.7C43.2,49.6,42.5,48.7,41.7,47.9L41.7,47.9z M37.2,8
			c8.8,0,16,7.2,16,16s-7.2,16-16,16s-16-7.2-16-16S28.4,8,37.2,8z M7.9,63.9c0-8.8,7.2-16,16-16s16,7.2,16,16s-7.2,16-16,16
			S7.9,72.7,7.9,63.9L7.9,63.9z M41.7,79.9c0.8-0.8,1.5-1.7,2.2-2.7c0.6,0.9,1.4,1.8,2.1,2.6L41.7,79.9z M159.7,87.9v45.2h-58.6
			V87.8L159.7,87.9z M157,79.9h-48.8c1.4-1.6,2.7-3.4,3.6-5.3h11.8c2.2,0,4-1.8,4-4s-1.8-4-4-4h-9.5c0.1-0.9,0.2-1.8,0.2-2.7
			c0-2.2-1.8-4-4-4s-4,1.8-4,4c0,8.8-7.2,16-16,16c0,0,0,0,0,0h-8.8c8.2-9.1,8.2-22.9,0-31.9H157c8.8,0.5,15.5,8.1,15,16.9
			C171.5,73,165.1,79.4,157,79.9L157,79.9z"/>
		<path class="st0" d="M70.5,21.3h13.3c2.2,0,4-1.8,4-4s-1.8-4-4-4H70.5c-2.2,0-4,1.8-4,4S68.3,21.3,70.5,21.3z"/>
		<path class="st0" d="M110.4,21.3H137c2.2,0,4-1.8,4-4s-1.8-4-4-4h-26.6c-2.2,0-4,1.8-4,4S108.2,21.3,110.4,21.3z"/>
		<path class="st0" d="M110.4,34.6h13.3c2.2,0,4-1.8,4-4s-1.8-4-4-4h-13.3c-2.2,0-4,1.8-4,4S108.2,34.6,110.4,34.6z"/>
		<path class="st0" d="M70.5,34.6h26.6c2.2,0,4-1.8,4-4s-1.8-4-4-4H70.5c-2.2,0-4,1.8-4,4S68.3,34.6,70.5,34.6z"/>
		<path class="st0" d="M163.7,53.2H137c-2.2,0-4,1.8-4,4s1.8,4,4,4h26.6c2.2,0,4-1.8,4-4S165.8,53.2,163.7,53.2L163.7,53.2z"/>
		<path class="st0" d="M150.4,66.6H137c-2.2,0-4,1.8-4,4s1.8,4,4,4h13.3c2.2,0,4-1.8,4-4S152.5,66.6,150.4,66.6L150.4,66.6z"/>
		<path class="st0" d="M57.2,74.5c2.2,0,4-1.8,4-4l0,0V57.2c0-2.2-1.8-4-4-4s-4,1.8-4,4v13.3C53.2,72.7,55,74.5,57.2,74.5z"/>
		<path class="st0" d="M70.5,74.5c2.2,0,4-1.8,4-4l0,0V57.2c0-2.2-1.8-4-4-4s-4,1.8-4,4v13.3C66.5,72.7,68.3,74.5,70.5,74.5z"/>
		<path class="st0" d="M43.9,34.6c2.2,0,4-1.8,4-4V17.3c0-2.2-1.8-4-4-4s-4,1.8-4,4v13.3C39.9,32.8,41.7,34.6,43.9,34.6z"/>
		<path class="st0" d="M17.3,53.2c-2.2,0-4,1.8-4,4v13.3c0,2.2,1.8,4,4,4s4-1.8,4-4l0,0V57.2C21.2,55,19.5,53.2,17.3,53.2z"/>
	</g>
</g>
</svg>
