<svg xmlns="http://www.w3.org/2000/svg" viewBox="0 0 2939.59 1388.49"><defs><style>.cls-1{opacity:0.5;}.cls-2{fill:#1c2c3c;}.cls-3{opacity:0.6;}.cls-4{opacity:0.8;}.cls-5{opacity:0.3;}</style></defs><g id="Layer_2" data-name="Layer 2"><g id="Layer_1-2" data-name="Layer 1"><g class="cls-1"><path class="cls-2" d="M1019.94,865.53a6,6,0,1,1-6,5.94A6,6,0,0,1,1019.94,865.53Z"/><path class="cls-2" d="M1130.67,1053.79a6,6,0,1,1-8.15-2.23A6,6,0,0,1,1130.67,1053.79Z"/><path class="cls-2" d="M1023,1243.83a6,6,0,1,1-2.14-8.18A6,6,0,0,1,1023,1243.83Z"/><path class="cls-2" d="M804.59,1245.59a6,6,0,1,1,6-5.94A6,6,0,0,1,804.59,1245.59Z"/><path class="cls-2" d="M693.85,1057.33a6,6,0,1,1,8.15,2.23A6,6,0,0,1,693.85,1057.33Z"/><path class="cls-2" d="M801.53,867.3a6,6,0,1,1,2.14,8.17A6,6,0,0,1,801.53,867.3Z"/><path class="cls-2" d="M957.22,814.86a4.93,4.93,0,1,1-5,4.9A4.92,4.92,0,0,1,957.22,814.86Z"/><path class="cls-2" d="M1048.43,969.93a4.92,4.92,0,1,1-6.71-1.84A4.92,4.92,0,0,1,1048.43,969.93Z"/><path class="cls-2" d="M959.74,1126.45a4.92,4.92,0,1,1-1.76-6.73A4.91,4.91,0,0,1,959.74,1126.45Z"/><path class="cls-2" d="M779.85,1127.91a4.93,4.93,0,1,1,4.95-4.9A4.92,4.92,0,0,1,779.85,1127.91Z"/><path class="cls-2" d="M688.64,972.84a4.92,4.92,0,1,1,6.71,1.84A4.93,4.93,0,0,1,688.64,972.84Z"/><path class="cls-2" d="M777.33,816.32a4.92,4.92,0,1,1,1.76,6.73A4.92,4.92,0,0,1,777.33,816.32Z"/><path class="cls-2" d="M1128,555.61a3,3,0,1,1-3,3A3,3,0,0,1,1128,555.61Z"/><path class="cls-2" d="M1183.34,649.64a3,3,0,1,1-4.07-1.11A3,3,0,0,1,1183.34,649.64Z"/><path class="cls-2" d="M1129.56,744.55a3,3,0,1,1-1.07-4.08A3,3,0,0,1,1129.56,744.55Z"/><path class="cls-2" d="M1020.48,745.44a3,3,0,1,1,3-3A3,3,0,0,1,1020.48,745.44Z"/><path class="cls-2" d="M965.17,651.41a3,3,0,1,1,4.07,1.11A3,3,0,0,1,965.17,651.41Z"/><path class="cls-2" d="M1019,556.5a3,3,0,1,1,1.07,4.08A3,3,0,0,1,1019,556.5Z"/><path class="cls-2" d="M340.58,681.47a4.25,4.25,0,1,1-4.27,4.23A4.26,4.26,0,0,1,340.58,681.47Z"/><path class="cls-2" d="M419.33,815.35a4.25,4.25,0,1,1-5.8-1.59A4.26,4.26,0,0,1,419.33,815.35Z"/><path class="cls-2" d="M342.76,950.49a4.25,4.25,0,1,1-1.52-5.82A4.25,4.25,0,0,1,342.76,950.49Z"/><circle class="cls-2" cx="187.47" cy="947.5" r="4.25" transform="translate(-186.06 56.78) rotate(-11.56)"/><path class="cls-2" d="M108.7,817.87a4.25,4.25,0,1,1,5.79,1.58A4.26,4.26,0,0,1,108.7,817.87Z"/><path class="cls-2" d="M185.27,682.73a4.25,4.25,0,1,1,1.52,5.81A4.23,4.23,0,0,1,185.27,682.73Z"/><path class="cls-2" d="M1277.41,777.46a3.27,3.27,0,1,1-3.29,3.25A3.26,3.26,0,0,1,1277.41,777.46Z"/><path class="cls-2" d="M1337.89,880.29a3.26,3.26,0,1,1-4.45-1.22A3.27,3.27,0,0,1,1337.89,880.29Z"/><path class="cls-2" d="M1279.08,984.08a3.26,3.26,0,1,1-1.17-4.47A3.28,3.28,0,0,1,1279.08,984.08Z"/><path class="cls-2" d="M1159.79,985a3.27,3.27,0,1,1,3.28-3.24A3.27,3.27,0,0,1,1159.79,985Z"/><path class="cls-2" d="M1099.31,882.22a3.27,3.27,0,1,1,4.45,1.22A3.26,3.26,0,0,1,1099.31,882.22Z"/><path class="cls-2" d="M1158.12,778.43a3.26,3.26,0,1,1,1.17,4.46A3.26,3.26,0,0,1,1158.12,778.43Z"/><path class="cls-2" d="M793,935.42a7.34,7.34,0,1,1-9.38,4.44A7.34,7.34,0,0,1,793,935.42Z"/><path class="cls-2" d="M844.62,1198.62a7.33,7.33,0,1,1-8.53-5.91A7.34,7.34,0,0,1,844.62,1198.62Z"/><path class="cls-2" d="M642.51,1374.93a7.34,7.34,0,1,1,.84-10.34A7.34,7.34,0,0,1,642.51,1374.93Z"/><path class="cls-2" d="M388.76,1288.05a7.34,7.34,0,1,1,9.38-4.44A7.34,7.34,0,0,1,388.76,1288.05Z"/><path class="cls-2" d="M337.13,1024.85a7.33,7.33,0,1,1,8.53,5.91A7.33,7.33,0,0,1,337.13,1024.85Z"/><path class="cls-2" d="M539.24,848.54a7.34,7.34,0,1,1-.84,10.34A7.34,7.34,0,0,1,539.24,848.54Z"/><circle class="cls-2" cx="2288.14" cy="904.07" r="6.57" transform="translate(460.45 2551.03) rotate(-63.58)"/><path class="cls-2" d="M2166.39,703.71a6.57,6.57,0,1,1,9,2.45A6.57,6.57,0,0,1,2166.39,703.71Z"/><path class="cls-2" d="M2284.74,494.84a6.57,6.57,0,1,1,2.35,9A6.56,6.56,0,0,1,2284.74,494.84Z"/><path class="cls-2" d="M2524.8,492.89a6.57,6.57,0,1,1-6.6,6.53A6.57,6.57,0,0,1,2524.8,492.89Z"/><path class="cls-2" d="M2646.52,699.82a6.57,6.57,0,1,1-9-2.45A6.57,6.57,0,0,1,2646.52,699.82Z"/><path class="cls-2" d="M2528.17,908.7a6.57,6.57,0,1,1-2.35-9A6.56,6.56,0,0,1,2528.17,908.7Z"/><path class="cls-2" d="M2332,529.41a5.53,5.53,0,1,1,5.56-5.5A5.54,5.54,0,0,1,2332,529.41Z"/><path class="cls-2" d="M2229.55,355.27a5.53,5.53,0,1,1,7.54,2.06A5.53,5.53,0,0,1,2229.55,355.27Z"/><path class="cls-2" d="M2329.15,179.49a5.53,5.53,0,1,1,2,7.56A5.52,5.52,0,0,1,2329.15,179.49Z"/><path class="cls-2" d="M2531.17,177.85a5.53,5.53,0,1,1-5.55,5.5A5.53,5.53,0,0,1,2531.17,177.85Z"/><path class="cls-2" d="M2633.6,352a5.53,5.53,0,1,1-7.53-2.06A5.52,5.52,0,0,1,2633.6,352Z"/><path class="cls-2" d="M2534,527.77a5.53,5.53,0,1,1-2-7.56A5.51,5.51,0,0,1,2534,527.77Z"/><path class="cls-2" d="M2290.54,466.27a4.92,4.92,0,1,1,4.94-4.88A4.91,4.91,0,0,1,2290.54,466.27Z"/><path class="cls-2" d="M2199.43,311.37a4.91,4.91,0,1,1,6.7,1.84A4.91,4.91,0,0,1,2199.43,311.37Z"/><path class="cls-2" d="M2288,155a4.92,4.92,0,1,1,1.76,6.72A4.91,4.91,0,0,1,2288,155Z"/><path class="cls-2" d="M2467.72,153.56a4.92,4.92,0,1,1-4.94,4.89A4.92,4.92,0,0,1,2467.72,153.56Z"/><path class="cls-2" d="M2558.83,308.46a4.92,4.92,0,1,1-6.7-1.83A4.91,4.91,0,0,1,2558.83,308.46Z"/><path class="cls-2" d="M2470.24,464.82a4.92,4.92,0,1,1-1.76-6.73A4.91,4.91,0,0,1,2470.24,464.82Z"/><path class="cls-2" d="M2322,199.05a2.16,2.16,0,1,1,2.17-2.14A2.16,2.16,0,0,1,2322,199.05Z"/><path class="cls-2" d="M2282.05,131.15a2.15,2.15,0,1,1,2.94.8A2.15,2.15,0,0,1,2282.05,131.15Z"/><path class="cls-2" d="M2320.88,62.61a2.16,2.16,0,1,1,.78,3A2.16,2.16,0,0,1,2320.88,62.61Z"/><path class="cls-2" d="M2399.66,62a2.16,2.16,0,1,1-2.17,2.14A2.16,2.16,0,0,1,2399.66,62Z"/><path class="cls-2" d="M2439.6,129.87a2.16,2.16,0,1,1-2.94-.8A2.15,2.15,0,0,1,2439.6,129.87Z"/><path class="cls-2" d="M2400.76,198.41a2.15,2.15,0,1,1-.77-2.95A2.15,2.15,0,0,1,2400.76,198.41Z"/><path class="cls-2" d="M1794.36,640.55a5.47,5.47,0,1,1,5.5-5.44A5.47,5.47,0,0,1,1794.36,640.55Z"/><path class="cls-2" d="M1693.07,468.34a5.47,5.47,0,1,1,7.46,2A5.48,5.48,0,0,1,1693.07,468.34Z"/><path class="cls-2" d="M1791.56,294.51a5.47,5.47,0,1,1,2,7.48A5.48,5.48,0,0,1,1791.56,294.51Z"/><path class="cls-2" d="M1991.34,292.9a5.47,5.47,0,1,1-5.49,5.43A5.46,5.46,0,0,1,1991.34,292.9Z"/><path class="cls-2" d="M2092.64,465.1a5.47,5.47,0,1,1-7.46-2A5.47,5.47,0,0,1,2092.64,465.1Z"/><path class="cls-2" d="M1994.15,638.93a5.47,5.47,0,1,1-2-7.48A5.48,5.48,0,0,1,1994.15,638.93Z"/><path class="cls-2" d="M1866.21,919.65a8.25,8.25,0,1,1,8.29-8.2A8.25,8.25,0,0,1,1866.21,919.65Z"/><path class="cls-2" d="M1713.43,659.9a8.24,8.24,0,1,1,11.24,3.08A8.23,8.23,0,0,1,1713.43,659.9Z"/><path class="cls-2" d="M1862,397.71a8.25,8.25,0,1,1,3,11.28A8.26,8.26,0,0,1,1862,397.71Z"/><path class="cls-2" d="M2163.33,395.27a8.25,8.25,0,1,1-8.29,8.2A8.25,8.25,0,0,1,2163.33,395.27Z"/><path class="cls-2" d="M2316.11,655a8.24,8.24,0,1,1-11.24-3.08A8.23,8.23,0,0,1,2316.11,655Z"/><path class="cls-2" d="M2167.55,917.21a8.24,8.24,0,1,1-3-11.28A8.24,8.24,0,0,1,2167.55,917.21Z"/><path class="cls-2" d="M1514.42,877.81a2,2,0,1,1,2-1.95A2,2,0,0,1,1514.42,877.81Z"/><path class="cls-2" d="M1478.06,816a2,2,0,1,1,2.67.73A2,2,0,0,1,1478.06,816Z"/><path class="cls-2" d="M1513.41,753.59a2,2,0,1,1,.71,2.68A2,2,0,0,1,1513.41,753.59Z"/><path class="cls-2" d="M1585.14,753a2,2,0,1,1-2,2A2,2,0,0,1,1585.14,753Z"/><path class="cls-2" d="M1621.5,814.83a2,2,0,1,1-2.67-.73A2,2,0,0,1,1621.5,814.83Z"/><path class="cls-2" d="M1586.14,877.23a2,2,0,1,1-.7-2.68A2,2,0,0,1,1586.14,877.23Z"/><path class="cls-2" d="M1566.31,743.37a1.87,1.87,0,1,1,0-3.73,1.87,1.87,0,0,1,0,3.73Z"/><path class="cls-2" d="M1531.73,684.59a1.87,1.87,0,1,1,2.55.69A1.87,1.87,0,0,1,1531.73,684.59Z"/><path class="cls-2" d="M1565.35,625.25a1.87,1.87,0,1,1,.67,2.55A1.86,1.86,0,0,1,1565.35,625.25Z"/><path class="cls-2" d="M1633.54,624.7a1.87,1.87,0,1,1,0,3.73,1.87,1.87,0,0,1,0-3.73Z"/><path class="cls-2" d="M1668.12,683.48a1.87,1.87,0,1,1-2.55-.7A1.87,1.87,0,0,1,1668.12,683.48Z"/><path class="cls-2" d="M1634.5,742.81a1.86,1.86,0,1,1-.67-2.55A1.86,1.86,0,0,1,1634.5,742.81Z"/><path class="cls-2" d="M1227.25,819.22a4.81,4.81,0,1,0,6.59-1.72A4.82,4.82,0,0,0,1227.25,819.22Z"/><path class="cls-2" d="M1312.29,973.28a4.81,4.81,0,1,0,1.79-6.56A4.8,4.8,0,0,0,1312.29,973.28Z"/><path class="cls-2" d="M1488.22,976.67a4.82,4.82,0,1,0-4.78-4.84A4.81,4.81,0,0,0,1488.22,976.67Z"/><path class="cls-2" d="M1579.12,826a4.81,4.81,0,1,0-6.58,1.73A4.8,4.8,0,0,0,1579.12,826Z"/><path class="cls-2" d="M1494.09,671.94a4.81,4.81,0,1,0-1.8,6.57A4.81,4.81,0,0,0,1494.09,671.94Z"/><path class="cls-2" d="M1318.16,668.55a4.82,4.82,0,1,0,4.78,4.84A4.81,4.81,0,0,0,1318.16,668.55Z"/><path class="cls-2" d="M548,663.81a2.44,2.44,0,1,0,3.33-.87A2.44,2.44,0,0,0,548,663.81Z"/><path class="cls-2" d="M591.09,741.85a2.44,2.44,0,1,0,.91-3.32A2.44,2.44,0,0,0,591.09,741.85Z"/><path class="cls-2" d="M680.21,743.57a2.44,2.44,0,1,0-2.42-2.45A2.44,2.44,0,0,0,680.21,743.57Z"/><path class="cls-2" d="M726.26,667.25a2.44,2.44,0,1,0-3.34.87A2.44,2.44,0,0,0,726.26,667.25Z"/><path class="cls-2" d="M683.18,589.21a2.43,2.43,0,1,0-.91,3.32A2.43,2.43,0,0,0,683.18,589.21Z"/><path class="cls-2" d="M594.06,587.49a2.44,2.44,0,1,0,2.43,2.45A2.44,2.44,0,0,0,594.06,587.49Z"/><path class="cls-2" d="M2396.25,920.38a3.27,3.27,0,1,1,3.28-3.25A3.26,3.26,0,0,1,2396.25,920.38Z"/><path class="cls-2" d="M2335.78,817.57a3.26,3.26,0,1,1,4.45,1.22A3.26,3.26,0,0,1,2335.78,817.57Z"/><path class="cls-2" d="M2394.58,713.8a3.26,3.26,0,1,1,1.17,4.46A3.26,3.26,0,0,1,2394.58,713.8Z"/><path class="cls-2" d="M2513.85,712.83a3.27,3.27,0,1,1-3.28,3.24A3.26,3.26,0,0,1,2513.85,712.83Z"/><path class="cls-2" d="M2574.32,815.64a3.26,3.26,0,1,1-4.45-1.22A3.27,3.27,0,0,1,2574.32,815.64Z"/><path class="cls-2" d="M2515.52,919.41a3.26,3.26,0,1,1-1.17-4.46A3.26,3.26,0,0,1,2515.52,919.41Z"/><path class="cls-2" d="M1616.65,718a3.27,3.27,0,1,1,3.28-3.25A3.27,3.27,0,0,1,1616.65,718Z"/><path class="cls-2" d="M1556.21,615.28a3.26,3.26,0,1,1,4.44,1.22A3.25,3.25,0,0,1,1556.21,615.28Z"/><path class="cls-2" d="M1615,511.57a3.26,3.26,0,1,1,1.17,4.46A3.27,3.27,0,0,1,1615,511.57Z"/><path class="cls-2" d="M1734.18,510.6a3.26,3.26,0,1,1-3.28,3.24A3.26,3.26,0,0,1,1734.18,510.6Z"/><path class="cls-2" d="M1794.62,613.35a3.26,3.26,0,1,1-4.45-1.22A3.27,3.27,0,0,1,1794.62,613.35Z"/><path class="cls-2" d="M1735.85,717.07a3.26,3.26,0,1,1-1.17-4.46A3.26,3.26,0,0,1,1735.85,717.07Z"/></g><path class="cls-2" d="M739.66,768.1a12.68,12.68,0,1,1-12.75,12.61A12.68,12.68,0,0,1,739.66,768.1Z"/><path class="cls-2" d="M893.48,1021.36a14.57,14.57,0,1,1-19.87-5.44A14.58,14.58,0,0,1,893.48,1021.36Z"/><path class="cls-2" d="M748.65,1281.7a13.69,13.69,0,1,1-4.9-18.73A13.68,13.68,0,0,1,748.65,1281.7Z"/><path class="cls-2" d="M451.56,1282.53a9.34,9.34,0,1,1,9.39-9.28A9.33,9.33,0,0,1,451.56,1282.53Z"/><circle class="cls-2" cx="310.38" cy="1025.4" r="12.7" transform="translate(-254.08 114.81) rotate(-14.95)"/><path class="cls-2" d="M442.39,772.18a13.88,13.88,0,1,1,5,19A13.88,13.88,0,0,1,442.39,772.18Z"/><path class="cls-2" d="M189.74,512.9a4.33,4.33,0,1,1-4.35,4.3A4.32,4.32,0,0,1,189.74,512.9Z"/><path class="cls-2" d="M237.23,595a2.8,2.8,0,1,1-3.81-1.05A2.79,2.79,0,0,1,237.23,595Z"/><path class="cls-2" d="M192.84,677.28a4.64,4.64,0,1,1-1.66-6.35A4.64,4.64,0,0,1,192.84,677.28Z"/><path class="cls-2" d="M97.76,677.85a3.43,3.43,0,1,1,3.45-3.4A3.42,3.42,0,0,1,97.76,677.85Z"/><path class="cls-2" d="M49.2,597.31a4,4,0,1,1,5.49,1.51A4,4,0,0,1,49.2,597.31Z"/><path class="cls-2" d="M96,515.15a3.11,3.11,0,1,1,1.12,4.25A3.11,3.11,0,0,1,96,515.15Z"/><path class="cls-2" d="M344,588.8a5.77,5.77,0,1,1-5.8,5.74A5.77,5.77,0,0,1,344,588.8Z"/><path class="cls-2" d="M431.08,730.44a8.42,8.42,0,1,1-11.48-3.15A8.41,8.41,0,0,1,431.08,730.44Z"/><path class="cls-2" d="M348.61,877.37a7.19,7.19,0,1,1-2.58-9.83A7.2,7.2,0,0,1,348.61,877.37Z"/><path class="cls-2" d="M181.19,879.13a6.29,6.29,0,1,1,6.32-6.25A6.3,6.3,0,0,1,181.19,879.13Z"/><path class="cls-2" d="M93.76,737.17a8.81,8.81,0,1,1,12,3.29A8.81,8.81,0,0,1,93.76,737.17Z"/><path class="cls-2" d="M175.28,589.29a8.69,8.69,0,1,1,3.12,11.88A8.68,8.68,0,0,1,175.28,589.29Z"/><path class="cls-2" d="M902.44,983.07a4.55,4.55,0,1,1-4.58,4.53A4.56,4.56,0,0,1,902.44,983.07Z"/><path class="cls-2" d="M971.87,1098.45a5.47,5.47,0,1,1-7.46-2A5.47,5.47,0,0,1,971.87,1098.45Z"/><path class="cls-2" d="M907.4,1217.62a7.24,7.24,0,1,1-2.6-9.91A7.25,7.25,0,0,1,907.4,1217.62Z"/><path class="cls-2" d="M770.44,1218.58a5.35,5.35,0,1,1,5.38-5.32A5.34,5.34,0,0,1,770.44,1218.58Z"/><path class="cls-2" d="M700.29,1102.82a6.3,6.3,0,1,1,8.59,2.35A6.3,6.3,0,0,1,700.29,1102.82Z"/><path class="cls-2" d="M767.33,984.32a5.1,5.1,0,1,1,1.83,7A5.09,5.09,0,0,1,767.33,984.32Z"/><path class="cls-2" d="M832,659.2a10.19,10.19,0,1,1-10.25,10.13A10.2,10.2,0,0,1,832,659.2Z"/><path class="cls-2" d="M943.47,843.22a10.84,10.84,0,1,1-14.78-4.05A10.83,10.83,0,0,1,943.47,843.22Z"/><path class="cls-2" d="M835.52,1029.9a6.48,6.48,0,1,1-2.32-8.86A6.49,6.49,0,0,1,835.52,1029.9Z"/><path class="cls-2" d="M623.65,1031.67a6.2,6.2,0,1,1,6.23-6.16A6.2,6.2,0,0,1,623.65,1031.67Z"/><path class="cls-2" d="M515.65,849.64a6.79,6.79,0,1,1,9.26,2.54A6.8,6.8,0,0,1,515.65,849.64Z"/><path class="cls-2" d="M620,664.94a6.53,6.53,0,1,1,2.34,8.94A6.53,6.53,0,0,1,620,664.94Z"/><path class="cls-2" d="M940.44,533.11a5.13,5.13,0,1,1-5.16,5.1A5.13,5.13,0,0,1,940.44,533.11Z"/><path class="cls-2" d="M1009.63,649.21a5.19,5.19,0,1,1-7.08-1.94A5.19,5.19,0,0,1,1009.63,649.21Z"/><path class="cls-2" d="M943.78,767.29a5.36,5.36,0,1,1-1.93-7.34A5.36,5.36,0,0,1,943.78,767.29Z"/><path class="cls-2" d="M808.45,768a4.14,4.14,0,1,1,4.16-4.11A4.14,4.14,0,0,1,808.45,768Z"/><path class="cls-2" d="M739.14,653a5.32,5.32,0,1,1,7.26,2A5.3,5.3,0,0,1,739.14,653Z"/><path class="cls-2" d="M804.21,534.28A6.4,6.4,0,1,1,806.5,543,6.4,6.4,0,0,1,804.21,534.28Z"/><path class="cls-2" d="M1119.45,671.63a2.55,2.55,0,1,1-2.56,2.53A2.55,2.55,0,0,1,1119.45,671.63Z"/><path class="cls-2" d="M1162.42,744.28a2.63,2.63,0,1,1-3.59-1A2.63,2.63,0,0,1,1162.42,744.28Z"/><path class="cls-2" d="M1121.07,817.94a2.81,2.81,0,1,1-1-3.85A2.8,2.8,0,0,1,1121.07,817.94Z"/><path class="cls-2" d="M1036.44,819.71a3.65,3.65,0,1,1,3.66-3.63A3.64,3.64,0,0,1,1036.44,819.71Z"/><path class="cls-2" d="M993.41,746a2.71,2.71,0,1,1,3.7,1A2.72,2.72,0,0,1,993.41,746Z"/><path class="cls-2" d="M1034.18,671.92a3.56,3.56,0,1,1,1.27,4.88A3.56,3.56,0,0,1,1034.18,671.92Z"/><path class="cls-2" d="M1076.64,552.34a3.17,3.17,0,1,1-3.18,3.15A3.17,3.17,0,0,1,1076.64,552.34Z"/><path class="cls-2" d="M1124.42,630.87a4.21,4.21,0,1,1-5.74-1.57A4.2,4.2,0,0,1,1124.42,630.87Z"/><path class="cls-2" d="M1078.87,711.71a3.6,3.6,0,1,1-1.29-4.92A3.59,3.59,0,0,1,1078.87,711.71Z"/><path class="cls-2" d="M986.61,713.62a4.22,4.22,0,1,1,4.24-4.2A4.24,4.24,0,0,1,986.61,713.62Z"/><path class="cls-2" d="M938.86,634a4.18,4.18,0,1,1,5.7,1.56A4.2,4.2,0,0,1,938.86,634Z"/><path class="cls-2" d="M983.36,552.6a4.78,4.78,0,1,1,1.72,6.54A4.8,4.8,0,0,1,983.36,552.6Z"/><path class="cls-2" d="M160.79,731.64a5.29,5.29,0,1,1-5.32,5.26A5.29,5.29,0,0,1,160.79,731.64Z"/><path class="cls-2" d="M215.24,825.9a3.27,3.27,0,1,1-4.47-1.22A3.29,3.29,0,0,1,215.24,825.9Z"/><path class="cls-2" d="M164.07,920.06a5,5,0,1,1-1.79-6.85A5,5,0,0,1,164.07,920.06Z"/><path class="cls-2" d="M55.46,922.63a5.68,5.68,0,1,1,5.7-5.65A5.68,5.68,0,0,1,55.46,922.63Z"/><path class="cls-2" d="M.51,828.27a3.86,3.86,0,1,1,5.26,1.44A3.85,3.85,0,0,1,.51,828.27Z"/><path class="cls-2" d="M53.94,734.86a3,3,0,1,1,1.06,4A3,3,0,0,1,53.94,734.86Z"/><path class="cls-2" d="M1411.08,802.57a4.74,4.74,0,1,1-4.76,4.71A4.74,4.74,0,0,1,1411.08,802.57Z"/><path class="cls-2" d="M1487.27,930.31a5.31,5.31,0,1,1-7.24-2A5.31,5.31,0,0,1,1487.27,930.31Z"/><path class="cls-2" d="M1414.16,1060.4a5.21,5.21,0,1,1-1.87-7.13A5.22,5.22,0,0,1,1414.16,1060.4Z"/><path class="cls-2" d="M1265,1061.13a4.17,4.17,0,1,1,4.19-4.15A4.17,4.17,0,0,1,1265,1061.13Z"/><path class="cls-2" d="M1187.28,934.84a7.1,7.1,0,1,1,9.68,2.65A7.1,7.1,0,0,1,1187.28,934.84Z"/><path class="cls-2" d="M1259.79,802.6a7.72,7.72,0,1,1,2.76,10.56A7.72,7.72,0,0,1,1259.79,802.6Z"/><path class="cls-2" d="M1101.28,778.65a7.33,7.33,0,1,1-7.37,7.29A7.33,7.33,0,0,1,1101.28,778.65Z"/><path class="cls-2" d="M1178.6,910.1a5.76,5.76,0,1,1-7.85-2.15A5.76,5.76,0,0,1,1178.6,910.1Z"/><path class="cls-2" d="M1104.92,1042.09a5.91,5.91,0,1,1-2.12-8.08A5.92,5.92,0,0,1,1104.92,1042.09Z"/><path class="cls-2" d="M953.65,1044a5.68,5.68,0,1,1,5.71-5.65A5.68,5.68,0,0,1,953.65,1044Z"/><path class="cls-2" d="M877.19,913.68a4.75,4.75,0,1,1,6.48,1.77A4.76,4.76,0,0,1,877.19,913.68Z"/><path class="cls-2" d="M949.49,781.89a6.49,6.49,0,1,1,2.33,8.88A6.49,6.49,0,0,1,949.49,781.89Z"/><path class="cls-2" d="M1185.76,837.3a3,3,0,1,1-3,3A3,3,0,0,1,1185.76,837.3Z"/><path class="cls-2" d="M1231.14,912.49a3.7,3.7,0,1,1-5.05-1.38A3.71,3.71,0,0,1,1231.14,912.49Z"/><path class="cls-2" d="M1188.22,989.79a3.82,3.82,0,1,1-1.37-5.23A3.82,3.82,0,0,1,1188.22,989.79Z"/><path class="cls-2" d="M1099.72,990a2.63,2.63,0,1,1,2.63-2.61A2.62,2.62,0,0,1,1099.72,990Z"/><path class="cls-2" d="M1054.83,914.93a3.13,3.13,0,1,1,4.27,1.17A3.13,3.13,0,0,1,1054.83,914.93Z"/><path class="cls-2" d="M1098.06,838.38a2.89,2.89,0,1,1,1,4A2.89,2.89,0,0,1,1098.06,838.38Z"/><path class="cls-2" d="M415,795a6.47,6.47,0,1,1-6.51,6.43A6.47,6.47,0,0,1,415,795Z"/><path class="cls-2" d="M489.54,923.77a4.25,4.25,0,1,1-5.79-1.59A4.25,4.25,0,0,1,489.54,923.77Z"/><path class="cls-2" d="M418.74,1052.46a6,6,0,1,1-2.14-8.18A6,6,0,0,1,418.74,1052.46Z"/><path class="cls-2" d="M270.4,1055.13a6.49,6.49,0,1,1,6.52-6.45A6.49,6.49,0,0,1,270.4,1055.13Z"/><path class="cls-2" d="M194.72,927a5.56,5.56,0,1,1,7.59,2.08A5.55,5.55,0,0,1,194.72,927Z"/><path class="cls-2" d="M268.35,798.67a4,4,0,1,1,1.44,5.5A4,4,0,0,1,268.35,798.67Z"/><path class="cls-2" d="M597.86,1067.14a9,9,0,1,1-9.06,9A9,9,0,0,1,597.86,1067.14Z"/><path class="cls-2" d="M692.66,1223.77a9.31,9.31,0,1,1-12.7-3.48A9.31,9.31,0,0,1,692.66,1223.77Z"/><path class="cls-2" d="M603.77,1384.11a8.86,8.86,0,1,1-3.18-12.13A8.87,8.87,0,0,1,603.77,1384.11Z"/><path class="cls-2" d="M420.86,1385.31a6.66,6.66,0,1,1,6.7-6.62A6.66,6.66,0,0,1,420.86,1385.31Z"/><path class="cls-2" d="M326.19,1231a9.15,9.15,0,1,1,12.48,3.42A9.16,9.16,0,0,1,326.19,1231Z"/><path class="cls-2" d="M415.65,1071.11a8,8,0,1,1,2.89,11A8,8,0,0,1,415.65,1071.11Z"/><path class="cls-2" d="M2096.23,764.09a6.41,6.41,0,1,1,6.44-6.37A6.4,6.4,0,0,1,2096.23,764.09Z"/><path class="cls-2" d="M1996.52,597.05a7.12,7.12,0,1,1,9.72,2.67A7.11,7.11,0,0,1,1996.52,597.05Z"/><path class="cls-2" d="M2089.79,425.57a9.62,9.62,0,1,1,3.45,13.15A9.63,9.63,0,0,1,2089.79,425.57Z"/><path class="cls-2" d="M2287.07,425.86a5.62,5.62,0,1,1-5.65,5.59A5.62,5.62,0,0,1,2287.07,425.86Z"/><path class="cls-2" d="M2388,591.4a8.56,8.56,0,1,1-11.67-3.2A8.55,8.55,0,0,1,2388,591.4Z"/><path class="cls-2" d="M2292.47,763a8.41,8.41,0,1,1-3-11.51A8.41,8.41,0,0,1,2292.47,763Z"/><path class="cls-2" d="M2416.32,817.08a4.06,4.06,0,1,1,4.08-4A4,4,0,0,1,2416.32,817.08Z"/><path class="cls-2" d="M2352.47,713.35a6.14,6.14,0,1,1,8.37,2.3A6.14,6.14,0,0,1,2352.47,713.35Z"/><path class="cls-2" d="M2413.23,605.78a4.93,4.93,0,1,1,1.76,6.75A4.93,4.93,0,0,1,2413.23,605.78Z"/><path class="cls-2" d="M2535.72,605a3.9,3.9,0,1,1-3.92,3.88A3.89,3.89,0,0,1,2535.72,605Z"/><path class="cls-2" d="M2599.15,708.83a5.66,5.66,0,1,1-7.71-2.11A5.66,5.66,0,0,1,2599.15,708.83Z"/><path class="cls-2" d="M2538,815.68a4,4,0,1,1-1.42-5.41A3.95,3.95,0,0,1,2538,815.68Z"/><path class="cls-2" d="M2643.75,709.63a9.3,9.3,0,1,1,9.35-9.24A9.31,9.31,0,0,1,2643.75,709.63Z"/><path class="cls-2" d="M2544,541.36a8,8,0,1,1,10.92,3A8,8,0,0,1,2544,541.36Z"/><path class="cls-2" d="M2639.29,371.8a7.33,7.33,0,1,1,2.63,10A7.32,7.32,0,0,1,2639.29,371.8Z"/><path class="cls-2" d="M2833.22,366.09a10.46,10.46,0,1,1-10.51,10.39A10.46,10.46,0,0,1,2833.22,366.09Z"/><path class="cls-2" d="M2932,536.1a6.84,6.84,0,1,1-9.33-2.55A6.83,6.83,0,0,1,2932,536.1Z"/><path class="cls-2" d="M2839.27,706a9.17,9.17,0,1,1-3.29-12.55A9.17,9.17,0,0,1,2839.27,706Z"/><path class="cls-2" d="M2430.16,441.56a5.9,5.9,0,1,1,5.93-5.86A5.89,5.89,0,0,1,2430.16,441.56Z"/><path class="cls-2" d="M2369.71,341.35a5.85,5.85,0,1,1,8,2.19A5.84,5.84,0,0,1,2369.71,341.35Z"/><path class="cls-2" d="M2427.75,239.81a4.08,4.08,0,1,1,1.46,5.59A4.09,4.09,0,0,1,2427.75,239.81Z"/><path class="cls-2" d="M2543.2,236.57a5.93,5.93,0,1,1-6,5.89A5.93,5.93,0,0,1,2543.2,236.57Z"/><path class="cls-2" d="M2601.67,337.94a3.57,3.57,0,1,1-4.87-1.33A3.57,3.57,0,0,1,2601.67,337.94Z"/><path class="cls-2" d="M2547.3,439.34a6,6,0,1,1-2.17-8.26A6.05,6.05,0,0,1,2547.3,439.34Z"/><path class="cls-2" d="M2401.93,339.29a2.37,2.37,0,1,1,2.38-2.36A2.37,2.37,0,0,1,2401.93,339.29Z"/><path class="cls-2" d="M2358.84,269.22a3.92,3.92,0,1,1,5.35,1.47A3.92,3.92,0,0,1,2358.84,269.22Z"/><path class="cls-2" d="M2400.26,196.65a2.84,2.84,0,1,1,1,3.89A2.84,2.84,0,0,1,2400.26,196.65Z"/><path class="cls-2" d="M2482.89,194.41a4.13,4.13,0,1,1-4.14,4.1A4.12,4.12,0,0,1,2482.89,194.41Z"/><path class="cls-2" d="M2525.38,266.56a3.25,3.25,0,1,1-4.43-1.21A3.26,3.26,0,0,1,2525.38,266.56Z"/><path class="cls-2" d="M2485.14,339.15a3.53,3.53,0,1,1-1.26-4.83A3.53,3.53,0,0,1,2485.14,339.15Z"/><path class="cls-2" d="M2373.49,145.67a3.36,3.36,0,1,1,3.38-3.34A3.36,3.36,0,0,1,2373.49,145.67Z"/><path class="cls-2" d="M2331.42,74a2.76,2.76,0,1,1,3.77,1A2.78,2.78,0,0,1,2331.42,74Z"/><path class="cls-2" d="M2371.28,1.72a3.48,3.48,0,1,1,1.25,4.76A3.48,3.48,0,0,1,2371.28,1.72Z"/><path class="cls-2" d="M2454.46.65a3.28,3.28,0,1,1-3.3,3.26A3.28,3.28,0,0,1,2454.46.65Z"/><path class="cls-2" d="M2496.81,72a3.08,3.08,0,1,1-4.2-1.15A3.09,3.09,0,0,1,2496.81,72Z"/><path class="cls-2" d="M2455.63,143.91a2.28,2.28,0,1,1-.81-3.12A2.27,2.27,0,0,1,2455.63,143.91Z"/><path class="cls-2" d="M2261.51,1047.13a6.44,6.44,0,1,1,6.47-6.4A6.43,6.43,0,0,1,2261.51,1047.13Z"/><path class="cls-2" d="M2195.32,936.25a5.82,5.82,0,1,1,7.94,2.17A5.82,5.82,0,0,1,2195.32,936.25Z"/><path class="cls-2" d="M2258.31,824.13a5.13,5.13,0,1,1,1.84,7A5.14,5.14,0,0,1,2258.31,824.13Z"/><path class="cls-2" d="M2386.31,822a5.39,5.39,0,1,1-5.42,5.36A5.41,5.41,0,0,1,2386.31,822Z"/><path class="cls-2" d="M2451.61,932.37a4.79,4.79,0,1,1-6.54-1.79A4.79,4.79,0,0,1,2451.61,932.37Z"/><path class="cls-2" d="M2390.31,1044.44a6.05,6.05,0,1,1-2.17-8.28A6,6,0,0,1,2390.31,1044.44Z"/><path class="cls-2" d="M2181.28,994.52a3.32,3.32,0,1,1,3.33-3.3A3.32,3.32,0,0,1,2181.28,994.52Z"/><path class="cls-2" d="M2144.28,931.49a2.59,2.59,0,1,1,3.53,1A2.6,2.6,0,0,1,2144.28,931.49Z"/><path class="cls-2" d="M2179.89,868.38a2.41,2.41,0,1,1,.87,3.3A2.41,2.41,0,0,1,2179.89,868.38Z"/><path class="cls-2" d="M2252.2,867.05a2.94,2.94,0,1,1-3,2.93A2.94,2.94,0,0,1,2252.2,867.05Z"/><path class="cls-2" d="M2289,929.84a2.33,2.33,0,1,1-3.18-.87A2.32,2.32,0,0,1,2289,929.84Z"/><path class="cls-2" d="M2254.81,993.53a3.83,3.83,0,1,1-1.37-5.25A3.84,3.84,0,0,1,2254.81,993.53Z"/><path class="cls-2" d="M1864.61,556.85a6.41,6.41,0,1,1,6.44-6.37A6.4,6.4,0,0,1,1864.61,556.85Z"/><path class="cls-2" d="M1794.93,442.27a7,7,0,1,1,9.55,2.61A7,7,0,0,1,1794.93,442.27Z"/><path class="cls-2" d="M1861.43,325.26a5.17,5.17,0,1,1,1.85,7.07A5.17,5.17,0,0,1,1861.43,325.26Z"/><path class="cls-2" d="M1994.42,323.58a5,5,0,1,1-5,5A5,5,0,0,1,1994.42,323.58Z"/><path class="cls-2" d="M2062,438a4.58,4.58,0,1,1-6.24-1.71A4.58,4.58,0,0,1,2062,438Z"/><path class="cls-2" d="M1997.09,553.47a4.56,4.56,0,1,1-1.64-6.24A4.56,4.56,0,0,1,1997.09,553.47Z"/><path class="cls-2" d="M1914.29,874.07a7.42,7.42,0,1,1,7.46-7.38A7.43,7.43,0,0,1,1914.29,874.07Z"/><path class="cls-2" d="M1794.55,681.32a12.29,12.29,0,1,1,16.77,4.59A12.29,12.29,0,0,1,1794.55,681.32Z"/><path class="cls-2" d="M1907.23,479.64a10.69,10.69,0,1,1,3.83,14.62A10.68,10.68,0,0,1,1907.23,479.64Z"/><path class="cls-2" d="M2136.84,476.46a9.81,9.81,0,1,1-9.86,9.75A9.8,9.8,0,0,1,2136.84,476.46Z"/><circle class="cls-2" cx="2245.88" cy="677.69" r="10.77" transform="translate(481.12 2223.28) rotate(-58)"/><path class="cls-2" d="M2141,871.61a7.4,7.4,0,1,1-2.65-10.12A7.4,7.4,0,0,1,2141,871.61Z"/><path class="cls-2" d="M1898.82,890.85a2.94,2.94,0,1,1,3-2.92A2.95,2.95,0,0,1,1898.82,890.85Z"/><path class="cls-2" d="M1847.13,807.6a5.15,5.15,0,1,1,7,1.93A5.16,5.16,0,0,1,1847.13,807.6Z"/><path class="cls-2" d="M1896.32,720.71a4,4,0,1,1,1.43,5.45A4,4,0,0,1,1896.32,720.71Z"/><path class="cls-2" d="M1995.15,718.35a4.91,4.91,0,1,1-4.93,4.88A4.91,4.91,0,0,1,1995.15,718.35Z"/><path class="cls-2" d="M2046,804a4.23,4.23,0,1,1-5.77-1.58A4.24,4.24,0,0,1,2046,804Z"/><path class="cls-2" d="M1996.68,889.89a2.87,2.87,0,1,1-1-3.92A2.86,2.86,0,0,1,1996.68,889.89Z"/><path class="cls-2" d="M1682.48,879.08a2.15,2.15,0,1,1,2.15-2.14A2.15,2.15,0,0,1,1682.48,879.08Z"/><path class="cls-2" d="M1646.75,820a2.83,2.83,0,1,1,3.87,1.06A2.83,2.83,0,0,1,1646.75,820Z"/><path class="cls-2" d="M1680,758.68a3.68,3.68,0,1,1,1.32,5A3.7,3.7,0,0,1,1680,758.68Z"/><path class="cls-2" d="M1750.36,757.81a3.1,3.1,0,1,1-3.12,3.09A3.1,3.1,0,0,1,1750.36,757.81Z"/><path class="cls-2" d="M1786.17,817.84a2.94,2.94,0,1,1-4-1.1A2.94,2.94,0,0,1,1786.17,817.84Z"/><path class="cls-2" d="M1751.53,878.38a2.13,2.13,0,1,1-.76-2.91A2.13,2.13,0,0,1,1751.53,878.38Z"/><path class="cls-2" d="M1539.93,857.67a2.7,2.7,0,1,1,2.72-2.68A2.7,2.7,0,0,1,1539.93,857.67Z"/><path class="cls-2" d="M1513.86,812.43a1.6,1.6,0,1,1,2.18.6A1.61,1.61,0,0,1,1513.86,812.43Z"/><path class="cls-2" d="M1538.68,767.57a2,2,0,1,1,.73,2.77A2,2,0,0,1,1538.68,767.57Z"/><path class="cls-2" d="M1590.31,767.17a1.7,1.7,0,0,1,0,3.4,1.7,1.7,0,1,1,0-3.4Z"/><path class="cls-2" d="M1616.59,811.29a1.83,1.83,0,1,1-2.5-.68A1.83,1.83,0,0,1,1616.59,811.29Z"/><path class="cls-2" d="M1591.35,856.14a1.77,1.77,0,1,1-.63-2.42A1.77,1.77,0,0,1,1591.35,856.14Z"/><path class="cls-2" d="M1563.34,734.91a2.1,2.1,0,1,1,2.11-2.08A2.09,2.09,0,0,1,1563.34,734.91Z"/><path class="cls-2" d="M1525.7,673.83a3.5,3.5,0,1,1,4.78,1.31A3.51,3.51,0,0,1,1525.7,673.83Z"/><path class="cls-2" d="M1560.73,609.84a3.82,3.82,0,1,1,1.37,5.23A3.81,3.81,0,0,1,1560.73,609.84Z"/><path class="cls-2" d="M1633.93,609.67a2.49,2.49,0,1,1-2.5,2.47A2.49,2.49,0,0,1,1633.93,609.67Z"/><path class="cls-2" d="M1670.36,671.83a2.11,2.11,0,1,1-2.88-.79A2.11,2.11,0,0,1,1670.36,671.83Z"/><path class="cls-2" d="M1636,734.8a3.15,3.15,0,1,1-1.13-4.31A3.15,3.15,0,0,1,1636,734.8Z"/><path class="cls-2" d="M1348.53,720.06a2.46,2.46,0,1,0,3.36-.88A2.45,2.45,0,0,0,1348.53,720.06Z"/><path class="cls-2" d="M1379.61,778a2.93,2.93,0,1,0,1.09-4A2.92,2.92,0,0,0,1379.61,778Z"/><path class="cls-2" d="M1445.76,780.08a3.15,3.15,0,1,0-3.14-3.17A3.15,3.15,0,0,0,1445.76,780.08Z"/><path class="cls-2" d="M1480.44,723.5a3,3,0,1,0-4,1.06A3,3,0,0,0,1480.44,723.5Z"/><path class="cls-2" d="M1448,665.82a1.86,1.86,0,1,0-.69,2.53A1.86,1.86,0,0,0,1448,665.82Z"/><path class="cls-2" d="M1382.79,663a3.4,3.4,0,1,0,3.38,3.42A3.41,3.41,0,0,0,1382.79,663Z"/><path class="cls-2" d="M439.69,670.1a2.94,2.94,0,1,0,4-1.06A2.93,2.93,0,0,0,439.69,670.1Z"/><path class="cls-2" d="M471.53,728.11a2.54,2.54,0,1,0,1-3.46A2.54,2.54,0,0,0,471.53,728.11Z"/><path class="cls-2" d="M537.33,730.71a3.5,3.5,0,1,0-3.48-3.52A3.5,3.5,0,0,0,537.33,730.71Z"/><path class="cls-2" d="M572.24,673.91a3.21,3.21,0,1,0-4.39,1.16A3.2,3.2,0,0,0,572.24,673.91Z"/><path class="cls-2" d="M540.81,615.4a3.27,3.27,0,1,0-1.22,4.46A3.26,3.26,0,0,0,540.81,615.4Z"/><path class="cls-2" d="M474.36,614.79a1.87,1.87,0,1,0,1.86,1.88A1.88,1.88,0,0,0,474.36,614.79Z"/><path class="cls-2" d="M2481.14,911.16a4.43,4.43,0,1,1,4.46-4.41A4.44,4.44,0,0,1,2481.14,911.16Z"/><path class="cls-2" d="M2436.7,836.36a3.79,3.79,0,1,1,5.17,1.42A3.8,3.8,0,0,1,2436.7,836.36Z"/><path class="cls-2" d="M2479.92,761.51a2.38,2.38,0,1,1,.85,3.25A2.37,2.37,0,0,1,2479.92,761.51Z"/><path class="cls-2" d="M2565.15,758.9a4.27,4.27,0,1,1-4.3,4.25A4.27,4.27,0,0,1,2565.15,758.9Z"/><path class="cls-2" d="M2609.73,833.46a3.95,3.95,0,1,1-5.38-1.47A4,4,0,0,1,2609.73,833.46Z"/><path class="cls-2" d="M2566.41,908.42a2.42,2.42,0,1,1-.87-3.32A2.42,2.42,0,0,1,2566.41,908.42Z"/><path class="cls-2" d="M2714.82,921.53a6.46,6.46,0,1,1,6.49-6.42A6.46,6.46,0,0,1,2714.82,921.53Z"/><path class="cls-2" d="M2639.08,791.57a4.68,4.68,0,1,1,6.38,1.74A4.68,4.68,0,0,1,2639.08,791.57Z"/><path class="cls-2" d="M2709.47,660.27a7.86,7.86,0,1,1,2.82,10.75A7.86,7.86,0,0,1,2709.47,660.27Z"/><path class="cls-2" d="M2861.1,660.56a4.49,4.49,0,1,1-4.51,4.46A4.48,4.48,0,0,1,2861.1,660.56Z"/><path class="cls-2" d="M2938.69,787.5a6.8,6.8,0,1,1-9.27-2.54A6.79,6.79,0,0,1,2938.69,787.5Z"/><path class="cls-2" d="M2864.24,918.55a5.29,5.29,0,1,1-1.89-7.24A5.28,5.28,0,0,1,2864.24,918.55Z"/><path class="cls-2" d="M1176.47,789.19a4,4,0,1,0,5.45-1.43A4,4,0,0,0,1176.47,789.19Z"/><path class="cls-2" d="M1218.8,868.41a4.44,4.44,0,1,0,1.66-6A4.44,4.44,0,0,0,1218.8,868.41Z"/><path class="cls-2" d="M1309,870.51a3.82,3.82,0,1,0-3.8-3.84A3.83,3.83,0,0,0,1309,870.51Z"/><path class="cls-2" d="M1355.34,793.79a3.2,3.2,0,1,0-4.38,1.14A3.21,3.21,0,0,0,1355.34,793.79Z"/><path class="cls-2" d="M1312.1,715.86a2.62,2.62,0,1,0-1,3.58A2.63,2.63,0,0,0,1312.1,715.86Z"/><path class="cls-2" d="M1223.51,714.2a2.48,2.48,0,1,0,2.46,2.49A2.49,2.49,0,0,0,1223.51,714.2Z"/><path class="cls-2" d="M1719.22,740.26a5,5,0,1,1,5-5A5,5,0,0,1,1719.22,740.26Z"/><path class="cls-2" d="M1657.26,635.23a4.3,4.3,0,1,1,5.87,1.6A4.31,4.31,0,0,1,1657.26,635.23Z"/><path class="cls-2" d="M1716.56,529.33a4.43,4.43,0,1,1,1.59,6A4.42,4.42,0,0,1,1716.56,529.33Z"/><path class="cls-2" d="M1838,526.66a5.56,5.56,0,1,1-5.59,5.53A5.57,5.57,0,0,1,1838,526.66Z"/><path class="cls-2" d="M1899.12,632.77a3.31,3.31,0,1,1-4.52-1.24A3.31,3.31,0,0,1,1899.12,632.77Z"/><path class="cls-2" d="M1840.38,738a4.08,4.08,0,1,1-1.46-5.57A4.07,4.07,0,0,1,1840.38,738Z"/><path class="cls-2" d="M1611.65,699.19a4.6,4.6,0,1,1,4.63-4.58A4.6,4.6,0,0,1,1611.65,699.19Z"/><path class="cls-2" d="M1566.5,623.91a4.25,4.25,0,1,1,5.8,1.59A4.25,4.25,0,0,1,1566.5,623.91Z"/><path class="cls-2" d="M1608.53,547.18a4.58,4.58,0,1,1,1.64,6.27A4.59,4.59,0,0,1,1608.53,547.18Z"/><path class="cls-2" d="M1696.28,545.47a4.49,4.49,0,1,1-4.51,4.46A4.49,4.49,0,0,1,1696.28,545.47Z"/><path class="cls-2" d="M1739.94,621.48a2.54,2.54,0,1,1-3.46-1A2.53,2.53,0,0,1,1739.94,621.48Z"/><path class="cls-2" d="M1699.09,697.18a4.22,4.22,0,1,1-1.51-5.77A4.23,4.23,0,0,1,1699.09,697.18Z"/><path class="cls-2" d="M2344,739.79a6.31,6.31,0,1,1,6.34-6.28A6.31,6.31,0,0,1,2344,739.79Z"/><path class="cls-2" d="M2267.7,614.92a7.57,7.57,0,1,1,10.33,2.83A7.57,7.57,0,0,1,2267.7,614.92Z"/><path class="cls-2" d="M2340.47,486.81a5.65,5.65,0,1,1,2,7.73A5.65,5.65,0,0,1,2340.47,486.81Z"/><path class="cls-2" d="M2486.14,485.42a5,5,0,1,1-5,5A5,5,0,0,1,2486.14,485.42Z"/><path class="cls-2" d="M2561,609.8a5.95,5.95,0,1,1-8.11-2.22A5.94,5.94,0,0,1,2561,609.8Z"/><path class="cls-2" d="M2489.09,736.8a5,5,0,1,1-1.8-6.87A5,5,0,0,1,2489.09,736.8Z"/><path class="cls-2" d="M2164.13,471.63a8.24,8.24,0,1,1,8.29-8.19A8.23,8.23,0,0,1,2164.13,471.63Z"/><path class="cls-2" d="M2072,317.62a7.92,7.92,0,1,1,10.8,3A7.92,7.92,0,0,1,2072,317.62Z"/><path class="cls-2" d="M2158.36,160.58a8.67,8.67,0,1,1,3.11,11.86A8.66,8.66,0,0,1,2158.36,160.58Z"/><path class="cls-2" d="M2338.19,157.84a8.08,8.08,0,1,1-8.12,8A8.07,8.07,0,0,1,2338.19,157.84Z"/><path class="cls-2" d="M2429.91,312a7.42,7.42,0,1,1-10.12-2.77A7.41,7.41,0,0,1,2429.91,312Z"/><path class="cls-2" d="M2341,467a5.28,5.28,0,1,1-1.89-7.22A5.28,5.28,0,0,1,2341,467Z"/><g class="cls-3"><rect class="cls-2" x="142.99" y="471.44" width="2.4" height="91.06" transform="translate(-373.58 658.27) rotate(-89.68)"/><rect class="cls-2" x="211.06" y="511.25" width="2.4" height="91.06" transform="translate(-247.84 178.14) rotate(-29.68)"/><rect class="cls-2" x="166.29" y="634.44" width="91.06" height="2.4" transform="translate(-443.9 498.05) rotate(-59.72)"/><rect class="cls-2" x="142.11" y="629.15" width="2.4" height="91.06" transform="translate(-532.16 814.23) rotate(-89.68)"/><rect class="cls-2" x="74.04" y="589.35" width="2.4" height="91.06" transform="translate(-304.49 120.55) rotate(-29.68)"/><rect class="cls-2" x="30.15" y="554.82" width="91.06" height="2.4" transform="translate(-442.62 340.97) rotate(-59.72)"/><rect class="cls-2" x="835.35" y="921.92" width="3.44" height="130.68" transform="translate(-154.85 1818.8) rotate(-89.68)"/><rect class="cls-2" x="933.04" y="979.05" width="3.44" height="130.68" transform="translate(-394.5 599.88) rotate(-29.68)"/><rect class="cls-2" x="868.79" y="1155.84" width="130.68" height="3.44" transform="translate(-536.54 1380.41) rotate(-59.71)"/><rect class="cls-2" x="834.09" y="1148.26" width="3.44" height="130.68" transform="translate(-382.44 2042.62) rotate(-89.68)"/><rect class="cls-2" x="736.4" y="1091.13" width="3.44" height="130.68" transform="translate(-475.79 517.21) rotate(-29.68)"/><rect class="cls-2" x="673.41" y="1041.58" width="130.68" height="3.44" transform="translate(-534.73 1155.01) rotate(-59.71)"/><rect class="cls-2" x="873.35" y="472.54" width="3.44" height="130.68" transform="translate(332.32 1409.94) rotate(-89.68)"/><rect class="cls-2" x="971.04" y="529.67" width="3.44" height="130.68" transform="translate(-167 559.74) rotate(-29.68)"/><rect class="cls-2" x="906.79" y="706.46" width="130.68" height="3.44" transform="translate(-129.68 1190.44) rotate(-59.71)"/><rect class="cls-2" x="872.09" y="698.88" width="3.44" height="130.68" transform="translate(104.72 1633.75) rotate(-89.68)"/><rect class="cls-2" x="774.4" y="641.75" width="3.44" height="130.68" transform="translate(-248.3 477.07) rotate(-29.68)"/><rect class="cls-2" x="711.41" y="592.2" width="130.68" height="3.44" transform="translate(-127.84 965.12) rotate(-59.71)"/><rect class="cls-2" x="1030.88" y="510.69" width="2.35" height="89.14" transform="translate(471.05 1584.2) rotate(-89.68)"/><rect class="cls-2" x="1097.52" y="549.66" width="2.35" height="89.14" transform="translate(-150.09 621.98) rotate(-29.68)"/><rect class="cls-2" x="1053.7" y="670.25" width="89.13" height="2.35" transform="translate(-35.74 1280.55) rotate(-59.68)"/><rect class="cls-2" x="1030.02" y="665.08" width="2.35" height="89.14" transform="translate(315.81 1736.87) rotate(-89.68)"/><rect class="cls-2" x="963.39" y="626.11" width="2.35" height="89.13" transform="translate(-205.54 565.61) rotate(-29.68)"/><rect class="cls-2" x="920.42" y="592.31" width="89.14" height="2.35" transform="translate(-34.45 1126.91) rotate(-59.68)"/><rect class="cls-2" x="107.26" y="684.51" width="2.75" height="104.27" transform="translate(-628.61 841.16) rotate(-89.68)"/><rect class="cls-2" x="185.21" y="730.09" width="2.75" height="104.27" transform="translate(-362.85 195.01) rotate(-29.68)"/><rect class="cls-2" x="133.94" y="871.15" width="104.27" height="2.75" transform="translate(-661.09 592.81) rotate(-59.69)"/><rect class="cls-2" x="106.25" y="865.11" width="2.75" height="104.27" transform="translate(-810.21 1019.73) rotate(-89.68)"/><rect class="cls-2" x="28.3" y="819.52" width="2.75" height="104.27" transform="translate(-427.72 129.06) rotate(-29.68)"/><rect class="cls-2" x="-21.96" y="779.98" width="104.27" height="2.75" transform="translate(-659.61 413.09) rotate(-59.69)"/><rect class="cls-2" x="1142.03" y="797.48" width="2.24" height="85.19" transform="matrix(0.01, -1, 1, 0.01, 296.71, 1978.52)"/><rect class="cls-2" x="1205.71" y="834.72" width="2.24" height="85.19" transform="translate(-276.08 712.67) rotate(-29.68)"/><rect class="cls-2" x="1163.83" y="949.97" width="85.19" height="2.24" transform="translate(-223.26 1513.26) rotate(-59.72)"/><rect class="cls-2" x="1141.2" y="945.03" width="2.24" height="85.19" transform="translate(148.35 2124.42) rotate(-89.68)"/><rect class="cls-2" x="1077.52" y="907.79" width="2.24" height="85.19" transform="translate(-329.07 658.76) rotate(-29.68)"/><rect class="cls-2" x="1036.46" y="875.48" width="85.19" height="2.24" transform="translate(-222.02 1366.52) rotate(-59.72)"/><rect class="cls-2" x="341.51" y="729.52" width="3.77" height="143.15" transform="translate(-459.61 1140.02) rotate(-89.68)"/><rect class="cls-2" x="448.52" y="792.11" width="3.77" height="143.15" transform="translate(-368.57 336.33) rotate(-29.68)"/><rect class="cls-2" x="378.14" y="985.77" width="143.15" height="3.77" transform="translate(-629.86 877.15) rotate(-59.67)"/><rect class="cls-2" x="340.12" y="977.47" width="3.77" height="143.15" transform="translate(-708.92 1385.2) rotate(-89.68)"/><rect class="cls-2" x="233.11" y="914.88" width="3.77" height="143.15" transform="translate(-457.62 245.78) rotate(-29.68)"/><rect class="cls-2" x="164.11" y="860.6" width="143.15" height="3.77" transform="translate(-627.79 630.43) rotate(-59.67)"/></g><g class="cls-4"><rect class="cls-2" x="593.23" y="637.37" width="7.51" height="285.22" transform="translate(-186.32 1372.6) rotate(-89.68)"/><rect class="cls-2" x="806.45" y="762.07" width="7.51" height="285.22" transform="translate(-341.66 519.87) rotate(-29.68)"/><rect class="cls-2" x="666.22" y="1147.93" width="285.22" height="7.51" transform="translate(-593.65 1268.45) rotate(-59.68)"/><rect class="cls-2" x="590.47" y="1131.38" width="7.51" height="285.22" transform="translate(-683.06 1861.1) rotate(-89.68)"/><rect class="cls-2" x="377.25" y="1006.69" width="7.51" height="285.22" transform="translate(-519.1 339.44) rotate(-29.68)"/><rect class="cls-2" x="239.77" y="898.54" width="285.22" height="7.51" transform="translate(-589.53 776.85) rotate(-59.68)"/><rect class="cls-2" x="261.25" y="513.53" width="4.24" height="161.18" transform="translate(-332.22 854.17) rotate(-89.68)"/><rect class="cls-2" x="381.74" y="584" width="4.24" height="161.18" transform="translate(-278.72 277.27) rotate(-29.68)"/><rect class="cls-2" x="302.49" y="802.05" width="161.18" height="4.24" transform="translate(-504.49 728.97) rotate(-59.69)"/><rect class="cls-2" x="259.69" y="792.7" width="4.24" height="161.18" transform="translate(-612.93 1130.22) rotate(-89.68)"/><rect class="cls-2" x="139.2" y="722.24" width="4.24" height="161.18" transform="translate(-378.99 175.3) rotate(-29.68)"/><rect class="cls-2" x="61.51" y="661.12" width="161.18" height="4.24" transform="translate(-502.17 451.11) rotate(-59.68)"/><rect class="cls-2" x="726.08" y="565.69" width="5.43" height="206.25" transform="translate(55.93 1393.87) rotate(-89.68)"/><rect class="cls-2" x="880.27" y="655.86" width="5.43" height="206.25" transform="translate(-259.97 536.81) rotate(-29.68)"/><rect class="cls-2" x="778.87" y="934.89" width="206.26" height="5.43" transform="matrix(0.5, -0.86, 0.86, 0.5, -372.67, 1225.4)"/><rect class="cls-2" x="724.09" y="922.92" width="5.43" height="206.26" transform="translate(-303.29 1747.12) rotate(-89.68)"/><rect class="cls-2" x="569.9" y="832.75" width="5.43" height="206.25" transform="translate(-388.28 406.32) rotate(-29.68)"/><rect class="cls-2" x="470.48" y="754.54" width="206.26" height="5.43" transform="translate(-369.67 869.91) rotate(-59.67)"/><rect class="cls-2" x="1336.85" y="734.6" width="3.81" height="144.61" transform="translate(524.4 2141.14) rotate(-89.68)"/><rect class="cls-2" x="1444.95" y="797.82" width="3.81" height="144.61" transform="translate(-241.02 830.58) rotate(-29.68)"/><rect class="cls-2" x="1373.86" y="993.45" width="144.61" height="3.81" transform="translate(-142.72 1742.06) rotate(-59.71)"/><rect class="cls-2" x="1335.45" y="985.06" width="3.81" height="144.61" transform="translate(272.55 2388.81) rotate(-89.68)"/><rect class="cls-2" x="1227.35" y="921.84" width="3.81" height="144.61" transform="translate(-330.99 739.11) rotate(-29.68)"/><rect class="cls-2" x="1157.65" y="867.01" width="144.61" height="3.81" transform="translate(-140.7 1492.7) rotate(-59.71)"/><rect class="cls-2" x="1026.24" y="712.5" width="3.85" height="146.14" transform="translate(236.86 1809.34) rotate(-89.68)"/><rect class="cls-2" x="1135.49" y="776.4" width="3.85" height="146.14" transform="translate(-271.4 674.65) rotate(-29.68)"/><rect class="cls-2" x="1063.64" y="974.11" width="146.14" height="3.85" transform="translate(-279.43 1465.21) rotate(-59.71)"/><rect class="cls-2" x="1024.83" y="965.63" width="3.85" height="146.14" transform="translate(-17.67 2059.64) rotate(-89.68)"/><rect class="cls-2" x="915.58" y="901.73" width="3.85" height="146.14" transform="translate(-362.31 582.21) rotate(-29.68)"/><rect class="cls-2" x="845.13" y="846.32" width="146.14" height="3.85" transform="translate(-277.36 1213.26) rotate(-59.71)"/><rect class="cls-2" x="507.9" y="988.05" width="4.61" height="175.22" transform="translate(-568.28 1579.86) rotate(-89.68)"/><rect class="cls-2" x="638.88" y="1064.65" width="4.61" height="175.22" transform="translate(-486.43 468.66) rotate(-29.68)"/><rect class="cls-2" x="552.74" y="1301.7" width="175.22" height="4.61" transform="translate(-808.59 1198.89) rotate(-59.7)"/><rect class="cls-2" x="506.2" y="1291.53" width="4.61" height="175.22" transform="translate(-873.45 1879.94) rotate(-89.68)"/><rect class="cls-2" x="375.21" y="1214.93" width="4.61" height="175.22" transform="translate(-595.43 357.82) rotate(-29.68)"/><rect class="cls-2" x="290.76" y="1148.49" width="175.22" height="4.61" transform="translate(-806.11 896.8) rotate(-59.7)"/></g><g class="cls-5"><rect class="cls-2" x="1077.26" y="632.86" width="2.16" height="82.18" transform="translate(398.39 1748.51) rotate(-89.68)"/><rect class="cls-2" x="1138.7" y="668.79" width="2.16" height="82.18" transform="translate(-201.97 657.51) rotate(-29.68)"/><rect class="cls-2" x="1098.29" y="779.97" width="82.18" height="2.17" transform="translate(-110.2 1369.92) rotate(-59.66)"/><rect class="cls-2" x="1076.47" y="775.2" width="2.16" height="82.18" transform="translate(255.26 1889.27) rotate(-89.68)"/><rect class="cls-2" x="1015.03" y="739.27" width="2.16" height="82.18" transform="translate(-253.09 605.52) rotate(-29.68)"/><rect class="cls-2" x="975.42" y="708.11" width="82.18" height="2.17" transform="translate(-109 1228.3) rotate(-59.66)"/><rect class="cls-2" x="426.48" y="642.95" width="63.62" height="2.35" transform="translate(-329.08 714.58) rotate(-59.68)"/><rect class="cls-2" x="456.81" y="667.41" width="2.35" height="63.62" transform="translate(-286.13 318.5) rotate(-29.68)"/><rect class="cls-2" x="504.37" y="695.22" width="2.35" height="63.62" transform="matrix(0.01, -1, 1, 0.01, -224.3, 1228.5)"/><rect class="cls-2" x="521.6" y="698.58" width="63.62" height="2.35" transform="translate(-330 824.28) rotate(-59.68)"/><rect class="cls-2" x="552.54" y="612.84" width="2.35" height="63.62" transform="translate(-246.56 358.75) rotate(-29.68)"/><rect class="cls-2" x="504.98" y="585.03" width="2.35" height="63.62" transform="translate(-113.5 1119.54) rotate(-89.68)"/><rect class="cls-2" x="1158.53" y="752.04" width="86.33" height="3.81" transform="translate(-55.42 1411.32) rotate(-59.71)"/><rect class="cls-2" x="1199.38" y="785.54" width="3.81" height="86.33" transform="translate(-252.74 703.55) rotate(-29.68)"/><rect class="cls-2" x="1263.92" y="823.28" width="3.81" height="86.33" transform="translate(392.33 2127.43) rotate(-89.68)"/><rect class="cls-2" x="1287.62" y="827.53" width="86.33" height="3.81" transform="translate(-56.61 1560.23) rotate(-59.71)"/><rect class="cls-2" x="1329.3" y="711.5" width="3.81" height="86.33" transform="translate(-199.03 758.17) rotate(-29.68)"/><rect class="cls-2" x="1264.76" y="673.75" width="3.81" height="86.33" transform="translate(542.66 1979.55) rotate(-89.68)"/></g><g class="cls-3"><rect class="cls-2" x="2473.89" y="754.24" width="3.11" height="118.22" transform="translate(1648.29 3284.22) rotate(-89.68)"/><rect class="cls-2" x="2385.52" y="702.56" width="3.11" height="118.22" transform="translate(-63.97 1281.92) rotate(-29.68)"/><rect class="cls-2" x="2328.54" y="657.74" width="118.22" height="3.11" transform="translate(612.96 2387.3) rotate(-59.67)"/><rect class="cls-2" x="2475.04" y="549.49" width="3.11" height="118.22" transform="translate(1854.18 3081.75) rotate(-89.68)"/><rect class="cls-2" x="2563.41" y="601.17" width="3.11" height="118.22" transform="translate(9.57 1356.7) rotate(-29.68)"/><rect class="cls-2" x="2505.29" y="761.1" width="118.22" height="3.11" transform="translate(611.24 2591.03) rotate(-59.67)"/><rect class="cls-2" x="2484.67" y="380.03" width="2.95" height="111.89" transform="translate(2036.3 2919.65) rotate(-89.68)"/><rect class="cls-2" x="2401.02" y="331.12" width="2.94" height="111.89" transform="translate(123.55 1240.4) rotate(-29.68)"/><rect class="cls-2" x="2347.09" y="288.69" width="111.89" height="2.94" transform="translate(939.24 2217.88) rotate(-59.67)"/><rect class="cls-2" x="2485.75" y="186.24" width="2.95" height="111.89" transform="translate(2231.15 2728.01) rotate(-89.68)"/><rect class="cls-2" x="2569.39" y="235.16" width="2.94" height="111.89" transform="translate(193.16 1311.19) rotate(-29.68)"/><rect class="cls-2" x="2514.38" y="386.53" width="111.89" height="2.94" transform="translate(937.55 2410.66) rotate(-59.67)"/><rect class="cls-2" x="2321.69" y="979.27" width="3.25" height="123.54" transform="matrix(0.01, -1, 1, 0.01, 1269.34, 3358.51)"/><rect class="cls-2" x="2229.34" y="925.26" width="3.25" height="123.54" transform="translate(-196.04 1234.15) rotate(-29.68)"/><rect class="cls-2" x="2169.79" y="878.42" width="123.54" height="3.25" transform="translate(346.04 2363) rotate(-59.71)"/><rect class="cls-2" x="2322.88" y="765.3" width="3.25" height="123.54" transform="translate(1484.49 3146.93) rotate(-89.68)"/><rect class="cls-2" x="2415.24" y="819.31" width="3.25" height="123.54" transform="translate(-119.19 1312.32) rotate(-29.68)"/><rect class="cls-2" x="2354.5" y="986.44" width="123.54" height="3.25" transform="translate(344.3 2576.01) rotate(-59.71)"/><rect class="cls-2" x="1927.21" y="486.55" width="3.38" height="128.51" transform="translate(1367.33 2476.6) rotate(-89.68)"/><rect class="cls-2" x="1831.14" y="430.37" width="3.38" height="128.51" transform="translate(-4.45 972.44) rotate(-29.68)"/><rect class="cls-2" x="1769.2" y="381.65" width="128.51" height="3.38" transform="translate(576.62 1772.17) rotate(-59.67)"/><rect class="cls-2" x="1928.45" y="263.98" width="3.38" height="128.51" transform="translate(1591.14 2256.51) rotate(-89.68)"/><rect class="cls-2" x="2024.52" y="320.16" width="3.38" height="128.51" transform="translate(75.49 1053.73) rotate(-29.68)"/><rect class="cls-2" x="1961.33" y="494.01" width="128.51" height="3.38" transform="translate(575.14 1994.01) rotate(-59.68)"/><rect class="cls-2" x="1776.16" y="676.8" width="3.78" height="117.62" transform="translate(1032.5 2509.52) rotate(-89.68)"/><rect class="cls-2" x="1688.23" y="625.38" width="3.79" height="117.62" transform="translate(-117.04 926.64) rotate(-29.68)"/><rect class="cls-2" x="1631.88" y="580.44" width="117.62" height="3.78" transform="translate(333.8 1746.97) rotate(-59.65)"/><rect class="cls-2" x="1777.3" y="473.08" width="3.78" height="117.62" transform="translate(1237.37 2308.08) rotate(-89.68)"/><rect class="cls-2" x="1865.23" y="524.5" width="3.79" height="117.62" transform="translate(-43.88 1001.04) rotate(-29.68)"/><rect class="cls-2" x="1807.74" y="683.28" width="117.62" height="3.78" transform="translate(332.04 1949.59) rotate(-59.65)"/></g><g class="cls-5"><rect class="cls-2" x="2440.96" y="297.06" width="2.11" height="80.16" transform="matrix(0.01, -1, 1, 0.01, 2091.22, 2777.24)"/><rect class="cls-2" x="2381.04" y="262.02" width="2.11" height="80.16" transform="translate(162.96 1219.19) rotate(-29.68)"/><rect class="cls-2" x="2342.4" y="231.63" width="80.16" height="2.11" transform="translate(979.31 2172.13) rotate(-59.69)"/><rect class="cls-2" x="2441.74" y="158.23" width="2.11" height="80.16" transform="translate(2230.86 2639.96) rotate(-89.68)"/><rect class="cls-2" x="2501.66" y="193.28" width="2.11" height="80.16" transform="translate(212.79 1269.84) rotate(-29.68)"/><rect class="cls-2" x="2462.25" y="301.72" width="80.16" height="2.11" transform="translate(977.87 2310.09) rotate(-59.68)"/><rect class="cls-2" x="2412.53" y="102.46" width="2.11" height="80.16" transform="translate(2257.59 2555.29) rotate(-89.68)"/><rect class="cls-2" x="2352.61" y="67.41" width="2.11" height="80.16" transform="translate(255.56 1179.52) rotate(-29.68)"/><rect class="cls-2" x="2313.98" y="37.02" width="80.16" height="2.11" transform="translate(1132.96 2051.02) rotate(-59.68)"/><rect class="cls-2" x="2413.31" y="-36.37" width="2.11" height="80.16" transform="translate(2397.19 2418.01) rotate(-89.68)"/><rect class="cls-2" x="2473.23" y="-1.33" width="2.11" height="80.16" transform="translate(305.42 1230.23) rotate(-29.68)"/><rect class="cls-2" x="2433.82" y="107.11" width="80.16" height="2.11" transform="translate(1131.79 2189.18) rotate(-59.68)"/><polygon class="cls-2" points="2251.49 992.52 2181.29 992.13 2181.3 990.28 2251.51 990.67 2251.49 992.52"/><rect class="cls-2" x="2162.99" y="925.6" width="1.85" height="70.21" transform="translate(-191.8 1197.5) rotate(-29.68)"/><rect class="cls-2" x="2129.15" y="898.98" width="70.21" height="1.85" transform="translate(294.55 2313.42) rotate(-59.67)"/><polygon class="cls-2" points="2252.18 870.92 2181.97 870.53 2181.98 868.68 2252.19 869.07 2252.18 870.92"/><rect class="cls-2" x="2268.64" y="865.39" width="1.85" height="70.21" transform="translate(-148.13 1241.91) rotate(-29.68)"/><rect class="cls-2" x="2234.12" y="960.37" width="70.21" height="1.85" transform="translate(293.51 2434.39) rotate(-59.67)"/><rect class="cls-2" x="1944.83" y="840.49" width="3.38" height="95.37" transform="translate(1047.49 2829.71) rotate(-89.68)"/><rect class="cls-2" x="1873.53" y="798.79" width="3.38" height="95.37" transform="translate(-173.12 1039.59) rotate(-29.68)"/><rect class="cls-2" x="1828" y="762.2" width="95.37" height="3.38" transform="matrix(0.5, -0.86, 0.86, 0.5, 269.69, 1997.79)"/><rect class="cls-2" x="1945.75" y="675.3" width="3.38" height="95.37" transform="translate(1213.59 2666.36) rotate(-89.68)"/><rect class="cls-2" x="2017.05" y="717" width="3.38" height="95.37" transform="translate(-113.78 1099.96) rotate(-29.68)"/><rect class="cls-2" x="1970.59" y="845.59" width="95.37" height="3.38" transform="translate(268.34 2162.21) rotate(-59.69)"/><rect class="cls-2" x="1714.9" y="843.52" width="2.38" height="67.2" transform="translate(829.38 2588.27) rotate(-89.68)"/><rect class="cls-2" x="1664.66" y="814.14" width="2.38" height="67.2" transform="translate(-201.21 936.08) rotate(-29.68)"/><rect class="cls-2" x="1632.58" y="788.35" width="67.2" height="2.39" transform="translate(143.58 1829.36) rotate(-59.68)"/><rect class="cls-2" x="1715.55" y="727.13" width="2.38" height="67.2" transform="translate(946.46 2473.2) rotate(-89.68)"/><rect class="cls-2" x="1765.79" y="756.5" width="2.38" height="67.2" transform="translate(-159.4 978.59) rotate(-29.68)"/><rect class="cls-2" x="1733.05" y="847.11" width="67.2" height="2.39" transform="translate(142.48 1945) rotate(-59.68)"/><rect class="cls-2" x="1564" y="830.17" width="1.77" height="49.87" transform="translate(701.08 2415.21) rotate(-89.68)"/><rect class="cls-2" x="1526.72" y="808.37" width="1.77" height="49.88" transform="translate(-212.2 865.7) rotate(-29.68)"/><rect class="cls-2" x="1502.9" y="789.23" width="49.87" height="1.77" transform="translate(74.93 1710.78) rotate(-59.71)"/><rect class="cls-2" x="1564.48" y="743.79" width="1.77" height="49.87" transform="translate(787.88 2329.76) rotate(-89.68)"/><rect class="cls-2" x="1601.77" y="765.6" width="1.77" height="49.87" transform="translate(-181.17 897.29) rotate(-29.68)"/><rect class="cls-2" x="1577.47" y="832.84" width="49.87" height="1.77" transform="translate(74.22 1796.77) rotate(-59.71)"/><rect class="cls-2" x="1597.23" y="698.07" width="2.13" height="69.89" transform="translate(856.41 2327.21) rotate(-89.68)"/><rect class="cls-2" x="1544.99" y="667.51" width="2.13" height="69.89" transform="translate(-144.99 857.72) rotate(-29.68)"/><rect class="cls-2" x="1511.44" y="640.87" width="69.89" height="2.13" transform="translate(211.79 1652.99) rotate(-59.69)"/><rect class="cls-2" x="1597.91" y="577.02" width="2.13" height="69.89" transform="translate(978.09 2207.49) rotate(-89.68)"/><rect class="cls-2" x="1650.16" y="607.57" width="2.13" height="69.89" transform="translate(-101.52 901.89) rotate(-29.68)"/><rect class="cls-2" x="1615.94" y="701.98" width="69.89" height="2.13" transform="translate(211.27 1774.12) rotate(-59.72)"/><rect class="cls-2" x="1334.9" y="692.67" width="63.62" height="2.35" transform="translate(77.84 1523.38) rotate(-59.68)"/><rect class="cls-2" x="1365.23" y="717.13" width="2.35" height="63.62" transform="translate(-191.57 774.85) rotate(-29.68)"/><rect class="cls-2" x="1412.79" y="744.94" width="2.35" height="63.62" transform="translate(629.32 2186.35) rotate(-89.68)"/><rect class="cls-2" x="1430.02" y="748.3" width="63.62" height="2.35" transform="translate(76.93 1633.04) rotate(-59.68)"/><rect class="cls-2" x="1460.96" y="662.56" width="2.35" height="63.62" transform="translate(-151.99 815.11) rotate(-29.68)"/><rect class="cls-2" x="1413.4" y="634.75" width="2.35" height="63.62" transform="translate(740.12 2077.39) rotate(-89.68)"/><rect class="cls-2" x="2521.65" y="865.39" width="2.19" height="83.15" transform="translate(1601.77 3424.62) rotate(-89.68)"/><rect class="cls-2" x="2459.49" y="829.03" width="2.19" height="83.15" transform="translate(-108.27 1332.57) rotate(-29.68)"/><rect class="cls-2" x="2419.41" y="797.5" width="83.15" height="2.19" transform="matrix(0.5, -0.86, 0.86, 0.5, 529.25, 2519.82)"/><rect class="cls-2" x="2522.46" y="721.36" width="2.19" height="83.15" transform="translate(1746.52 3282.19) rotate(-89.68)"/><rect class="cls-2" x="2584.62" y="757.72" width="2.19" height="83.15" transform="translate(-56.54 1385.2) rotate(-29.68)"/><rect class="cls-2" x="2543.73" y="870.21" width="83.15" height="2.19" transform="translate(528.05 2663.14) rotate(-59.68)"/><rect class="cls-2" x="1652.46" y="652.93" width="2.2" height="83.77" transform="translate(949.51 2344.47) rotate(-89.68)"/><rect class="cls-2" x="1589.83" y="616.31" width="2.21" height="83.77" transform="translate(-117.19 874.09) rotate(-29.68)"/><rect class="cls-2" x="1549.46" y="584.54" width="83.77" height="2.21" transform="translate(282.05 1663.19) rotate(-59.66)"/><rect class="cls-2" x="1653.27" y="507.84" width="2.21" height="83.77" transform="translate(1095.42 2201) rotate(-89.68)"/><rect class="cls-2" x="1715.9" y="544.46" width="2.21" height="83.77" transform="translate(-65.07 927.1) rotate(-29.68)"/><rect class="cls-2" x="1674.71" y="657.79" width="83.77" height="2.21" transform="translate(280.81 1807.54) rotate(-59.66)"/></g><g class="cls-4"><rect class="cls-2" x="2188.25" y="663.74" width="4.98" height="188.95" transform="translate(1420.31 2944.68) rotate(-89.68)"/><rect class="cls-2" x="2047" y="581.13" width="4.97" height="188.95" transform="matrix(0.87, -0.5, 0.5, 0.87, -65.65, 1103.45)"/><rect class="cls-2" x="1955.93" y="509.49" width="188.95" height="4.97" transform="translate(572.91 2023.03) rotate(-59.66)"/><rect class="cls-2" x="2190.08" y="336.48" width="4.98" height="188.95" transform="translate(1749.38 2621.08) rotate(-89.68)"/><rect class="cls-2" x="2331.33" y="419.08" width="4.97" height="188.95" transform="translate(51.89 1222.97) rotate(-29.68)"/><rect class="cls-2" x="2238.43" y="674.7" width="188.95" height="4.97" transform="translate(570.14 2348.62) rotate(-59.66)"/><rect class="cls-2" x="2735.11" y="607.08" width="4.94" height="187.55" transform="translate(2021.45 3434.48) rotate(-89.68)"/><rect class="cls-2" x="2594.9" y="525.09" width="4.94" height="187.55" transform="translate(34.33 1367.29) rotate(-29.68)"/><rect class="cls-2" x="2504.5" y="453.97" width="187.55" height="4.94" transform="translate(892.58 2468.9) rotate(-59.68)"/><rect class="cls-2" x="2736.92" y="282.24" width="4.94" height="187.55" transform="translate(2348.09 3113.27) rotate(-89.68)"/><rect class="cls-2" x="2877.13" y="364.24" width="4.94" height="187.55" transform="translate(151.01 1485.97) rotate(-29.68)"/><rect class="cls-2" x="2784.92" y="617.96" width="187.55" height="4.94" transform="translate(890.59 2792.82) rotate(-59.7)"/><rect class="cls-2" x="2021.59" y="757.1" width="5.8" height="220.33" transform="translate(1145.94 2886.88) rotate(-89.68)"/><rect class="cls-2" x="1856.88" y="660.77" width="5.8" height="220.33" transform="translate(-137.74 1022.05) rotate(-29.68)"/><rect class="cls-2" x="1750.68" y="577.23" width="220.33" height="5.8" transform="translate(420.91 1893.86) rotate(-59.69)"/><rect class="cls-2" x="2023.72" y="375.49" width="5.8" height="220.33" transform="translate(1529.66 2509.53) rotate(-89.68)"/><rect class="cls-2" x="2188.43" y="471.81" width="5.8" height="220.33" transform="translate(-0.67 1161.41) rotate(-29.68)"/><rect class="cls-2" x="2080.1" y="769.88" width="220.33" height="5.8" transform="translate(417.8 2273.72) rotate(-59.69)"/><rect class="cls-2" x="2785.36" y="843.06" width="3.81" height="144.82" transform="translate(1856.25 3697.59) rotate(-89.68)"/><rect class="cls-2" x="2677.09" y="779.75" width="3.81" height="144.82" transform="translate(-70.48 1438.33) rotate(-29.68)"/><rect class="cls-2" x="2607.29" y="724.83" width="144.82" height="3.81" transform="translate(700.36 2673.83) rotate(-59.7)"/><rect class="cls-2" x="2786.76" y="592.23" width="3.81" height="144.82" transform="translate(2108.48 3449.55) rotate(-89.68)"/><rect class="cls-2" x="2895.02" y="655.54" width="3.81" height="144.82" transform="translate(19.63 1529.98) rotate(-29.68)"/><rect class="cls-2" x="2823.82" y="851.46" width="144.82" height="3.81" transform="translate(698.32 2923.54) rotate(-59.7)"/><rect class="cls-2" x="2412.52" y="663.48" width="3.7" height="140.77" transform="translate(1667.04 3144.1) rotate(-89.68)"/><rect class="cls-2" x="2307.28" y="601.94" width="3.71" height="140.77" transform="translate(-29.95 1231.6) rotate(-29.68)"/><rect class="cls-2" x="2239.43" y="548.56" width="140.77" height="3.71" transform="translate(668.58 2266.38) rotate(-59.68)"/><rect class="cls-2" x="2413.88" y="419.67" width="3.71" height="140.77" transform="translate(1912.19 2903) rotate(-89.68)"/><rect class="cls-2" x="2519.11" y="481.21" width="3.71" height="140.77" transform="translate(57.62 1320.66) rotate(-29.68)"/><rect class="cls-2" x="2449.9" y="671.65" width="140.77" height="3.71" transform="translate(666.61 2509.08) rotate(-59.68)"/><rect class="cls-2" x="2248.06" y="377.72" width="4.54" height="172.31" transform="translate(1773.9 2711.58) rotate(-89.68)"/><rect class="cls-2" x="2119.25" y="302.39" width="4.54" height="172.3" transform="translate(85.94 1101.46) rotate(-29.68)"/><rect class="cls-2" x="2036.2" y="237.06" width="172.31" height="4.53" transform="translate(843.96 1950.29) rotate(-59.67)"/><rect class="cls-2" x="2249.73" y="79.29" width="4.54" height="172.31" transform="translate(2074 2416.48) rotate(-89.68)"/><rect class="cls-2" x="2378.54" y="154.62" width="4.54" height="172.31" transform="translate(193.14 1210.47) rotate(-29.68)"/><rect class="cls-2" x="2293.82" y="387.72" width="172.31" height="4.53" transform="translate(841.56 2247.31) rotate(-59.67)"/></g><path class="cls-2" d="M2442.75,695.09a6.85,6.85,0,1,1,9-3.55A6.85,6.85,0,0,1,2442.75,695.09Z"/><path class="cls-2" d="M2318.6,529.14a8,8,0,1,1,8.81,7A8,8,0,0,1,2318.6,529.14Z"/><path class="cls-2" d="M2491.64,435.28a4.87,4.87,0,1,1-1,6.81A4.87,4.87,0,0,1,2491.64,435.28Z"/><path class="cls-2" d="M2661.22,591.24a6.75,6.75,0,1,1-8.88,3.5A6.76,6.76,0,0,1,2661.22,591.24Z"/><path class="cls-2" d="M2723.78,699.37a7.2,7.2,0,1,1-8-6.35A7.19,7.19,0,0,1,2723.78,699.37Z"/><path class="cls-2" d="M2624.51,770.1a11.72,11.72,0,1,1,2.45-16.39A11.71,11.71,0,0,1,2624.51,770.1Z"/><path class="cls-2" d="M1680.78,766.45a7.07,7.07,0,1,1,9.3-3.66A7.06,7.06,0,0,1,1680.78,766.45Z"/><path class="cls-2" d="M1588.44,708.19a9,9,0,1,1,9.94,7.91A9,9,0,0,1,1588.44,708.19Z"/><path class="cls-2" d="M1763.86,559.49a6.27,6.27,0,1,1-1.31,8.77A6.27,6.27,0,0,1,1763.86,559.49Z"/><path class="cls-2" d="M1843.42,763.15a7.83,7.83,0,1,1-10.31,4.05A7.83,7.83,0,0,1,1843.42,763.15Z"/><path class="cls-2" d="M1918.07,769.76a6.57,6.57,0,1,1-7.27-5.78A6.57,6.57,0,0,1,1918.07,769.76Z"/><path class="cls-2" d="M1874.08,894.44a5.81,5.81,0,1,1,1.21-8.12A5.82,5.82,0,0,1,1874.08,894.44Z"/><path class="cls-2" d="M2098.83,551.79a12.18,12.18,0,1,1,13.48,10.73A12.18,12.18,0,0,1,2098.83,551.79Z"/><path class="cls-2" d="M622.86,1185.9a15.3,15.3,0,1,1-20.13,7.92A15.3,15.3,0,0,1,622.86,1185.9Z"/><path class="cls-2" d="M622.44,839.48a11.54,11.54,0,1,1-12.78-10.16A11.54,11.54,0,0,1,622.44,839.48Z"/><path class="cls-2" d="M465.26,1148.05a12,12,0,1,1-2.52,16.83A12,12,0,0,1,465.26,1148.05Z"/><path class="cls-2" d="M466,896.87a5.23,5.23,0,1,1-6.88,2.71A5.23,5.23,0,0,1,466,896.87Z"/><path class="cls-2" d="M562.9,1046.94a2.17,2.17,0,1,1-2.41-1.91A2.17,2.17,0,0,1,562.9,1046.94Z"/><path class="cls-2" d="M480.31,983.23a2.13,2.13,0,1,1,.45-3A2.13,2.13,0,0,1,480.31,983.23Z"/><path class="cls-2" d="M336.84,1028.16a2.35,2.35,0,1,1,3.09-1.22A2.34,2.34,0,0,1,336.84,1028.16Z"/><path class="cls-2" d="M400.89,956.84a3.83,3.83,0,1,1,4.24,3.38A3.84,3.84,0,0,1,400.89,956.84Z"/><path class="cls-2" d="M485,833.54a2.77,2.77,0,1,1-.58,3.87A2.77,2.77,0,0,1,485,833.54Z"/><path class="cls-2" d="M2222.5,725.76a5.9,5.9,0,1,0-8.26-1.23A5.91,5.91,0,0,0,2222.5,725.76Z"/><path class="cls-2" d="M2329.93,612.93a2.84,2.84,0,1,0-2.5,3.14A2.84,2.84,0,0,0,2329.93,612.93Z"/><path class="cls-2" d="M2251.83,571.51a6.76,6.76,0,1,0,3.5,8.9A6.77,6.77,0,0,0,2251.83,571.51Z"/><path class="cls-2" d="M2046.53,661.74a3,3,0,1,0,4.16.62A3,3,0,0,0,2046.53,661.74Z"/><path class="cls-2" d="M2098.88,694.7a6,6,0,1,0,5.33-6.7A6,6,0,0,0,2098.88,694.7Z"/><path class="cls-2" d="M2084.54,692.27a3.2,3.2,0,1,0-1.65-4.21A3.19,3.19,0,0,0,2084.54,692.27Z"/></g></g></svg>